<?xml version="1.0" encoding="iso-8859-1"?>
<!-- Generator: Adobe Illustrator 19.0.0, SVG Export Plug-In . SVG Version: 6.00 Build 0)  -->
<svg version="1.1" id="Capa_1" xmlns="http://www.w3.org/2000/svg" xmlns:xlink="http://www.w3.org/1999/xlink" x="0px" y="0px"
	 viewBox="0 0 512 512" style="enable-background:new 0 0 512 512;" xml:space="preserve">
<path style="fill:#303C42;" d="M402.568,431.1c1.807-4.781,2.766-9.887,2.766-15.1c0-22.116-16.974-40.135-38.536-42.249
	c4.042-6.473,6.536-13.91,6.536-21.751c0-25.521-17.146-42.667-42.667-42.667c-5.896,0-10.667,4.771-10.667,10.667
	c0,5,0,10.667-21.333,10.667c-7.927,0-15.105,2.635-21.333,6.967V149.333c0-23.531-19.146-42.667-42.667-42.667V85.333h10.667
	c5.896,0,10.667-4.771,10.667-10.667V21.333h32c5.896,0,10.667-4.771,10.667-10.667S293.896,0,288,0H149.333
	c-23.521,0-42.667,19.135-42.667,42.667v32c0,5.896,4.771,10.667,10.667,10.667H128v21.333c-23.521,0-42.667,19.135-42.667,42.667
	v320C85.333,492.865,104.479,512,128,512h256c23.521,0,42.667-19.135,42.667-42.667C426.667,452.488,416.772,438.033,402.568,431.1z
	"/>
<path style="fill:#878A8F;" d="M128,42.667c0-11.76,9.563-21.333,21.333-21.333h85.333V64H128V42.667z"/>
<path style="opacity:0.2;fill:#FFFFFF;enable-background:new    ;" d="M170.667,21.333h-21.333
	c-11.771,0-21.333,9.573-21.333,21.333V64h21.333V42.667C149.333,30.906,158.896,21.333,170.667,21.333z"/>
<rect x="149.333" y="85.333" style="fill:#878A8F;" width="64" height="21.333"/>
<rect x="213.333" y="21.333" style="opacity:0.1;enable-background:new    ;" width="21.333" height="42.667"/>
<path style="fill:#797D82;" d="M106.667,469.333v-320c0-11.76,9.563-21.333,21.333-21.333h106.667
	c11.771,0,21.333,9.573,21.333,21.333v224c-23.521,0-42.667,19.135-42.667,42.667c0,5.211,0.952,10.322,2.759,15.103
	C201.892,438.036,192,452.491,192,469.333c0,7.806,2.26,15.033,5.935,21.333H128C116.229,490.667,106.667,481.094,106.667,469.333z"
	/>
<path style="opacity:0.2;fill:#FFFFFF;enable-background:new    ;" d="M128,469.333v-320c0-11.76,9.563-21.333,21.333-21.333H128
	c-11.771,0-21.333,9.573-21.333,21.333v320c0,11.76,9.563,21.333,21.333,21.333h21.333C137.563,490.667,128,481.094,128,469.333z"/>
<path style="opacity:0.1;enable-background:new    ;" d="M234.667,149.333V379.27c6.302-3.676,13.529-5.936,21.333-5.936v-224
	c0-11.76-9.563-21.333-21.333-21.333h-21.333C225.104,128,234.667,137.573,234.667,149.333z"/>
<path style="fill:#FBF2E9;" d="M384,490.667H234.667c-11.771,0-21.333-9.573-21.333-21.333S222.896,448,234.667,448h32
	c5.896,0,10.667-4.771,10.667-10.667s-4.771-10.667-10.667-10.667h-28.738c-1.926-3.257-3.262-6.822-3.262-10.667
	c0-11.76,9.563-21.333,21.333-21.333h19.188c5.896,0,10.667-4.771,10.667-10.667c0-4.728-3.118-8.602-7.374-10.003
	c2.594-11.93,9.697-21.997,20.186-21.997c22.375,0,36.042-6.729,40.771-20.031C345.875,334.104,352,339.438,352,352
	c0,10.969-10.375,21.333-21.333,21.333c-5.896,0-10.667,4.771-10.667,10.667c0,5.896,4.771,10.667,10.667,10.667c2.885,0,32,0,32,0
	C374.438,394.667,384,404.24,384,416c0,3.845-1.344,7.41-3.268,10.667H352c-5.896,0-10.667,4.771-10.667,10.667S346.104,448,352,448
	h32c11.771,0,21.333,9.573,21.333,21.333S395.771,490.667,384,490.667z"/>
<path style="opacity:0.1;enable-background:new    ;" d="M341.333,341.333c0,10.969-10.375,21.333-21.333,21.333
	c-5.896,0-10.667,4.771-10.667,10.667S314.104,384,320,384c0-5.896,4.771-10.667,10.667-10.667C341.625,373.333,352,362.969,352,352
	c0-12.353-5.934-17.673-12.25-19.88C340.677,334.68,341.333,337.605,341.333,341.333z"/>
<path style="opacity:0.1;enable-background:new    ;" d="M392.706,449.954c1.21,2.674,1.961,5.591,1.961,8.712
	c0,11.76-9.563,21.333-21.333,21.333H224c-3.12,0-6.034-0.747-8.706-1.954c3.349,7.404,10.725,12.621,19.372,12.621H384
	c11.771,0,21.333-9.573,21.333-21.333C405.333,460.689,400.117,453.302,392.706,449.954z"/>
<linearGradient id="SVGID_1_" gradientUnits="userSpaceOnUse" x1="-44.8844" y1="638.1055" x2="-24.5635" y2="628.6295" gradientTransform="matrix(21.3333 0 0 -21.3333 996.3334 13791.667)">
	<stop  offset="0" style="stop-color:#FFFFFF;stop-opacity:0.2"/>
	<stop  offset="1" style="stop-color:#FFFFFF;stop-opacity:0"/>
</linearGradient>
<path style="fill:url(#SVGID_1_);" d="M402.568,431.1c1.807-4.781,2.766-9.887,2.766-15.1c0-22.116-16.974-40.135-38.536-42.249
	c4.042-6.473,6.536-13.91,6.536-21.751c0-25.521-17.146-42.667-42.667-42.667c-5.896,0-10.667,4.771-10.667,10.667
	c0,5,0,10.667-21.333,10.667c-7.927,0-15.105,2.635-21.333,6.967V149.333c0-23.531-19.146-42.667-42.667-42.667V85.333h10.667
	c5.896,0,10.667-4.771,10.667-10.667V21.333h32c5.896,0,10.667-4.771,10.667-10.667S293.896,0,288,0H149.333
	c-23.521,0-42.667,19.135-42.667,42.667v32c0,5.896,4.771,10.667,10.667,10.667H128v21.333c-23.521,0-42.667,19.135-42.667,42.667
	v320C85.333,492.865,104.479,512,128,512h256c23.521,0,42.667-19.135,42.667-42.667C426.667,452.488,416.772,438.033,402.568,431.1z
	"/>
<g>
</g>
<g>
</g>
<g>
</g>
<g>
</g>
<g>
</g>
<g>
</g>
<g>
</g>
<g>
</g>
<g>
</g>
<g>
</g>
<g>
</g>
<g>
</g>
<g>
</g>
<g>
</g>
<g>
</g>
</svg>
