<?xml version="1.0" encoding="iso-8859-1"?>
<!-- Generator: Adobe Illustrator 19.0.0, SVG Export Plug-In . SVG Version: 6.00 Build 0)  -->
<svg version="1.1" id="Capa_1" xmlns="http://www.w3.org/2000/svg" xmlns:xlink="http://www.w3.org/1999/xlink" x="0px" y="0px"
	 viewBox="0 0 431.503 431.503" style="enable-background:new 0 0 431.503 431.503;" xml:space="preserve">
<path style="fill:#B9D9EA;" d="M169.6,160.552h92c4.8,0,8.8,4,8.8,8.8v92c0,4.8-4,8.8-8.8,8.8h-92c-4.8,0-8.8-4-8.8-8.8v-91.2
	C160,164.552,164,160.552,169.6,160.552z"/>
<path style="fill:#9EC6D8;" d="M220,270.952c-2.4,0-4.8-4-4.8-8.8v-92c0-4.8,2.4-8.8,4.8-8.8h46.4c2.4,0,4.8,4,4.8,8.8v92
	c0,4.8-2.4,8.8-4.8,8.8L220,270.952L220,270.952z"/>
<path style="fill:#B9D9EA;" d="M35.2,306.152c-17.6,0-27.2-10.4-27.2-31.2v-118.4c0-20.8,9.6-31.2,27.2-31.2h4H40h1.6l109.6,39.2
	c4.8,1.6,8.8,5.6,8.8,11.2v30.4l0,0v48l2.4,3.2l-4,4.8c-1.6,1.6-3.2,3.2-5.6,4H152l-110.4,40h-0.8H35.2z"/>
<path style="fill:#9EC6D8;" d="M395.2,306.152h-4h-0.8h-1.6l-109.6-40l0,0c-1.6-0.8-3.2-1.6-4.8-3.2l0,0c-1.6-1.6-2.4-4-2.4-7.2
	v-50.4l0,0v-29.6c0-4.8,3.2-8.8,8-10.4l111.2-40l0,0h4.8c17.6,0,27.2,11.2,27.2,31.2v117.6c0.8,9.6-2.4,20-10.4,26.4
	C408,304.552,401.6,306.952,395.2,306.152z"/>
<path style="fill:#1F2E3A;" d="M395.2,117.352c-3.2,0-5.6,0-8.8,0.8l-111.2,40l-1.6,0.8c-3.2-4-8-5.6-12.8-5.6h-91.2
	c-4.8,0-9.6,2.4-12.8,5.6l-1.6-0.8l-111.2-40c-3.2-0.8-5.6-0.8-8.8-0.8c-22.4,0-35.2,14.4-35.2,39.2v118.4
	c0,24.8,12.8,39.2,35.2,39.2c3.2,0,5.6,0,8.8-0.8l111.2-40h0.8l0.8-0.8c3.2,4,8,5.6,12.8,5.6h92c4.8,0,9.6-2.4,12.8-5.6l0.8,0.8h0.8
	l111.2,40c3.2,0.8,5.6,0.8,8.8,0.8l0,0c8,0,16-2.4,22.4-6.4c9.6-8,14.4-20,12.8-32.8v-118.4
	C430.4,131.752,417.6,117.352,395.2,117.352z M152,195.752l-51.2-12.8c-4-0.8-8.8,1.6-9.6,6.4c-0.8,4,1.6,8,5.6,9.6l55.2,13.6v11.2
	l-32.8,7.2c-4.8,0.8-8,4.8-7.2,8.8c0.8,4.8,4.8,8,8.8,7.2h1.6l29.6-6.4v16c0,0.8,0,0.8,0,0.8c-0.8,0.8-2.4,1.6-3.2,1.6l-109.6,39.2
	c-1.6,0-3.2,0-4,0c-8.8,0-19.2-2.4-19.2-23.2v-118.4c0-20.8,10.4-23.2,19.2-23.2c1.6,0,3.2,0,4.8,0l108.8,39.2
	c3.2,1.6,3.2,1.6,3.2,3.2L152,195.752z M262.4,175.752v86.4c0,0.8-0.8,0.8-0.8,0.8h-92c-0.8,0-0.8-0.8-0.8-0.8v-92
	c0-0.8,0.8-0.8,0.8-0.8l0,0h92c0.8,0,0.8,0.8,0.8,0.8L262.4,175.752L262.4,175.752z M414.4,274.952c0.8,7.2-1.6,14.4-7.2,20
	c-4,2.4-8,4-12,3.2l0,0h-4h-0.8l-108.8-40c-0.8-0.8-2.4-0.8-3.2-1.6v-0.8v-16l29.6,6.4h1.6c4.8,0.8,8-2.4,8.8-7.2s-2.4-8-7.2-8.8
	l-32.8-6.4v-11.2l55.2-13.6c4-1.6,6.4-5.6,5.6-9.6s-5.6-6.4-9.6-5.6l-51.2,12.8v-20.8c0-0.8,0-1.6,3.2-2.4l108.8-39.2
	c1.6,0,3.2-0.8,4.8-0.8c8.8,0,19.2,2.4,19.2,23.2V274.952z"/>
<g>
</g>
<g>
</g>
<g>
</g>
<g>
</g>
<g>
</g>
<g>
</g>
<g>
</g>
<g>
</g>
<g>
</g>
<g>
</g>
<g>
</g>
<g>
</g>
<g>
</g>
<g>
</g>
<g>
</g>
</svg>
