<svg height="512" viewBox="0 0 192 192" width="512" xmlns="http://www.w3.org/2000/svg" xmlns:xlink="http://www.w3.org/1999/xlink"><linearGradient id="New_Gradient_Swatch_2" gradientUnits="userSpaceOnUse" x1="64.314" x2="127.259" y1="141.548" y2="78.603"><stop offset="0" stop-color="#34cdfa"/><stop offset="1" stop-color="#e8d9f1"/></linearGradient><path d="m147.328 2.781a4 4 0 0 0 -6.868.356l-66.548 126.442a32.085 32.085 0 1 0 13.421 8.555c16.083-17.732 38-43.586 52.1-67.076 25.012-41.691 8.606-67.211 7.895-68.277zm-83.328 173.219a16 16 0 1 1 16-16 16.019 16.019 0 0 1 -16 16z" fill="#ccf2fe"/><path d="m90.66 134.443c7.451-8.325 15.868-18.11 24.061-28.437l-14.2-26.982-21.8 41.43c4.059 4.901 8.086 9.599 11.939 13.989z" fill="#99e6fd"/><path d="m177.344 163.563c-1.764 2.645-5.242 7.084-8.726 7.1h-.025c-3.217 0-6.906-3.365-8.958-5.831a31.99 31.99 0 0 0 -41.547-35.257l-66.548-126.438a4 4 0 0 0 -6.868-.356c-.711 1.066-17.117 26.586 7.9 68.277 14.094 23.489 36.014 49.345 52.1 67.076a31.982 31.982 0 1 0 47.989 42.242c3.991 3.27 9.432 6.291 15.937 6.291 8.345 0 15.769-4.788 22.063-14.229zm-49.344 12.437a16 16 0 1 1 16-16 16.019 16.019 0 0 1 -16 16z" fill="url(#New_Gradient_Swatch_2)"/><circle cx="96" cy="112" fill="#fff" r="5"/></svg>