<?xml version="1.0" encoding="iso-8859-1"?>
<!-- Generator: Adobe Illustrator 19.0.0, SVG Export Plug-In . SVG Version: 6.00 Build 0)  -->
<svg version="1.1" id="Capa_1" xmlns="http://www.w3.org/2000/svg" xmlns:xlink="http://www.w3.org/1999/xlink" x="0px" y="0px"
	 viewBox="0 0 391.267 391.267" style="enable-background:new 0 0 391.267 391.267;" xml:space="preserve">
<path style="fill:#B9D9EA;" d="M72.283,258.4c-11.2-3.2-19.2-13.6-20-25.6c0-2.4,0-5.6-0.8-8V220v-0.8
	c-4-58.4-18.4-115.2-41.6-168.8c-4.8-11.2-1.6-24,7.2-32l8-8l4.8,10.4c12.8,26.4,55.2,120,52.8,230.4v11.2L72.283,258.4z"/>
<path style="fill:#FFFFFF;" d="M82.683,250.4c0-80-17.6-158.4-52.8-230.4l-5.6-10.4l12-0.8h2.4c11.2,0,21.6,6.4,26.4,17.6
	c28,64.8,44,133.6,47.2,204c0,8-2.4,15.2-8,20.8c-3.2,3.2-6.4,5.6-10.4,7.2l-11.2,4L82.683,250.4z"/>
<path style="fill:#86BDD1;" d="M75.483,383.2c-10.4,0.8-20.8-4-26.4-12.8c-0.8-1.6-1.6-3.2-1.6-4.8v-0.8V364c0-1.6,0-4,0-6.4v-0.8
	c2.4-12.8,9.6-23.2,20-30.4l254.4-156c4.8-3.2,10.4-4.8,16-4.8c16.8,1.6,31.2,11.2,38.4,26.4c7.2,12,8.8,25.6,4.8,38.4
	c-2.4,8-8,15.2-16,18.4l-268.8,129.6C89.883,381.6,82.683,383.2,75.483,383.2z M89.883,344.8h-0.8c-1.6,0-3.2,1.6-3.2,3.2
	c0,0,0,0,0,0.8c0,0,0.8,4,3.2,4h0.8c1.6,0,3.2-1.6,3.2-3.2c0,0,0,0,0-0.8C93.083,348,92.283,344.8,89.883,344.8L89.883,344.8z
	 M323.483,200.8c-1.6,0-3.2,0-4.8,0.8c-11.2,0.8-18.4,11.2-17.6,21.6s11.2,18.4,21.6,17.6l0,0c1.6,0,3.2,0,4.8-0.8
	c10.4-2.4,16.8-13.6,14.4-24C340.283,207.2,332.283,200.8,323.483,200.8L323.483,200.8z"/>
<path style="fill:#FFFFFF;" d="M323.483,240c-8.8,0-16.8-6.4-19.2-15.2c-2.4-10.4,4-20.8,14.4-23.2l0,0c1.6,0,3.2-0.8,4-0.8
	c11.2,0,20,8.8,20,19.2c0,9.6-6.4,17.6-15.2,19.2C326.683,240,325.083,240,323.483,240z"/>
<path style="fill:#6197AA;" d="M381.083,231.2c4-12.8,1.6-26.4-4.8-38.4l-34.4,19.2c0.8,1.6,0.8,2.4,1.6,4c2.4,10.4-4,20.8-14.4,24
	c-1.6,0-3.2,0.8-4.8,0.8c-6.4,0-12.8-3.2-16-8.8l-216,117.6c0,1.6-1.6,2.4-2.4,2.4h-0.8h-0.8l-36.8,20.8c6.4,7.2,15.2,10.4,24,10.4
	c7.2,0,14.4-1.6,20.8-4.8l269.6-128.8C373.083,246.4,378.683,239.2,381.083,231.2z"/>
<g>
	<path style="fill:#1F2E3A;" d="M337.883,157.6c-7.2,0-13.6,1.6-20,5.6L63.483,320c-3.2,1.6-5.6,4-8.8,6.4c0.8-20,1.6-45.6,2.4-67.2
		c7.2,5.6,16,8.8,24.8,8.8h1.6c10.4,0,20-4,27.2-11.2s10.4-16.8,10.4-27.2c-3.2-71.2-19.2-141.6-48-207.2
		C67.483,8.8,53.883,0,39.483,0c-5.6,0-12,1.6-16.8,4l0,0l0,0c-18.4,9.6-27.2,30.4-19.2,48.8c23.2,52.8,36.8,109.6,40,167.2
		c-0.8,12.8-4.8,105.6-4,137.6c0,2.4,0,4,0,6.4c0,0.8,0,1.6,0,1.6s0,0,0,0.8c0.8,2.4,1.6,5.6,2.4,8c7.2,11.2,20,17.6,33.6,16.8
		c8,0,16.8-1.6,24-5.6l268.8-128.8c9.6-4.8,16.8-12.8,20-23.2c4.8-15.2,2.4-31.2-5.6-44.8
		C374.683,170.4,357.083,159.2,337.883,157.6z M38.683,16.8c8,0,16,4.8,19.2,12.8c28,64,43.2,132,46.4,201.6
		c0,5.6-1.6,11.2-5.6,15.2c-2.4,2.4-4.8,4-8,4.8c0-80.8-18.4-160.8-53.6-233.6L38.683,16.8z M17.083,47.2c-3.2-8-0.8-16.8,4.8-23.2
		c13.6,27.2,54.4,118.4,52,227.2c-8-2.4-14.4-9.6-14.4-18.4c0-4-0.8-8-0.8-12.8v-0.8v-0.8C55.483,159.2,41.083,101.6,17.083,47.2z
		 M373.883,228.8c-1.6,6.4-6.4,11.2-12,14.4l-268.8,128c-5.6,2.4-11.2,4-17.6,4c-7.2,0.8-14.4-2.4-19.2-8.8
		c-0.8-0.8-0.8-2.4-0.8-3.2c0-1.6,0-3.2,0-5.6c2.4-10.4,8-19.2,17.6-24l254.4-156c3.2-2.4,7.2-3.2,12-3.2
		c13.6,1.6,25.6,9.6,31.2,21.6C375.483,205.6,377.083,217.6,373.883,228.8z"/>
	<path style="fill:#1F2E3A;" d="M323.483,192.8c-2.4,0-4,0-6.4,0.8c-15.2,4-24,18.4-20,33.6c3.2,12,13.6,20.8,26.4,20.8
		c2.4,0,4,0,6.4-0.8c15.2-4,24-18.4,20-33.6C346.683,201.6,336.283,192.8,323.483,192.8z M333.083,226.4c-3.2,5.6-10.4,7.2-16,4
		s-7.2-10.4-4-16s10.4-7.2,16-4c2.4,1.6,4.8,4,5.6,7.2C335.483,220.8,335.483,224,333.083,226.4L333.083,226.4z"/>
	<path style="fill:#1F2E3A;" d="M86.683,336.8c-6.4,1.6-9.6,8.8-8,15.2c1.6,5.6,7.2,8.8,12.8,8c6.4-1.6,9.6-8.8,8-15.2
		C97.883,340,92.283,336,86.683,336.8z"/>
</g>
<g>
</g>
<g>
</g>
<g>
</g>
<g>
</g>
<g>
</g>
<g>
</g>
<g>
</g>
<g>
</g>
<g>
</g>
<g>
</g>
<g>
</g>
<g>
</g>
<g>
</g>
<g>
</g>
<g>
</g>
</svg>
