<?xml version="1.0" encoding="iso-8859-1"?>
<!-- Generator: Adobe Illustrator 19.0.0, SVG Export Plug-In . SVG Version: 6.00 Build 0)  -->
<svg version="1.1" id="Capa_1" xmlns="http://www.w3.org/2000/svg" xmlns:xlink="http://www.w3.org/1999/xlink" x="0px" y="0px"
	 viewBox="0 0 512 512" style="enable-background:new 0 0 512 512;" xml:space="preserve">
<path style="fill:#303C42;" d="M383.219,44.229C378.885,19.146,356.969,0,330.667,0c-16.792,0-32.438,8.01-42.438,21.333
	c-0.073,0-0.156,0-0.229,0H175c-37.677,0-68.333,30.656-68.333,68.333c0,5,0.552,9.99,1.698,15.104l38.667,154.033
	C135.844,263.796,128,274.979,128,288c0,12.615,7.333,23.542,17.969,28.75C137.417,329.906,128,351.708,128,384
	s9.417,54.094,17.969,67.25C135.333,456.458,128,467.385,128,480c0,17.646,14.354,32,32,32h149.333c17.646,0,32-14.354,32-32
	c0-12.615-7.333-23.542-17.969-28.75c8.552-13.156,17.969-34.958,17.969-67.25s-9.417-54.094-17.969-67.25
	c10.635-5.208,17.969-16.135,17.969-28.75c0-13.021-7.844-24.204-19.031-29.197l32.973-131.345
	c12.914-1.367,23.677-10.085,27.35-22.167c13.125-3.99,22.708-16.208,22.708-30.625C405.333,60.469,396.042,48.406,383.219,44.229z"
	/>
<path style="fill:#F1D3B5;" d="M128,89.667c0-25.917,21.083-47,47-47h82.965C256.77,46.02,256,49.576,256,53.333
	c0,17.719,14.76,32.427,32.229,32c8.167,10.875,20.094,18.208,33.333,20.542c2.26,6.957,6.967,12.694,12.96,16.655L301.01,256
	H168.323L129.115,99.854C128.375,96.531,128,93.104,128,89.667z"/>
<path style="opacity:0.2;fill:#FFFFFF;enable-background:new    ;" d="M146.592,110.521c-0.74-3.323-1.115-6.75-1.115-10.188
	c0-25.917,21.083-47,47-47H256c0-3.758,0.77-7.314,1.965-10.667H175c-25.917,0-47,21.083-47,47c0,3.438,0.375,6.865,1.115,10.188
	L168.323,256h14.799L146.592,110.521z"/>
<path style="fill:#BF6A1E;" d="M296.604,317.688C297.563,318.458,320,337.188,320,384s-22.438,65.542-23.313,66.25
	c-3.594,2.792-5.021,7.573-3.542,11.875c1.479,4.313,5.542,7.208,10.094,7.208h6.094c5.885,0,10.667,4.781,10.667,10.667
	c0,5.885-4.781,10.667-10.667,10.667H160c-5.885,0-10.667-4.781-10.667-10.667c0-5.885,4.781-10.667,10.667-10.667h6.094
	c4.521,0,8.5-2.875,10.01-7.135c1.51-4.26,0.125-9.042-3.375-11.885c-0.958-0.771-23.396-19.5-23.396-66.313
	s22.438-65.542,23.313-66.25c3.594-2.792,5.021-7.573,3.542-11.875c-1.479-4.313-5.542-7.208-10.094-7.208H160
	c-5.885,0-10.667-4.781-10.667-10.667c0-5.885,4.781-10.667,10.667-10.667h149.333c5.885,0,10.667,4.781,10.667,10.667
	c0,5.885-4.781,10.667-10.667,10.667h-6.094c-4.521,0-8.5,2.875-10.01,7.135C291.719,310.063,293.104,314.844,296.604,317.688z"/>
<path style="opacity:0.2;fill:#FFFFFF;enable-background:new    ;" d="M170.667,480c0-5.885,3.586-10.667,8-10.667h4.57
	c3.391,0,6.375-2.875,7.508-7.135c1.133-4.26,0.094-9.042-2.531-11.885c-0.719-0.771-17.547-19.5-17.547-66.313
	s16.828-65.542,17.484-66.25c2.695-2.792,3.766-7.573,2.656-11.875c-1.109-4.313-4.156-7.208-7.57-7.208h-4.57
	c-4.414,0-8-4.781-8-10.667c0-5.885,3.586-10.667,8-10.667H160c-5.885,0-10.667,4.781-10.667,10.667
	c0,5.885,4.781,10.667,10.667,10.667h6.094c4.552,0,8.615,2.896,10.094,7.208c1.479,4.302,0.052,9.083-3.542,11.875
	c-0.875,0.708-23.313,19.438-23.313,66.25s22.438,65.542,23.396,66.313c3.5,2.844,4.885,7.625,3.375,11.885
	c-1.51,4.26-5.49,7.135-10.01,7.135H160c-5.885,0-10.667,4.781-10.667,10.667c0,5.885,4.781,10.667,10.667,10.667h18.667
	C174.253,490.667,170.667,485.885,170.667,480z"/>
<path style="opacity:0.1;enable-background:new    ;" d="M320,384c0-46.813-22.438-65.542-23.396-66.313
	c-3.5-2.844-4.885-7.625-3.375-11.885c1.51-4.26,5.49-7.135,10.01-7.135h6.094c5.885,0,10.667-4.781,10.667-10.667
	c0-5.885-4.781-10.667-10.667-10.667h-18.667c4.414,0,8,4.781,8,10.667c0,5.885-3.586,10.667-8,10.667h-4.57
	c-3.391,0-6.375,2.875-7.508,7.135s-0.094,9.042,2.531,11.885c0.719,0.771,17.547,19.5,17.547,66.313s-16.828,65.542-17.484,66.25
	c-2.695,2.792-3.766,7.573-2.656,11.875c1.109,4.313,4.156,7.208,7.57,7.208h4.57c4.414,0,8,4.781,8,10.667
	c0,5.885-3.586,10.667-8,10.667h18.667c5.885,0,10.667-4.781,10.667-10.667c0-5.885-4.781-10.667-10.667-10.667h-6.094
	c-4.552,0-8.615-2.896-10.094-7.208c-1.479-4.302-0.052-9.083,3.542-11.875C297.563,449.542,320,430.813,320,384z"/>
<path style="fill:#FBF2E9;" d="M373.333,85.333c-5.896,0-10.667,4.771-10.667,10.667c0,5.885-4.781,10.667-10.667,10.667
	c-5.885,0-10.667-4.781-10.667-10.667c0-5.896-4.771-10.667-10.667-10.667c-11.594,0-22.313-6.448-27.969-16.844
	c-1.896-3.49-5.531-5.563-9.365-5.563c-0.896,0-1.802,0.115-2.698,0.344c-0.073,0.021-2.573,0.708-2.635,0.729
	c-5.885,0-10.667-4.781-10.667-10.667c0-5.867,4.757-10.628,10.48-10.667h0.09l2.732,0.729c4.708,1.198,9.719-0.906,12.063-5.219
	c5.656-10.396,16.375-16.844,27.969-16.844c17.646,0,32,14.354,32,32c0,5.896,4.771,10.667,10.667,10.667
	C379.219,64,384,68.781,384,74.667C384,80.552,379.219,85.333,373.333,85.333z"/>
<path style="opacity:0.1;enable-background:new    ;" d="M373.333,74.667c-5.896,0-10.667,4.771-10.667,10.667
	C362.667,91.219,357.885,96,352,96c-5.885,0-10.667-4.781-10.667-10.667c0-5.896-4.771-10.667-10.667-10.667
	c-11.594,0-22.313-6.448-27.969-16.844c-1.896-3.49-5.531-5.563-9.365-5.563c-0.896,0-1.802,0.115-2.698,0.344
	c-0.073,0.021-2.573,0.708-2.635,0.729c-3.902,0-7.173-2.206-9.033-5.337c-0.944,1.592-1.634,3.35-1.634,5.337
	C277.333,59.219,282.115,64,288,64c0.063-0.021,2.563-0.708,2.635-0.729c0.896-0.229,1.802-0.344,2.698-0.344
	c3.833,0,7.469,2.073,9.365,5.563c5.656,10.396,16.375,16.844,27.969,16.844c5.896,0,10.667,4.771,10.667,10.667
	c0,5.885,4.781,10.667,10.667,10.667c5.885,0,10.667-4.781,10.667-10.667c0-5.896,4.771-10.667,10.667-10.667
	c5.885,0,10.667-4.781,10.667-10.667c0-1.984-0.69-3.741-1.637-5.333C380.504,72.464,377.234,74.667,373.333,74.667z"/>
<linearGradient id="SVGID_1_" gradientUnits="userSpaceOnUse" x1="-43.7806" y1="638.5357" x2="-27.338" y2="630.8685" gradientTransform="matrix(21.3333 0 0 -21.3333 996.3334 13791.667)">
	<stop  offset="0" style="stop-color:#FFFFFF;stop-opacity:0.2"/>
	<stop  offset="1" style="stop-color:#FFFFFF;stop-opacity:0"/>
</linearGradient>
<path style="fill:url(#SVGID_1_);" d="M383.219,44.229C378.885,19.146,356.969,0,330.667,0c-16.792,0-32.438,8.01-42.438,21.333
	c-0.073,0-0.156,0-0.229,0H175c-37.677,0-68.333,30.656-68.333,68.333c0,5,0.552,9.99,1.698,15.104l38.667,154.033
	C135.844,263.796,128,274.979,128,288c0,12.615,7.333,23.542,17.969,28.75C137.417,329.906,128,351.708,128,384
	s9.417,54.094,17.969,67.25C135.333,456.458,128,467.385,128,480c0,17.646,14.354,32,32,32h149.333c17.646,0,32-14.354,32-32
	c0-12.615-7.333-23.542-17.969-28.75c8.552-13.156,17.969-34.958,17.969-67.25s-9.417-54.094-17.969-67.25
	c10.635-5.208,17.969-16.135,17.969-28.75c0-13.021-7.844-24.204-19.031-29.197l32.973-131.345
	c12.914-1.367,23.677-10.085,27.35-22.167c13.125-3.99,22.708-16.208,22.708-30.625C405.333,60.469,396.042,48.406,383.219,44.229z"
	/>
<g>
</g>
<g>
</g>
<g>
</g>
<g>
</g>
<g>
</g>
<g>
</g>
<g>
</g>
<g>
</g>
<g>
</g>
<g>
</g>
<g>
</g>
<g>
</g>
<g>
</g>
<g>
</g>
<g>
</g>
</svg>
