<svg height="512" viewBox="0 0 192 192" width="512" xmlns="http://www.w3.org/2000/svg" xmlns:xlink="http://www.w3.org/1999/xlink"><linearGradient id="New_Gradient_Swatch_2" gradientUnits="userSpaceOnUse" x1="8.929" x2="147.757" y1="152.929" y2="14.101"><stop offset="0" stop-color="#34cdfa"/><stop offset="1" stop-color="#e8d9f1"/></linearGradient><g fill="#ccf2fe"><path d="m64 32h72v16h-72z"/><path d="m64 56h72v16h-72z"/><path d="m64 80h72v16h-72z"/><path d="m64 104h72v16h-72z"/><path d="m64 128h72v16h-72z"/><path d="m64 152h72v16h-72z"/></g><path d="m132 0h-64a20 20 0 0 0 -20 20v172h24v-168h60a4 4 0 0 0 4-4v-16a4 4 0 0 0 -4-4z" fill="url(#New_Gradient_Swatch_2)"/></svg>