<?xml version="1.0" encoding="iso-8859-1"?>
<!-- Generator: Adobe Illustrator 19.0.0, SVG Export Plug-In . SVG Version: 6.00 Build 0)  -->
<svg version="1.1" id="Capa_1" xmlns="http://www.w3.org/2000/svg" xmlns:xlink="http://www.w3.org/1999/xlink" x="0px" y="0px"
	 viewBox="0 0 397.835 397.835" style="enable-background:new 0 0 397.835 397.835;" xml:space="preserve">
<path style="fill:#FFFFFF;" d="M85.035,383.718c-28,0-50.4-22.4-50.4-51.2c0-4.8,0.8-9.6,2.4-14.4c-17.6-1.6-30.4-16.8-28.8-33.6
	c0.8-7.2,4-14.4,9.6-20c0.8-0.8,0.8-0.8,1.6-1.6l0,0c-6.4-5.6-9.6-14.4-9.6-22.4c0.8-17.6,15.2-32,32.8-31.2c8,0,15.2,3.2,20.8,8.8
	c0.8,0.8,2.4,2.4,3.2,3.2c9.6-8,21.6-12,33.6-12c28,0,50.4,23.2,50.4,51.2c0,0.8,0,2.4,0,3.2c17.6,2.4,29.6,18.4,27.2,35.2
	c-0.8,7.2-4,13.6-8.8,18.4c-5.6,5.6-14.4,8.8-22.4,9.6l0,0c-4,0-8-0.8-11.2-2.4c4.8,28-13.6,53.6-41.6,59.2
	C90.635,383.718,88.235,383.718,85.035,383.718L85.035,383.718z"/>
<g>
	<circle style="fill:#86BDD1;" cx="216.235" cy="324.518" r="13.6"/>
	<path style="fill:#86BDD1;" d="M389.835,83.718L389.835,83.718l-1.6-8.8c-2.4-18.4-15.2-61.6-72.8-61.6h-200
		c-11.2,0-66.4,3.2-72.8,61.6l-0.8,8.8l0,0v96.8l0,0l0.8,8.8c0.8,4.8,2.4,10.4,4,15.2l0.8,4l4,1.6c4,1.6,8,3.2,11.2,6.4l4.8,4
		l4.8-3.2c23.2-15.2,54.4-8.8,70.4,14.4c2.4,4,4.8,8.8,6.4,13.6l1.6,5.6h164.8c11.2,0,66.4-3.2,72.8-61.6l0.8-8.8l0,0
		L389.835,83.718z"/>
	<circle style="fill:#86BDD1;" cx="175.435" cy="363.718" r="20.8"/>
</g>
<path style="fill:#6197AA;" d="M389.835,83.718l-1.6-8.8c-2.4-18.4-15.2-61.6-72.8-61.6h-104v237.6h104c11.2,0,66.4-3.2,72.8-61.6
	l0.8-8.8l0,0C389.835,180.518,389.835,83.718,389.835,83.718z"/>
<g>
	<path style="fill:#1F2E3A;" d="M316.235,5.318h-200c-8,0-78.4,2.4-81.6,76.8c0,0,0,98.4,0,99.2c0,6.4,0.8,12.8,2.4,19.2
		c-8.8,0.8-16.8,4.8-23.2,11.2c-12.8,13.6-15.2,34.4-4.8,49.6c-12.8,16-12,39.2,2.4,53.6c4.8,4.8,9.6,8,16,9.6
		c-4.8,32,17.6,62.4,49.6,66.4c32,4.8,62.4-17.6,66.4-49.6c0-2.4,0.8-4.8,0.8-7.2c21.6,1.6,40.8-15.2,41.6-36.8
		c0.8-11.2-3.2-22.4-11.2-30.4c-3.2-3.2-6.4-5.6-10.4-8h152c8,0,78.4-2.4,81.6-76.8c0,0,0-98.4,0-99.2
		C396.235,66.118,388.235,5.318,316.235,5.318z M116.235,21.318h200c49.6,0,61.6,35.2,64.8,54.4h-329.6
		C57.035,24.518,105.835,21.318,116.235,21.318L116.235,21.318z M163.435,311.718c-6.4,6.4-16.8,8.8-24.8,5.6
		c-4-1.6-8.8,0.8-10.4,4.8c-0.8,1.6-0.8,3.2,0,4c4,23.2-11.2,45.6-34.4,49.6s-45.6-11.2-49.6-34.4c-0.8-6.4-0.8-13.6,0.8-20
		c0.8-4-1.6-8.8-5.6-9.6h-0.8c-5.6-0.8-10.4-3.2-14.4-7.2c-8.8-9.6-8.8-24,0-33.6l2.4-1.6c1.6-1.6,3.2-4,3.2-6.4s-0.8-4.8-2.4-6.4
		c-10.4-10.4-8-25.6,3.2-33.6c8-6.4,20-6.4,28,0c0.8,0.8,1.6,1.6,2.4,2.4c2.4,3.2,8,4,11.2,1.6c0,0,0,0,0.8,0
		c17.6-15.2,44.8-13.6,60,4c7.2,8.8,11.2,20,10.4,31.2c0,4,2.4,8,7.2,8.8c12.8,1.6,21.6,13.6,20,26.4
		C169.035,302.918,166.635,307.718,163.435,311.718L163.435,311.718z M315.435,242.918h-158.4c-8.8-31.2-41.6-48.8-72.8-40
		c-5.6,1.6-10.4,4-16,7.2c-4-4-8.8-6.4-14.4-8c-1.6-4.8-2.4-8.8-3.2-13.6h329.6C374.635,240.518,326.635,242.918,315.435,242.918
		L315.435,242.918z M381.035,172.518h-330.4v-80.8h331.2L381.035,172.518z"/>
	<path style="fill:#1F2E3A;" d="M175.435,334.918c-16,0-28.8,12.8-28.8,28.8s12.8,28.8,28.8,28.8s28.8-12.8,28.8-28.8
		C203.435,347.718,190.635,334.918,175.435,334.918z M175.435,375.718c-7.2,0-12.8-5.6-12.8-12.8c0-7.2,5.6-12.8,12.8-12.8
		s12.8,5.6,12.8,12.8C187.435,370.118,182.635,376.518,175.435,375.718C175.435,376.518,175.435,376.518,175.435,375.718
		L175.435,375.718z"/>
	<path style="fill:#1F2E3A;" d="M216.235,303.718c-12,0-21.6,9.6-21.6,21.6s9.6,21.6,21.6,21.6s21.6-9.6,21.6-21.6
		S228.235,303.718,216.235,303.718L216.235,303.718z M216.235,330.118c-3.2,0-5.6-2.4-5.6-5.6s2.4-5.6,5.6-5.6s5.6,2.4,5.6,5.6
		C221.835,327.718,219.435,330.118,216.235,330.118L216.235,330.118z"/>
</g>
<g>
</g>
<g>
</g>
<g>
</g>
<g>
</g>
<g>
</g>
<g>
</g>
<g>
</g>
<g>
</g>
<g>
</g>
<g>
</g>
<g>
</g>
<g>
</g>
<g>
</g>
<g>
</g>
<g>
</g>
</svg>
