<?xml version="1.0" encoding="iso-8859-1"?>
<!-- Generator: Adobe Illustrator 19.0.0, SVG Export Plug-In . SVG Version: 6.00 Build 0)  -->
<svg version="1.1" id="Capa_1" xmlns="http://www.w3.org/2000/svg" xmlns:xlink="http://www.w3.org/1999/xlink" x="0px" y="0px"
	 viewBox="0 0 512 512" style="enable-background:new 0 0 512 512;" xml:space="preserve">
<path style="fill:#303C42;" d="M426.625,449.813c0.021-0.604,0.042-1.208,0.042-1.813c0-9.063-2.938-17.792-8.25-25.021
	c5.375-8.469,8.25-18.24,8.25-28.313c0-29.406-23.917-53.333-53.333-53.333c-9.542,0-18.771,2.552-26.896,7.323
	C332.417,330.74,310.938,320,288,320c-3.618,0-7.141,0.561-10.667,1.081V160c0-29.672-17.533-55.145-42.667-67.177V10.667
	C234.667,4.771,229.896,0,224,0H117.333c-5.896,0-10.667,4.771-10.667,10.667v82.156C81.533,104.855,64,130.328,64,160v309.333
	C64,492.865,83.146,512,106.667,512h128c9.965,0,19.279-3.665,26.792-9.814C268.868,508.212,278.033,512,288,512
	c15.438,0,29.521-8.552,36.958-21.667c3.792,0.427,7.5,0.479,11.375-0.031c7.438,13.135,21.521,21.698,37,21.698
	c8.271,0,16.292-2.448,23.125-6.927C401.979,509.49,408.833,512,416,512c17.646,0,32-14.354,32-32
	C448,466.083,439.063,454.208,426.625,449.813z"/>
<path style="fill:#A1ABB2;" d="M128,21.333h85.333v65.078c-3.514-0.509-7.014-1.078-10.667-1.078h-64
	c-3.652,0-7.152,0.569-10.667,1.078V21.333z"/>
<path style="opacity:0.2;fill:#FFFFFF;enable-background:new    ;" d="M149.333,21.333H128v65.078
	c3.514-0.509,7.014-1.078,10.667-1.078h10.667V21.333z"/>
<path style="opacity:0.1;enable-background:new    ;" d="M192,21.333v64h10.667c3.652,0,7.152,0.569,10.667,1.078V21.333H192z"/>
<path style="fill:#72808A;" d="M106.667,490.667c-11.771,0-21.333-9.573-21.333-21.333V160c0-29.406,23.917-53.333,53.333-53.333h64
	C232.083,106.667,256,130.594,256,160v167.642c-7.715,3.75-14.93,8.612-21.083,14.921c-33.896-7.49-64.25,19.125-64.25,52.104
	c0,25.76,18.354,47.313,42.688,52.26c-0.021,0.365-0.021,0.719-0.021,1.073c0,19.077,12.589,35.26,29.891,40.702
	c-2.672,1.193-5.539,1.965-8.557,1.965H106.667z"/>
<path style="opacity:0.2;fill:#FFFFFF;enable-background:new    ;" d="M106.667,469.333V160c0-29.406,23.917-53.333,53.333-53.333
	h-21.333c-29.417,0-53.333,23.927-53.333,53.333v309.333c0,11.76,9.563,21.333,21.333,21.333H128
	C116.229,490.667,106.667,481.094,106.667,469.333z"/>
<path style="opacity:0.1;enable-background:new    ;" d="M234.667,160v182.538c0.085,0.018,0.165,0.007,0.25,0.025
	c6.154-6.309,13.368-11.171,21.083-14.921V160c0-29.406-23.917-53.333-53.333-53.333h-21.333
	C210.75,106.667,234.667,130.594,234.667,160z"/>
<path style="opacity:0.1;enable-background:new    ;" d="M230.227,481.723c-3.885,5.283-9.842,8.944-16.893,8.944h21.333
	c3.018,0,5.885-0.772,8.557-1.965C238.428,487.194,234.13,484.714,230.227,481.723z"/>
<path style="fill:#FBF2E9;" d="M416,490.667c-3.75,0-7.167-2.146-9.125-5.729c-1.688-3.073-4.771-5.125-8.25-5.49
	c-0.375-0.031-0.75-0.052-1.104-0.052c-3.104,0-6.063,1.354-8.104,3.729c-10.479,12.24-32.146,7.208-36.479-7.99
	c-0.771-2.75-2.625-5.063-5.125-6.438s-5.458-1.688-8.188-0.865c-7.146,2.125-12.021,1.885-17.958,0.115
	c-2.729-0.823-5.667-0.51-8.167,0.854c-2.5,1.365-4.354,3.667-5.146,6.406c-2.625,9.104-11,15.458-20.354,15.458
	c-8.979,0-17.042-5.771-20.021-14.365c-1.5-4.292-6.813-6.979-11.417-6.979C244,469.302,234.667,459.948,234.667,448
	c0-2.292,0.458-4.656,1.396-7.24c1.208-3.385-0.042-7.052-2.188-9.927c-2.021-2.688-5.771-4.188-9.188-4.188
	C206.813,426.677,192,412.531,192,394.667c0-21.115,19.542-38.354,42.813-29.958c4.188,1.469,9.021,0.177,11.896-3.344
	C257,348.635,272.042,341.333,288,341.333c19.208,0,37.021,10.646,46.479,27.781c1.604,2.896,4.458,4.885,7.729,5.385
	c3.25,0.469,6.583-0.552,8.979-2.844c6.042-5.802,13.917-8.99,22.146-8.99c17.646,0,32,14.354,32,32
	c0,7.99-3.063,15.698-8.646,21.698c-2,2.146-3.021,5-2.833,7.917c0.188,2.917,1.542,5.635,3.792,7.51
	c4.875,4.104,7.688,10.021,7.688,16.208c0,2.406-0.458,4.813-1.417,7.354c-1.292,3.458-0.688,7.333,1.563,10.25
	c2.229,2.927,5.938,4.49,9.521,4.094c0.354-0.042,1.125-0.188,1.792-0.333c5.521,0.406,9.875,5.021,9.875,10.635
	C426.667,485.885,421.875,490.667,416,490.667z"/>
<path style="opacity:0.1;enable-background:new    ;" d="M393.854,413.615c0.111,1.724,0.737,3.307,1.608,4.759
	c0.396-0.681,0.678-1.422,1.225-2.009c5.583-6,8.646-13.708,8.646-21.698c0-2.323-0.279-4.578-0.751-6.762
	c-0.845,6.533-3.251,12.803-7.895,17.793C394.688,407.844,393.667,410.698,393.854,413.615z"/>
<path style="opacity:0.1;enable-background:new    ;" d="M416,480c-3.75,0-7.167-2.146-9.125-5.729
	c-1.688-3.073-4.771-5.125-8.25-5.49c-0.375-0.031-0.75-0.052-1.104-0.052c-3.104,0-6.063,1.354-8.104,3.729
	c-10.479,12.24-32.146,7.208-36.479-7.99c-0.771-2.75-2.625-5.063-5.125-6.438s-5.458-1.688-8.188-0.865
	c-7.146,2.125-12.021,1.885-17.958,0.115c-2.729-0.823-5.667-0.51-8.167,0.854c-2.5,1.365-4.354,3.667-5.146,6.406
	C305.729,473.646,297.354,480,288,480c-8.979,0-17.042-5.771-20.021-14.365c-1.5-4.292-6.813-6.979-11.417-6.979
	c-10.586-0.017-18.507-6.816-20.854-16.057c-0.518,1.852-1.042,3.691-1.042,5.401c0,11.948,9.333,21.302,21.896,21.323
	c4.604,0,9.917,2.688,11.417,6.979c2.979,8.594,11.042,14.365,20.021,14.365c9.354,0,17.729-6.354,20.354-15.458
	c0.792-2.74,2.646-5.042,5.146-6.406c2.5-1.365,5.438-1.677,8.167-0.854c5.938,1.771,10.813,2.01,17.958-0.115
	c2.729-0.823,5.688-0.51,8.188,0.865s4.354,3.688,5.125,6.438c4.333,15.198,26,20.229,36.479,7.99c2.042-2.375,5-3.729,8.104-3.729
	c0.354,0,0.729,0.021,1.104,0.052c3.479,0.365,6.563,2.417,8.25,5.49c1.958,3.583,5.375,5.729,9.125,5.729
	c5.875,0,10.667-4.781,10.667-10.667c0-1.984-0.689-3.745-1.635-5.339C423.169,477.794,419.896,480,416,480z"/>
<path style="opacity:0.1;enable-background:new    ;" d="M236.063,430.094c1.208-3.385-0.042-7.052-2.188-9.927
	c-2.021-2.688-5.771-4.188-9.188-4.188c-15.944,0.027-29.375-11.249-32.107-26.358c-0.254,1.667-0.581,3.315-0.581,5.046
	c0,17.865,14.813,32.01,32.688,31.979c3.417,0,7.167,1.5,9.188,4.188c0.671,0.898,1.022,1.962,1.47,2.983
	C235.577,432.583,235.581,431.422,236.063,430.094z"/>
<linearGradient id="SVGID_1_" gradientUnits="userSpaceOnUse" x1="-45.6883" y1="637.5468" x2="-23.9499" y2="627.413" gradientTransform="matrix(21.3333 0 0 -21.3333 996.3334 13791.667)">
	<stop  offset="0" style="stop-color:#FFFFFF;stop-opacity:0.2"/>
	<stop  offset="1" style="stop-color:#FFFFFF;stop-opacity:0"/>
</linearGradient>
<path style="fill:url(#SVGID_1_);" d="M426.625,449.813c0.021-0.604,0.042-1.208,0.042-1.813c0-9.063-2.938-17.792-8.25-25.021
	c5.375-8.469,8.25-18.24,8.25-28.313c0-29.406-23.917-53.333-53.333-53.333c-9.542,0-18.771,2.552-26.896,7.323
	C332.417,330.74,310.938,320,288,320c-3.618,0-7.141,0.561-10.667,1.081V160c0-29.672-17.533-55.145-42.667-67.177V10.667
	C234.667,4.771,229.896,0,224,0H117.333c-5.896,0-10.667,4.771-10.667,10.667v82.156C81.533,104.855,64,130.328,64,160v309.333
	C64,492.865,83.146,512,106.667,512h128c9.965,0,19.279-3.665,26.792-9.814C268.868,508.212,278.033,512,288,512
	c15.438,0,29.521-8.552,36.958-21.667c3.792,0.427,7.5,0.479,11.375-0.031c7.438,13.135,21.521,21.698,37,21.698
	c8.271,0,16.292-2.448,23.125-6.927C401.979,509.49,408.833,512,416,512c17.646,0,32-14.354,32-32
	C448,466.083,439.063,454.208,426.625,449.813z"/>
<g>
</g>
<g>
</g>
<g>
</g>
<g>
</g>
<g>
</g>
<g>
</g>
<g>
</g>
<g>
</g>
<g>
</g>
<g>
</g>
<g>
</g>
<g>
</g>
<g>
</g>
<g>
</g>
<g>
</g>
</svg>
