<svg height="512" viewBox="0 0 192 192" width="512" xmlns="http://www.w3.org/2000/svg" xmlns:xlink="http://www.w3.org/1999/xlink"><linearGradient id="New_Gradient_Swatch_2" gradientUnits="userSpaceOnUse" x1="31.038" x2="161.053" y1="139.068" y2="9.053"><stop offset="0" stop-color="#34cdfa"/><stop offset="1" stop-color="#e8d9f1"/></linearGradient><path d="m136 0v64h-8v-64h-16v64h-8v-64h-16v64h-8v-64h-16v64h-8v-64h-16v96a24.027 24.027 0 0 0 24 24h7.062l-4.31 38.784a30.2 30.2 0 0 0 7.441 23.368 29.261 29.261 0 0 0 21.627 9.848h.18a29.481 29.481 0 0 0 29.3-32.736l-4.362-39.264h7.062a24.027 24.027 0 0 0 24-24v-96zm-40 168a8 8 0 1 1 8-8 8 8 0 0 1 -8 8z" fill="url(#New_Gradient_Swatch_2)"/></svg>