<?xml version="1.0" encoding="iso-8859-1"?>
<!-- Generator: Adobe Illustrator 19.0.0, SVG Export Plug-In . SVG Version: 6.00 Build 0)  -->
<svg version="1.1" id="Capa_1" xmlns="http://www.w3.org/2000/svg" xmlns:xlink="http://www.w3.org/1999/xlink" x="0px" y="0px"
	 viewBox="0 0 472.8 472.8" style="enable-background:new 0 0 472.8 472.8;" xml:space="preserve">
<path style="fill:#B9D9EA;" d="M198.902,465.6c-27.2,0-43.2-16-43.2-43.2v-236c0-27.2,16-43.2,43.2-43.2h76.8
	c27.2,0,43.2,16,43.2,43.2v236c0,27.2-16,43.2-43.2,43.2L198.902,465.6L198.902,465.6z M195.702,254.4c-4.8,0-8,3.2-8,8v83.2
	c0,4.8,3.2,8,8,8h83.2c4.8,0,8-3.2,8-8v-83.2c0-4.8-3.2-8-8-8H195.702z"/>
<rect x="187.702" y="254.4" style="fill:#FFFFFF;" width="99.2" height="99.2"/>
<path style="fill:#86BDD1;" d="M218.902,82.4l-2.4-4.8c-0.8-1.6-0.8-3.2-0.8-5.6V52.8c0-1.6,0-4,0.8-5.6l2.4-4.8h35.2l2.4,4.8
	c0.8,1.6,0.8,3.2,0.8,5.6V72c0,1.6,0,4-0.8,5.6l-2.4,4.8H218.902z"/>
<path style="fill:#FFFFFF;" d="M201.302,143.2c-5.6,0-10.4-4.8-10.4-10.4l0,0v-28c0-22.4,16.8-22.4,22.4-22.4h45.6
	c22.4,0,22.4,16.8,22.4,22.4v28c0,5.6-4,10.4-9.6,10.4h-0.8H201.302z"/>
<path style="fill:#9EC6D8;" d="M318.902,422.4v-236c0-27.2-16-43.2-43.2-43.2h-39.2v111.2h50.4v99.2h-50.4v111.2h39.2
	C303.702,465.6,318.902,449.6,318.902,422.4z"/>
<g>
	<path style="fill:#D8D8D8;" d="M278.902,353.6c4.8,0,8-3.2,8-8v-83.2c0-4.8-3.2-8-8-8h-42.4v99.2H278.902z"/>
	<path style="fill:#D8D8D8;" d="M286.902,262.4v83.2c0,4.8-3.2,8-8,8h8v-99.2h-8C283.702,254.4,286.902,258.4,286.902,262.4z"/>
</g>
<path style="fill:#6197AA;" d="M254.102,82.4l2.4-4.8c0.8-1.6,0.8-3.2,0.8-5.6V52.8c0-1.6,0-4-0.8-5.6l-2.4-4.8h-17.6v40
	L254.102,82.4z"/>
<path style="fill:#D8D8D8;" d="M236.502,143.2h35.2c5.6,0,10.4-4,10.4-9.6v-0.8v-28c0-5.6,0-22.4-22.4-22.4h-23.2V143.2z"/>
<g>
	<path style="fill:#1F2E3A;" d="M294.902,1.6c-1.6-0.8-3.2-1.6-4.8-1.6h-120c-4.8,0-8,3.2-8,8s3.2,8,8,8h54.4v18.4h-5.6
		c-8.8,0.8-16,9.6-15.2,18.4l0,0V72c0,0.8,0,1.6,0,2.4c-21.6,2.4-24.8,20-24.8,30.4v28c0,1.6,0,2.4,0.8,4
		c-19.2,4.8-35.2,19.2-35.2,48.8v236c0,24.8,13.6,51.2,51.2,51.2h76.8c37.6,0,51.2-26.4,51.2-51.2V186.4c0-30.4-17.6-44.8-37.6-49.6
		c0-1.6,0-2.4,0-4v-28c0-22.4-13.6-28.8-24.8-30.4c0-0.8,0-1.6,0-2.4V52.8c0.8-8.8-5.6-17.6-15.2-18.4h-5.6V16h47.2l28,20
		c4,2.4,8.8,1.6,11.2-1.6s1.6-8.8-1.6-11.2L294.902,1.6z M307.702,186.4v236c0,16-6.4,35.2-35.2,35.2h-76.8
		c-28.8,0-35.2-19.2-35.2-35.2v-236c0-28.8,19.2-35.2,35.2-35.2h76.8C288.502,151.2,307.702,157.6,307.702,186.4L307.702,186.4z
		 M256.502,90.4c13.6,0,14.4,7.2,14.4,14.4v28c0,0.8-0.8,2.4-2.4,2.4l0,0h-71.2c-0.8,0-2.4-0.8-2.4-2.4l0,0v-28
		c0-13.6,7.2-14.4,14.4-14.4H256.502z M246.102,50.4c0,0.8,0.8,1.6,0,2.4V72c0,0.8,0,1.6,0,2.4h-24.8c0-0.8-0.8-1.6,0-2.4V52.8
		c0-0.8,0-1.6,0-2.4H246.102z"/>
	<path style="fill:#1F2E3A;" d="M179.702,262.4v83.2c0,8.8,7.2,16,16,16h83.2c8.8,0,16-7.2,16-16v-83.2c0-8.8-7.2-16-16-16h-83.2
		C186.902,246.4,179.702,253.6,179.702,262.4z M279.702,345.6h-84v-83.2h83.2L279.702,345.6z"/>
</g>
<g>
</g>
<g>
</g>
<g>
</g>
<g>
</g>
<g>
</g>
<g>
</g>
<g>
</g>
<g>
</g>
<g>
</g>
<g>
</g>
<g>
</g>
<g>
</g>
<g>
</g>
<g>
</g>
<g>
</g>
</svg>
