<?xml version="1.0" encoding="iso-8859-1"?>
<!-- Generator: Adobe Illustrator 19.0.0, SVG Export Plug-In . SVG Version: 6.00 Build 0)  -->
<svg version="1.1" id="Capa_1" xmlns="http://www.w3.org/2000/svg" xmlns:xlink="http://www.w3.org/1999/xlink" x="0px" y="0px"
	 viewBox="0 0 512 512" style="enable-background:new 0 0 512 512;" xml:space="preserve">
<path style="fill:#303C42;" d="M458.667,448h-40.938l-28.444-85.333H416c5.896,0,10.667-4.771,10.667-10.667
	c0-29.672-17.533-55.145-42.667-67.177v-71.49c0-35.292-28.708-64-64-64H186.733l-12.91-111.896C171.354,16.094,153.302,0,131.823,0
	c-12.125,0-23.677,5.208-31.708,14.302c-8.021,9.083-11.76,21.198-10.26,33.229l12.73,101.802H53.333c-17.646,0-32,14.354-32,32
	s14.354,32,32,32h57.251l13.999,111.958c2.656,21.302,20.865,37.375,42.333,37.375h46.417V448h-10.667
	c-29.406,0-53.333,23.927-53.333,53.333c0,5.896,4.771,10.667,10.667,10.667h170.667c5.896,0,10.667-4.771,10.667-10.667
	C341.333,471.927,317.406,448,288,448h-10.667v-85.333h44.405l42.574,127.458C368.677,503.208,380.875,512,394.667,512h64
	c17.646,0,32-14.354,32-32C490.667,462.354,476.313,448,458.667,448z M320,277.333H211.01c-5.417,0-9.969-4.063-10.594-9.438
	l-6.296-54.563H320V277.333z"/>
<path style="fill:#BF6A1E;" d="M111.021,44.885c-0.75-6.042,1.052-11.896,5.094-16.469c4.031-4.563,9.615-7.083,15.708-7.083
	c10.646,0,19.583,7.979,20.813,18.552l12.629,109.448h-41.182L111.021,44.885z"/>
<path style="opacity:0.2;fill:#FFFFFF;enable-background:new    ;" d="M112.854,49.75c4.741-4.563,11.309-7.083,18.477-7.083
	c11.297,0,20.59,6.638,23.434,15.673l-2.129-18.454c-1.229-10.573-10.167-18.552-20.813-18.552c-6.094,0-11.677,2.521-15.708,7.083
	c-4.042,4.573-5.844,10.427-5.094,16.469l0.802,6.415C112.249,50.814,112.375,50.211,112.854,49.75z"/>
<path style="fill:#BF6A1E;" d="M42.667,181.333c0-5.885,4.781-10.667,10.667-10.667H320c23.531,0,42.667,19.135,42.667,42.667
	v65.078c-3.514-0.509-7.014-1.078-10.667-1.078h-10.667v-64c0-11.76-9.573-21.333-21.333-21.333H53.333
	C47.448,192,42.667,187.219,42.667,181.333z"/>
<path style="opacity:0.2;fill:#FFFFFF;enable-background:new    ;" d="M320,170.667H53.333c-5.885,0-10.667,4.781-10.667,10.667
	c0,1.984,0.69,3.741,1.637,5.333c1.859-3.13,5.129-5.333,9.03-5.333H320c23.531,0,42.667,19.135,42.667,42.667v-10.667
	C362.667,189.802,343.531,170.667,320,170.667z"/>
<path style="fill:#BF6A1E;" d="M145.75,322.646l-13.668-109.313h40.57l6.577,57c1.854,16.156,15.521,28.333,31.781,28.333H352
	c25.76,0,47.302,18.354,52.26,42.667H166.917C156.177,341.333,147.083,333.302,145.75,322.646z"/>
<path style="opacity:0.1;enable-background:new    ;" d="M378.771,305.911c2.326,4.4,4.206,9.073,5.229,14.089H146.656
	c-0.444,0-0.828-0.208-1.267-0.236l0.361,2.882c1.333,10.656,10.427,18.688,21.167,18.688H404.26
	C401.18,326.229,391.686,313.445,378.771,305.911z"/>
<path style="fill:#C6CDD1;" d="M318.177,490.667H172.49c4.406-12.417,16.271-21.333,30.177-21.333H288
	C301.906,469.333,313.771,478.25,318.177,490.667z"/>
<path style="opacity:0.2;fill:#FFFFFF;enable-background:new    ;" d="M200.844,480h85.333c9.35,0,17.559,4.25,23.415,10.667h8.585
	c-4.406-12.417-16.271-21.333-30.177-21.333h-85.333c-13.906,0-25.771,8.917-30.177,21.333h4.939
	C183.285,484.25,191.493,480,200.844,480z"/>
<rect x="234.667" y="362.667" style="fill:#C6CDD1;" width="21.333" height="85.333"/>
<path style="fill:#BF6A1E;" d="M458.667,490.667h-64c-4.594,0-8.667-2.927-10.125-7.292l-40.32-120.708h22.583l33.122,99.375
	c1.448,4.354,5.521,7.292,10.115,7.292h48.625c5.885,0,10.667,4.781,10.667,10.667C469.333,485.885,464.552,490.667,458.667,490.667
	z"/>
<path style="opacity:0.1;enable-background:new    ;" d="M464.626,480h-74.913c-2.555,0-4.921-0.747-6.936-1.909l1.764,5.284
	c1.458,4.365,5.531,7.292,10.125,7.292h64c5.885,0,10.667-4.781,10.667-10.667c0-0.279-0.138-0.512-0.159-0.785
	C467.758,479.691,466.24,480,464.626,480z"/>
<linearGradient id="SVGID_1_" gradientUnits="userSpaceOnUse" x1="-46.0991" y1="637.4671" x2="-22.4101" y2="626.4266" gradientTransform="matrix(21.3333 0 0 -21.3333 996.3334 13791.667)">
	<stop  offset="0" style="stop-color:#FFFFFF;stop-opacity:0.2"/>
	<stop  offset="1" style="stop-color:#FFFFFF;stop-opacity:0"/>
</linearGradient>
<path style="fill:url(#SVGID_1_);" d="M458.667,448h-40.938l-28.444-85.333H416c5.896,0,10.667-4.771,10.667-10.667
	c0-29.672-17.533-55.145-42.667-67.177v-71.49c0-35.292-28.708-64-64-64H186.733l-12.91-111.896C171.354,16.094,153.302,0,131.823,0
	c-12.125,0-23.677,5.208-31.708,14.302c-8.021,9.083-11.76,21.198-10.26,33.229l12.73,101.802H53.333c-17.646,0-32,14.354-32,32
	s14.354,32,32,32h57.251l13.999,111.958c2.656,21.302,20.865,37.375,42.333,37.375h46.417V448h-10.667
	c-29.406,0-53.333,23.927-53.333,53.333c0,5.896,4.771,10.667,10.667,10.667h170.667c5.896,0,10.667-4.771,10.667-10.667
	C341.333,471.927,317.406,448,288,448h-10.667v-85.333h44.405l42.574,127.458C368.677,503.208,380.875,512,394.667,512h64
	c17.646,0,32-14.354,32-32C490.667,462.354,476.313,448,458.667,448z M320,277.333H211.01c-5.417,0-9.969-4.063-10.594-9.438
	l-6.296-54.563H320V277.333z"/>
<g>
</g>
<g>
</g>
<g>
</g>
<g>
</g>
<g>
</g>
<g>
</g>
<g>
</g>
<g>
</g>
<g>
</g>
<g>
</g>
<g>
</g>
<g>
</g>
<g>
</g>
<g>
</g>
<g>
</g>
</svg>
