<svg height="512" viewBox="0 0 192 192" width="512" xmlns="http://www.w3.org/2000/svg" xmlns:xlink="http://www.w3.org/1999/xlink"><linearGradient id="New_Gradient_Swatch_2" gradientUnits="userSpaceOnUse" x1="50.343" x2="124.384" y1="100.657" y2="26.616"><stop offset="0" stop-color="#34cdfa"/><stop offset="1" stop-color="#e8d9f1"/></linearGradient><linearGradient id="New_Gradient_Swatch_2-2" x1="50.343" x2="141.657" xlink:href="#New_Gradient_Swatch_2" y1="145.657" y2="54.343"/><linearGradient id="New_Gradient_Swatch_2-3" x1="75.343" x2="141.657" xlink:href="#New_Gradient_Swatch_2" y1="165.657" y2="99.343"/><rect fill="#e6f9fe" height="128" rx="8" width="80" x="56" y="32"/><path d="m80 152v-112a8 8 0 0 1 8-8h-24a8 8 0 0 0 -8 8v112a8 8 0 0 0 8 8h24a8 8 0 0 1 -8-8z" fill="#ccf2fe"/><path d="m128 32h-20.314l-51.686 51.686v22.628l74.041-74.041a7.989 7.989 0 0 0 -2.041-.273z" fill="url(#New_Gradient_Swatch_2)"/><path d="m136 48.686-80 80v22.628l80-80z" fill="url(#New_Gradient_Swatch_2-2)"/><path d="m136 93.686-66.314 66.314h22.628l43.686-43.686z" fill="url(#New_Gradient_Swatch_2-3)"/><path d="m128 144h-64a8 8 0 0 0 -8 8 40 40 0 0 0 80 0 8 8 0 0 0 -8-8z" fill="#99e6fd"/><path d="m80 152a8 8 0 0 1 8-8h-24a8 8 0 0 0 -8 8 40 40 0 0 0 52 38.159 40.071 40.071 0 0 1 -28-38.159z" fill="#67d9fb"/><path d="m96 0a40.045 40.045 0 0 0 -40 40 8 8 0 0 0 8 8h64a8 8 0 0 0 8-8 40.045 40.045 0 0 0 -40-40z" fill="#99e6fd"/><path d="m80 40a40.071 40.071 0 0 1 28-38.159 40 40 0 0 0 -52 38.159 8 8 0 0 0 8 8h24a8 8 0 0 1 -8-8z" fill="#67d9fb"/><g fill="#34cdfa"><path d="m48 32h96v16h-96z"/><path d="m48 144h96v16h-96z"/></g></svg>