<svg height="512" viewBox="0 0 192 192" width="512" xmlns="http://www.w3.org/2000/svg" xmlns:xlink="http://www.w3.org/1999/xlink"><linearGradient id="New_Gradient_Swatch_2" gradientUnits="userSpaceOnUse" x1="68.385" x2="123.615" y1="106.844" y2="51.615"><stop offset="0" stop-color="#34cdfa"/><stop offset="1" stop-color="#e8d9f1"/></linearGradient><path d="m160 0h-128a8 8 0 0 0 -8 8v40c0 29.6 23.4 47.148 35.968 56.576a74.981 74.981 0 0 1 6.375 5.081 8 8 0 0 0 5.657 2.343h48a8 8 0 0 0 5.657-2.343 74.981 74.981 0 0 1 6.375-5.081c12.568-9.428 35.968-26.976 35.968-56.576v-40a8 8 0 0 0 -8-8z" fill="#e6f9fe"/><path d="m107.968 104.576c-12.568-9.428-35.968-26.976-35.968-56.576v-40a8 8 0 0 1 8-8h-48a8 8 0 0 0 -8 8v40c0 29.6 23.4 47.148 35.968 56.576a74.981 74.981 0 0 1 6.375 5.081 8 8 0 0 0 5.657 2.343h48a8 8 0 0 1 -5.657-2.343 74.981 74.981 0 0 0 -6.375-5.081z" fill="#ccf2fe"/><path d="m120 64c0 25.8-10.836 35.769-16 39.057v-31.057h-16v31.045c-5.07-3.279-16-13.332-16-39.045h-16c0 45.246 28.267 55.188 29.47 55.589l2.53-7.589h16l2.53 7.589c1.2-.4 29.47-10.343 29.47-55.589z" fill="url(#New_Gradient_Swatch_2)"/><path d="m120 112h-48a8 8 0 0 0 -8 8v40a32 32 0 0 0 64 0v-40a8 8 0 0 0 -8-8z" fill="#67d9fb"/><path d="m80 160v-40a8 8 0 0 1 8-8h-16a8 8 0 0 0 -8 8v40a32.011 32.011 0 0 0 40 30.987 32.056 32.056 0 0 1 -24-30.987z" fill="#34cdfa"/><path d="m64 136h64v24h-64z" fill="#ccf2fe"/><path d="m64 136h16v24h-16z" fill="#99e6fd"/></svg>