<?xml version="1.0" encoding="iso-8859-1"?>
<!-- Generator: Adobe Illustrator 19.0.0, SVG Export Plug-In . SVG Version: 6.00 Build 0)  -->
<svg version="1.1" id="Capa_1" xmlns="http://www.w3.org/2000/svg" xmlns:xlink="http://www.w3.org/1999/xlink" x="0px" y="0px"
	 viewBox="0 0 512 512" style="enable-background:new 0 0 512 512;" xml:space="preserve">
<path style="fill:#303C42;" d="M458.667,170.667c-20.318,0-39.039,7.339-53.5,19.688c-0.887-22.754-19.533-41.021-42.5-41.021h-96
	V128H320c23.531,0,42.667-19.135,42.667-42.667V42.667C362.667,19.135,343.531,0,320,0H192c-23.531,0-42.667,19.135-42.667,42.667
	v42.667C149.333,108.865,168.469,128,192,128h53.333v21.333h-96c-22.965,0-41.611,18.266-42.5,41.014
	c-14.461-12.344-33.182-19.681-53.5-19.681c-17.646,0-32,14.354-32,32s14.354,32,32,32c9.01,0,16.635,6.458,18.125,15.333
	l9.854,59.219c5.198,30.969,31.75,53.448,63.125,53.448h99.775l-6.487,64.871c-45.385,2.844-88.392,16.296-88.392,41.796
	C149.333,498.646,204.625,512,256,512s106.667-13.354,106.667-42.667c0-25.5-43.007-38.952-88.392-41.796l-6.487-64.871h99.775
	c31.375,0,57.927-22.49,63.125-53.49l9.854-59.146c1.49-8.906,9.115-15.365,18.125-15.365c17.646,0,32-14.354,32-32
	S476.313,170.667,458.667,170.667z"/>
<path style="fill:#BF6A1E;" d="M170.667,85.333V42.667c0-11.76,9.573-21.333,21.333-21.333h128c11.76,0,21.333,9.573,21.333,21.333
	v42.667c0,11.76-9.573,21.333-21.333,21.333H192C180.24,106.667,170.667,97.094,170.667,85.333z"/>
<path style="opacity:0.1;enable-background:new    ;" d="M320,21.333h-16c8.82,0,16,9.573,16,21.333v42.667
	c0,11.76-7.18,21.333-16,21.333h16c11.76,0,21.333-9.573,21.333-21.333V42.667C341.333,30.906,331.76,21.333,320,21.333z"/>
<path style="opacity:0.2;fill:#FFFFFF;enable-background:new    ;" d="M192,85.333V42.667c0-11.76,7.18-21.333,16-21.333h-16
	c-11.76,0-21.333,9.573-21.333,21.333v42.667c0,11.76,9.573,21.333,21.333,21.333h16C199.18,106.667,192,97.094,192,85.333z"/>
<path style="fill:#C6CDD1;" d="M341.333,469.333c0,5.479-29.344,21.333-85.333,21.333s-85.333-15.854-85.333-21.333
	c0-4.007,20.549-16.934,64.906-20.268l-0.854,8.539c-0.302,3,0.688,5.99,2.708,8.219c2.021,2.24,4.896,3.51,7.906,3.51h21.333
	c3.01,0,5.885-1.271,7.906-3.51c2.021-2.229,3.01-5.219,2.708-8.219l-0.854-8.539C320.784,452.4,341.333,465.327,341.333,469.333z"
	/>
<path style="opacity:0.1;enable-background:new    ;" d="M318.978,456.738c0.672,0.76,1.022,1.419,1.022,1.928
	c0,5.479-29.344,21.333-85.333,21.333c-27.453,0-48.405-3.824-62.728-8.355c5.987,6.66,34.568,19.022,84.061,19.022
	c55.99,0,85.333-15.854,85.333-21.333C341.333,466.969,333.964,461.512,318.978,456.738z"/>
<path style="fill:#BF6A1E;" d="M128,192c0-11.76,9.573-21.333,21.333-21.333h213.333c11.76,0,21.333,9.573,21.333,21.333v26.954
	c-2.939,6.464-5.359,13.237-6.583,20.546l-9.854,59.167l-223.125,0.01l-9.854-59.208c-1.224-7.305-3.645-14.077-6.583-20.536V192z"
	/>
<path style="opacity:0.2;fill:#FFFFFF;enable-background:new    ;" d="M362.667,170.667H149.333C137.573,170.667,128,180.24,128,192
	v21.323c0-11.76,9.573-21.333,21.333-21.333h213.333c11.76,0,21.333,9.573,21.333,21.333V192
	C384,180.24,374.427,170.667,362.667,170.667z"/>
<path style="fill:#BF6A1E;" d="M458.667,213.333c-19.479,0-35.948,13.948-39.167,33.188l-9.854,59.146
	c-3.469,20.667-21.167,35.667-42.083,35.667H144.438c-20.917,0-38.615-14.99-42.083-35.635L92.5,246.49
	c-3.219-19.208-19.698-33.156-39.167-33.156c-5.885,0-10.667-4.781-10.667-10.667S47.448,192,53.333,192
	c29.938,0,55.26,21.448,60.208,50.979l9.854,59.24C125.156,312.521,134,320,144.438,320h223.125c10.438,0,19.292-7.49,21.042-17.844
	l9.854-59.146c4.948-29.552,30.271-51.01,60.208-51.01c5.885,0,10.667,4.781,10.667,10.667S464.552,213.333,458.667,213.333z"/>
<path style="opacity:0.2;fill:#FFFFFF;enable-background:new    ;" d="M53.333,202.667c29.938,0,55.26,21.448,60.208,50.979
	l9.854,59.24c1.76,10.302,10.604,17.781,21.042,17.781h223.125c10.438,0,19.292-7.49,21.042-17.844l9.854-59.146
	c4.948-29.552,30.271-51.01,60.208-51.01c3.901,0,7.171,2.203,9.03,5.333c0.947-1.592,1.637-3.349,1.637-5.333
	c0-5.885-4.781-10.667-10.667-10.667c-29.938,0-55.26,21.458-60.208,51.01l-9.854,59.146C386.854,312.51,378,320,367.563,320
	H144.438c-10.438,0-19.281-7.479-21.042-17.781l-9.854-59.24C108.594,213.448,83.271,192,53.333,192
	c-5.885,0-10.667,4.781-10.667,10.667c0,1.984,0.69,3.741,1.637,5.333C46.163,204.87,49.432,202.667,53.333,202.667z"/>
<linearGradient id="SVGID_1_" gradientUnits="userSpaceOnUse" x1="-44.7329" y1="639.3976" x2="-26.4072" y2="630.8527" gradientTransform="matrix(21.3333 0 0 -21.3333 996.3334 13791.667)">
	<stop  offset="0" style="stop-color:#FFFFFF;stop-opacity:0.2"/>
	<stop  offset="1" style="stop-color:#FFFFFF;stop-opacity:0"/>
</linearGradient>
<path style="fill:url(#SVGID_1_);" d="M458.667,170.667c-20.318,0-39.039,7.339-53.5,19.688
	c-0.887-22.754-19.533-41.021-42.5-41.021h-96V128H320c23.531,0,42.667-19.135,42.667-42.667V42.667C362.667,19.135,343.531,0,320,0
	H192c-23.531,0-42.667,19.135-42.667,42.667v42.667C149.333,108.865,168.469,128,192,128h53.333v21.333h-96
	c-22.965,0-41.611,18.266-42.5,41.014c-14.461-12.344-33.182-19.681-53.5-19.681c-17.646,0-32,14.354-32,32s14.354,32,32,32
	c9.01,0,16.635,6.458,18.125,15.333l9.854,59.219c5.198,30.969,31.75,53.448,63.125,53.448h99.775l-6.487,64.871
	c-45.385,2.844-88.392,16.296-88.392,41.796C149.333,498.646,204.625,512,256,512s106.667-13.354,106.667-42.667
	c0-25.5-43.007-38.952-88.392-41.796l-6.487-64.871h99.775c31.375,0,57.927-22.49,63.125-53.49l9.854-59.146
	c1.49-8.906,9.115-15.365,18.125-15.365c17.646,0,32-14.354,32-32S476.313,170.667,458.667,170.667z"/>
<g>
</g>
<g>
</g>
<g>
</g>
<g>
</g>
<g>
</g>
<g>
</g>
<g>
</g>
<g>
</g>
<g>
</g>
<g>
</g>
<g>
</g>
<g>
</g>
<g>
</g>
<g>
</g>
<g>
</g>
</svg>
