<?xml version="1.0" encoding="iso-8859-1"?>
<!-- Generator: Adobe Illustrator 19.0.0, SVG Export Plug-In . SVG Version: 6.00 Build 0)  -->
<svg version="1.1" id="Capa_1" xmlns="http://www.w3.org/2000/svg" xmlns:xlink="http://www.w3.org/1999/xlink" x="0px" y="0px"
	 viewBox="0 0 387.532 387.532" style="enable-background:new 0 0 387.532 387.532;" xml:space="preserve">
<path style="fill:#86BDD1;" d="M105.736,379.528c-32,0-58.4-26.4-58.4-58.4s26.4-58.4,58.4-58.4c5.6,0,12,0.8,17.6,2.4
	c1.6,0.8,3.2,0.8,4,1.6l96-182.4l14.4,6.4l-76,248C153.736,363.528,131.336,380.328,105.736,379.528z M105.736,295.528
	c-14.4,0-25.6,12-25.6,26.4s12,25.6,26.4,25.6s25.6-12,25.6-26.4c0-11.2-7.2-21.6-18.4-24.8
	C111.336,295.528,108.136,295.528,105.736,295.528L105.736,295.528z"/>
<g>
	<path style="fill:#FFFFFF;" d="M105.736,347.528c-14.4,0-25.6-12-25.6-26.4s12-25.6,26.4-25.6s25.6,12,25.6,26.4
		c0,2.4-0.8,4.8-0.8,7.2C126.536,339.528,116.936,347.528,105.736,347.528z"/>
	<path style="fill:#FFFFFF;" d="M110.536,304.328c-9.6-3.2-19.2,2.4-22.4,12l0,0c-3.2,9.6,2.4,19.2,12,22.4l0,0
		c9.6,3.2,19.2-2.4,22.4-12C125.736,317.128,120.136,306.728,110.536,304.328L110.536,304.328z"/>
	<path style="fill:#FFFFFF;" d="M280.137,347.528c-14.4,0-26.4-12-25.6-26.4s12-26.4,26.4-25.6s26.4,12,25.6,26.4
		c0,11.2-7.2,21.6-18.4,24.8C285.736,346.728,283.336,347.528,280.137,347.528z"/>
	<path style="fill:#FFFFFF;" d="M280.137,303.528c-1.6,0-3.2,0-5.6,0.8c-9.6,2.4-15.2,12.8-12,22.4c2.4,8,9.6,12.8,17.6,12.8
		c9.6-0.8,17.6-9.6,16.8-19.2C296.137,310.728,288.936,303.528,280.137,303.528z"/>
</g>
<g>
	<polygon style="fill:#6197AA;" points="148.136,90.728 162.536,84.328 192.936,141.928 174.536,176.328 	"/>
	<path style="fill:#6197AA;" d="M280.137,379.528c-25.6,0-48.8-16.8-56-41.6l-31.2-101.6l18.4-59.2l47.2,90.4c1.6-0.8,3.2-0.8,4-1.6
		c5.6-1.6,11.2-2.4,16.8-2.4c32,0.8,57.6,28,56,60.8C335.336,353.928,310.536,378.728,280.137,379.528z M280.137,295.528
		c-14.4,0-26.4,11.2-26.4,25.6s11.2,26.4,25.6,26.4s26.4-11.2,26.4-25.6c0-2.4,0-5.6-0.8-8
		C301.736,302.728,291.336,295.528,280.137,295.528L280.137,295.528z"/>
</g>
<g>
	<path style="fill:#1F2E3A;" d="M115.336,289.128c-3.2-0.8-6.4-1.6-10.4-1.6c-19.2,0-34.4,15.2-34.4,34.4c0,15.2,9.6,28,24,32.8
		c3.2,0.8,6.4,1.6,10.4,1.6c19.2,0,33.6-15.2,33.6-34.4C139.336,305.928,129.736,293.128,115.336,289.128L115.336,289.128z
		 M122.536,326.728c-3.2,9.6-12.8,14.4-22.4,12c-9.6-3.2-14.4-12.8-12-22.4c3.2-9.6,12.8-14.4,22.4-12
		C120.136,307.528,125.736,317.128,122.536,326.728z"/>
	<path style="fill:#1F2E3A;" d="M262.536,257.128l-42.4-81.6l51.2-165.6c1.6-4-0.8-8.8-5.6-9.6c-4-0.8-8,0.8-9.6,4l-63.2,120
		l-63.2-120c-2.4-4-7.2-5.6-11.2-3.2c-3.2,1.6-4.8,5.6-4,9.6l51.2,165.6l-42.4,80.8c-35.2-9.6-72,11.2-81.6,46.4s11.2,72,46.4,81.6
		c34.4,9.6,70.4-10.4,81.6-44.8l24-77.6l24,77.6c8.8,28,34.4,47.2,63.2,47.2c36.8,0,66.4-29.6,67.2-66.4c0-36.8-29.6-66.4-66.4-67.2
		C275.336,254.728,268.936,255.528,262.536,257.128L262.536,257.128z M156.136,88.328l28,53.6l-7.2,13.6L156.136,88.328z
		 M153.736,336.328c-8,26.4-36.8,41.6-63.2,33.6s-41.6-36.8-33.6-63.2s36.8-41.6,63.2-33.6l0,0l4,1.6c4,1.6,8,0,10.4-4l96-182.4
		l-26.4,86.4l0,0L153.736,336.328z M295.336,369.928c-26.4,8-55.2-6.4-63.2-33.6l0,0l-31.2-100l12-38.4l38.4,73.6
		c1.6,4,6.4,5.6,10.4,4c1.6-0.8,2.4-0.8,4-1.6c25.6-10.4,55.2,2.4,65.6,28s-2.4,55.2-28,65.6
		C300.137,367.528,297.736,368.328,295.336,369.928L295.336,369.928z"/>
	<path style="fill:#1F2E3A;" d="M280.137,287.528c-19.2,0-34.4,15.2-34.4,34.4s15.2,34.4,34.4,34.4s34.4-15.2,34.4-34.4
		c0-3.2-0.8-7.2-1.6-10.4C308.137,297.128,295.336,287.528,280.137,287.528z M296.137,329.928c-4.8,8.8-15.2,12-24,8
		c-4-2.4-7.2-6.4-8.8-10.4c-3.2-9.6,2.4-20,12-22.4c9.6-3.2,20,2.4,22.4,12C299.336,320.328,298.536,325.928,296.137,329.928
		L296.137,329.928z"/>
</g>
<g>
</g>
<g>
</g>
<g>
</g>
<g>
</g>
<g>
</g>
<g>
</g>
<g>
</g>
<g>
</g>
<g>
</g>
<g>
</g>
<g>
</g>
<g>
</g>
<g>
</g>
<g>
</g>
<g>
</g>
</svg>
