<?xml version="1.0" encoding="iso-8859-1"?>
<!-- Generator: Adobe Illustrator 19.0.0, SVG Export Plug-In . SVG Version: 6.00 Build 0)  -->
<svg version="1.1" id="Capa_1" xmlns="http://www.w3.org/2000/svg" xmlns:xlink="http://www.w3.org/1999/xlink" x="0px" y="0px"
	 viewBox="0 0 511.997 511.997" style="enable-background:new 0 0 511.997 511.997;" xml:space="preserve">
<path style="fill:#303C42;" d="M439.952,490.986c-0.333-0.083-34.608-9.115-34.608-32.323h-0.417
	c0.559-7.276,0.24-14.835-1.458-22.5v-0.01c-4.229-18.99-15.022-35.167-29.648-44.375c-11.23-7.063-23.939-9.448-35.878-6.635
	c-3.025,0.702-5.845,1.855-8.59,3.141l-56.505-119.275l54.99-171.793c8.96-28.052,13.501-57.167,13.501-86.552
	c0-4.99-3.458-9.313-8.335-10.406c-4.813-1.083-9.833,1.333-11.979,5.844l-86.362,182.302L148.301,6.101
	c-2.126-4.51-7.126-6.927-11.98-5.844c-4.876,1.094-8.335,5.417-8.335,10.406c0,29.385,4.542,58.5,13.501,86.552l54.988,171.816
	l-56.503,119.251c-2.745-1.286-5.565-2.439-8.591-3.141c-11.979-2.813-24.668-0.427-35.878,6.635
	c-14.626,9.208-25.419,25.385-29.648,44.375v0.01c-7.668,34.615,9.104,68.125,37.398,74.688c3.272,0.76,6.585,1.135,9.918,1.135
	c8.855,0,17.814-2.646,25.961-7.771c14.626-9.208,25.419-25.385,29.648-44.385c0.004-0.014,0.003-0.03,0.003-0.03
	c3.625-14.749,35.789-104.069,66.414-124.777c28.237,20.18,60.685,105.586,65.34,124.777c0.003,0.014,0.003,0.026,0.003,0.026
	c4.232,19.004,15.025,35.181,29.651,44.389c8.147,5.125,17.105,7.771,25.961,7.771c3.333,0,6.646-0.375,9.918-1.135
	c9.492-2.202,17.53-7.625,23.94-14.917c9.368,7.25,25.204,16.063,47.337,16.063c5.375,0,9.896-4,10.563-9.344
	C448.598,497.319,445.161,492.319,439.952,490.986z M147.956,455.215c-2.938,13.271-10.5,24.844-20.187,30.948
	c-4.479,2.823-11.646,5.75-19.667,3.917c-16.958-3.938-26.542-26.052-21.396-49.302c2.938-13.271,10.5-24.844,20.188-30.948
	c4.479-2.833,11.604-5.792,19.667-3.917C143.519,409.851,153.102,431.965,147.956,455.215z M361.227,490.08
	c-8.063,1.833-15.188-1.094-19.667-3.917c-9.688-6.104-17.25-17.677-20.188-30.938c-5.146-23.26,4.438-45.375,21.396-49.313
	c1.771-0.406,3.5-0.583,5.167-0.583c5.917,0,11,2.292,14.5,4.5c9.688,6.104,17.25,17.677,20.188,30.948
	C387.769,464.028,378.186,486.142,361.227,490.08z"/>
<g>
	<path style="fill:#C6CDD1;" d="M311.998,74.976c-1.334,5.281-2.833,10.531-4.5,15.74L259.471,240.77l-12.999-27.441L311.998,74.976
		z"/>
	<path style="fill:#C6CDD1;" d="M163.542,411.912c-1.813-3.612-3.993-6.917-6.417-9.965l48.876-103.165l7.829,24.465
		c0.158,0.491,0.641,0.74,0.862,1.194C193.67,344.666,175.577,382.153,163.542,411.912z"/>
	<path style="fill:#C6CDD1;" d="M232.123,310.403L161.831,90.715c-1.667-5.208-3.167-10.458-4.5-15.74l154.874,326.971
		c-2.346,2.952-4.443,6.164-6.217,9.646C290.145,371.991,263.408,318.58,232.123,310.403z"/>
</g>
<linearGradient id="SVGID_1_" gradientUnits="userSpaceOnUse" x1="-44.397" y1="638.1776" x2="-23.1811" y2="628.2836" gradientTransform="matrix(21.3333 0 0 -21.3333 996.3683 13791.6289)">
	<stop  offset="0" style="stop-color:#FFFFFF;stop-opacity:0.2"/>
	<stop  offset="1" style="stop-color:#FFFFFF;stop-opacity:0"/>
</linearGradient>
<path style="fill:url(#SVGID_1_);" d="M439.952,490.986c-0.333-0.083-34.608-9.115-34.608-32.323h-0.417
	c0.559-7.276,0.24-14.835-1.458-22.5v-0.01c-4.229-18.99-15.022-35.167-29.648-44.375c-11.23-7.063-23.939-9.448-35.878-6.635
	c-3.025,0.702-5.845,1.855-8.59,3.141l-56.505-119.275l54.99-171.793c8.96-28.052,13.501-57.167,13.501-86.552
	c0-4.99-3.458-9.313-8.335-10.406c-4.813-1.083-9.833,1.333-11.979,5.844l-86.362,182.302L148.301,6.101
	c-2.126-4.51-7.126-6.927-11.98-5.844c-4.876,1.094-8.335,5.417-8.335,10.406c0,29.385,4.542,58.5,13.501,86.552l54.988,171.816
	l-56.503,119.251c-2.745-1.286-5.565-2.439-8.591-3.141c-11.979-2.813-24.668-0.427-35.878,6.635
	c-14.626,9.208-25.419,25.385-29.648,44.375v0.01c-7.668,34.615,9.104,68.125,37.398,74.688c3.272,0.76,6.585,1.135,9.918,1.135
	c8.855,0,17.814-2.646,25.961-7.771c14.626-9.208,25.419-25.385,29.648-44.385c0.004-0.014,0.003-0.03,0.003-0.03
	c3.625-14.749,35.789-104.069,66.414-124.777c28.237,20.18,60.685,105.586,65.34,124.777c0.003,0.014,0.003,0.026,0.003,0.026
	c4.232,19.004,15.025,35.181,29.651,44.389c8.147,5.125,17.105,7.771,25.961,7.771c3.333,0,6.646-0.375,9.918-1.135
	c9.492-2.202,17.53-7.625,23.94-14.917c9.368,7.25,25.204,16.063,47.337,16.063c5.375,0,9.896-4,10.563-9.344
	C448.598,497.319,445.161,492.319,439.952,490.986z M147.956,455.215c-2.938,13.271-10.5,24.844-20.187,30.948
	c-4.479,2.823-11.646,5.75-19.667,3.917c-16.958-3.938-26.542-26.052-21.396-49.302c2.938-13.271,10.5-24.844,20.188-30.948
	c4.479-2.833,11.604-5.792,19.667-3.917C143.519,409.851,153.102,431.965,147.956,455.215z M361.227,490.08
	c-8.063,1.833-15.188-1.094-19.667-3.917c-9.688-6.104-17.25-17.677-20.188-30.938c-5.146-23.26,4.438-45.375,21.396-49.313
	c1.771-0.406,3.5-0.583,5.167-0.583c5.917,0,11,2.292,14.5,4.5c9.688,6.104,17.25,17.677,20.188,30.948
	C387.769,464.028,378.186,486.142,361.227,490.08z"/>
<g>
</g>
<g>
</g>
<g>
</g>
<g>
</g>
<g>
</g>
<g>
</g>
<g>
</g>
<g>
</g>
<g>
</g>
<g>
</g>
<g>
</g>
<g>
</g>
<g>
</g>
<g>
</g>
<g>
</g>
</svg>
