<svg height="512" viewBox="0 0 192 192" width="512" xmlns="http://www.w3.org/2000/svg" xmlns:xlink="http://www.w3.org/1999/xlink"><linearGradient id="New_Gradient_Swatch_2" gradientUnits="userSpaceOnUse" x1="103.783" x2="163.674" y1="134.561" y2="74.671"><stop offset="0" stop-color="#34cdfa"/><stop offset="1" stop-color="#e8d9f1"/></linearGradient><path d="m175.016 185.188-59.1-157.262a8 8 0 0 0 -10.3-4.674l-14.981 5.629a24.029 24.029 0 0 0 -14.023 30.909l16.888 44.932a24 24 0 0 0 30.909 14.023l7.489-2.815 28.143 74.886z" fill="url(#New_Gradient_Swatch_2)"/><path d="m176.558 138.54-140.774-24.917a29.434 29.434 0 1 0 -5.35 58.377h143.752a16.814 16.814 0 0 0 2.372-33.46z" fill="#ccf2fe"/><path d="m181.186 160h-143.752a29.429 29.429 0 0 1 -28.2-37.851 29.435 29.435 0 0 0 21.2 49.851h143.752a16.836 16.836 0 0 0 16.728-15.126 16.7 16.7 0 0 1 -9.728 3.126z" fill="#99e6fd"/><circle cx="31" cy="142" fill="#01c0f9" r="8"/></svg>