<?xml version="1.0" encoding="iso-8859-1"?>
<!-- Generator: Adobe Illustrator 19.0.0, SVG Export Plug-In . SVG Version: 6.00 Build 0)  -->
<svg version="1.1" id="Capa_1" xmlns="http://www.w3.org/2000/svg" xmlns:xlink="http://www.w3.org/1999/xlink" x="0px" y="0px"
	 viewBox="0 0 456.8 456.8" style="enable-background:new 0 0 456.8 456.8;" xml:space="preserve">
<path style="fill:#86BDD1;" d="M299.2,46.4V8H156.8v38.4h-54.4v364h54.4v38.4H300v-38.4h54.4v-364H299.2z M249.6,210.4
	c8.8,10.4,8.8,25.6,0,36l-1.6,2.4V300l17.6,10.4l-17.6,8.8V364l4.8,2.4c5.6,2.4,8.8,9.6,5.6,15.2c-2.4,4-6.4,6.4-11.2,6.4h-38.4
	c-6.4-0.8-11.2-6.4-10.4-12c0-4,2.4-7.2,6.4-9.6l4.8-2.4v-45.6l-17.6-8.8l17.6-10.4V248l-1.6-2.4c-8.8-10.4-8.8-25.6,0-36l1.6-2.4
	v-50.4L192,148l17.6-10.4V92l-5.6-1.6c-6.4-2.4-9.6-8.8-7.2-14.4c1.6-4.8,6.4-8,12-8h38.4c6.4-0.8,12,4,12.8,10.4
	c0.8,5.6-2.4,10.4-8,12l-4.8,2.4v45.6l17.6,10.4l-17.6,8.8V208L249.6,210.4z"/>
<path style="fill:#6197AA;" d="M299.2,8H228v60h19.2c6.4-0.8,12,4,12.8,10.4c0.8,5.6-2.4,10.4-8,12l-4.8,2.4v45.6l17.6,10.4
	l-17.6,8.8V208l1.6,2.4c8.8,10.4,8.8,25.6,0,36l-1.6,2.4V300l17.6,10.4l-17.6,8.8V364l4.8,2.4c5.6,2.4,8.8,9.6,5.6,15.2
	c-1.6,4-5.6,6.4-10.4,6.4H228v59.2h71.2v-37.6h54.4V46.4h-54.4V8z"/>
<g>
	<path style="fill:#1F2E3A;" d="M354.4,38.4H308V8c0-4.8-3.2-8-8-8H156.8c-4.8,0-8,3.2-8,8v30.4h-46.4c-4.8,0-8,3.2-8,8v364
		c0,4.8,3.2,8,8,8h46.4v30.4c0,4.8,3.2,8,8,8H300c4.8,0,8-3.2,8-8v-30.4h46.4c4.8,0,8-3.2,8-8v-364
		C362.4,41.6,358.4,38.4,354.4,38.4z M346.4,401.6H300c-4.8,0-8,3.2-8,8V440H164.8v-30.4c0-4.8-3.2-8-8-8h-46.4V54.4h46.4
		c4.8,0,8-3.2,8-8V16H292v30.4c0,4.8,3.2,8,8,8h46.4V401.6z"/>
	<path style="fill:#1F2E3A;" d="M268.8,156c4-2.4,5.6-7.2,3.2-10.4c-0.8-1.6-1.6-2.4-3.2-3.2l-13.6-8v-36c9.6-4,14.4-16,9.6-25.6
		c-3.2-7.2-10.4-12-17.6-12h-38.4c-11.2,0-20,8.8-20,19.2c0,8,4.8,15.2,12,17.6v36l-13.6,8c-4,1.6-5.6,6.4-4,10.4
		c0.8,1.6,2.4,3.2,4,4l13.6,7.2v41.6c-11.2,13.6-11.2,32.8,0,46.4v43.2l-13.6,8c-4,2.4-4.8,7.2-3.2,11.2c0.8,1.6,1.6,2.4,3.2,3.2
		l13.6,7.2v36c-9.6,4-14.4,16-9.6,25.6c3.2,7.2,10.4,12,17.6,12h38.4c11.2,0,20-8.8,20-19.2c0-8-4.8-15.2-12-17.6V324l13.6-7.2
		c4-2.4,5.6-7.2,3.2-10.4c-0.8-1.6-1.6-2.4-3.2-3.2l-13.6-8v-44c11.2-13.6,11.2-32.8,0-46.4v-42.4L268.8,156z M243.2,144.8l5.6,3.2
		l-4.8,2.4c-2.4,1.6-4,4-4,7.2V208c0,2.4,0.8,4,2.4,5.6c8,7.2,8,20,0.8,28l-0.8,0.8c-1.6,1.6-2.4,3.2-2.4,5.6v51.2
		c0,3.2,1.6,5.6,4,7.2l5.6,3.2L244,312c-2.4,1.6-4,4-4,7.2v46.4c0,4.8,3.2,8,8,8c1.6,0,4,1.6,4,4s-1.6,4-4,4h-38.4c-1.6,0-4-1.6-4-4
		s1.6-4,4-4c4.8,0,8-3.2,8-8v-47.2c0-3.2-1.6-5.6-4-7.2l-4.8-2.4l5.6-3.2c2.4-1.6,4-4,4-7.2v-51.2c0-2.4-0.8-4-2.4-5.6
		c-8-7.2-8-20-0.8-28l0.8-0.8c1.6-1.6,2.4-3.2,2.4-5.6v-50.4c0-3.2-1.6-5.6-4.8-7.2l-6.4-1.6l5.6-3.2c2.4-1.6,4-4,4-7.2V91.2
		c0-4.8-3.2-8-8-8c-1.6,0-3.2-1.6-3.2-4c0-1.6,1.6-3.2,3.2-3.2h38.4c1.6,0,3.2,1.6,3.2,4c0,1.6-1.6,3.2-3.2,3.2c-4.8,0-8,3.2-8,8
		v46.4C239.2,140.8,240.8,143.2,243.2,144.8z"/>
	<path style="fill:#1F2E3A;" d="M140.8,60c-4.8,0-8,3.2-8,8v320c0,4.8,3.2,8,8,8s8-3.2,8-8V68C148.8,63.2,144.8,60,140.8,60z"/>
	<path style="fill:#1F2E3A;" d="M315.2,396.8c4.8,0,8-3.2,8-8V68c0-4.8-3.2-8-8-8s-8,3.2-8,8v320C307.2,392.8,310.4,396,315.2,396.8
		L315.2,396.8z"/>
</g>
<g>
</g>
<g>
</g>
<g>
</g>
<g>
</g>
<g>
</g>
<g>
</g>
<g>
</g>
<g>
</g>
<g>
</g>
<g>
</g>
<g>
</g>
<g>
</g>
<g>
</g>
<g>
</g>
<g>
</g>
</svg>
