<?xml version="1.0" encoding="iso-8859-1"?>
<!-- Generator: Adobe Illustrator 19.0.0, SVG Export Plug-In . SVG Version: 6.00 Build 0)  -->
<svg version="1.1" id="Capa_1" xmlns="http://www.w3.org/2000/svg" xmlns:xlink="http://www.w3.org/1999/xlink" x="0px" y="0px"
	 viewBox="0 0 467.328 467.328" style="enable-background:new 0 0 467.328 467.328;" xml:space="preserve">
<path style="fill:#B9D9EA;" d="M136.064,40.928l0.8-8.8c0.8-10.4,7.2-24,28.8-24h134.4c21.6,0,27.2,12.8,28.8,24l0.8,8.8H136.064z"
	/>
<path style="fill:#86BDD1;" d="M232.864,459.328c-15.2,0-28-12.8-28-28v-298.4h56v298.4
	C260.864,446.528,248.864,459.328,232.864,459.328L232.864,459.328z"/>
<path style="fill:#B9D9EA;" d="M165.664,91.328c-13.6,0-23.2-5.6-27.2-16l-4-11.2h196.8l-4,11.2c-4,10.4-12.8,16-27.2,16H165.664z"
	/>
<rect x="136.864" y="40.928" style="fill:#FFFFFF;" width="192.8" height="23.2"/>
<path style="fill:#9EC6D8;" d="M328.864,40.928L328.864,40.928v-8.8c-1.6-10.4-7.2-24-28.8-24h-67.2v32.8H328.864z"/>
<path style="fill:#6197AA;" d="M260.864,431.328v-298.4h-28v326.4C248.064,459.328,260.864,446.528,260.864,431.328z"/>
<path style="fill:#9EC6D8;" d="M327.264,75.328l4-11.2h-98.4v26.4h67.2C314.464,91.328,323.264,85.728,327.264,75.328z"/>
<rect x="232.864" y="40.928" style="fill:#D8D8D8;" width="96" height="23.2"/>
<g>
	<path style="fill:#1F2E3A;" d="M300.064,0.128h-134.4c-18.4-1.6-35.2,12-36.8,30.4c0,2.4,0,4,0,6.4v24.8
		c-1.6,18.4,12,35.2,30.4,36.8c2.4,0,4,0,6.4,0h30.4l9.6,26.4c-4.8,0-8,3.2-8,8v298.4c0,20,16,36,36,36s36-16,36-36v-298.4
		c0-4.8-3.2-8-8-8l9.6-26.4h30.4c18.4,1.6,35.2-12,36.8-30.4c0-2.4,0-4,0-6.4v-24.8c1.6-18.4-12-35.2-30.4-36.8
		C304.864,0.128,302.464,0.128,300.064,0.128z M165.664,16.128h134.4c12.8,0,19.2,5.6,20.8,16.8h-176
		C145.664,20.928,152.864,16.128,165.664,16.128z M252.864,431.328c0,11.2-8.8,20-20,20c-11.2,0-20-8.8-20-20v-290.4h40V431.328z
		 M244.064,124.928h-22.4l-8.8-26.4h40.8L244.064,124.928z M300.064,83.328h-134.4c-10.4,0-16.8-3.2-19.2-10.4h173.6
		C316.864,79.328,310.464,83.328,300.064,83.328L300.064,83.328z M320.864,56.128h-176v-7.2h176.8L320.864,56.128z"/>
	<path style="fill:#1F2E3A;" d="M232.864,160.928c-4.8,0-8,3.2-8,8v242.4c0,4.8,3.2,8,8,8c4.8,0,8-3.2,8-8v-242.4
		C240.864,164.928,237.664,160.928,232.864,160.928z"/>
</g>
<g>
</g>
<g>
</g>
<g>
</g>
<g>
</g>
<g>
</g>
<g>
</g>
<g>
</g>
<g>
</g>
<g>
</g>
<g>
</g>
<g>
</g>
<g>
</g>
<g>
</g>
<g>
</g>
<g>
</g>
</svg>
