<?xml version="1.0" encoding="iso-8859-1"?>
<!-- Generator: Adobe Illustrator 19.0.0, SVG Export Plug-In . SVG Version: 6.00 Build 0)  -->
<svg version="1.1" id="Capa_1" xmlns="http://www.w3.org/2000/svg" xmlns:xlink="http://www.w3.org/1999/xlink" x="0px" y="0px"
	 viewBox="0 0 512 512" style="enable-background:new 0 0 512 512;" xml:space="preserve">
<path style="fill:#303C42;" d="M373.333,21.333h-10.667V10.667C362.667,4.771,357.896,0,352,0H160
	c-5.896,0-10.667,4.771-10.667,10.667v10.667h-10.667C132.771,21.333,128,26.104,128,32v64c0,5.896,4.771,10.667,10.667,10.667
	h10.667v10.667c0,5.896,4.771,10.667,10.667,10.667h64v42.667c-5.896,0-10.667,4.771-10.667,10.667v288
	C213.333,492.865,232.479,512,256,512s42.667-19.135,42.667-42.667v-288c0-5.896-4.771-10.667-10.667-10.667V128h64
	c5.896,0,10.667-4.771,10.667-10.667v-10.667h10.667c5.896,0,10.667-4.771,10.667-10.667V32
	C384,26.104,379.229,21.333,373.333,21.333z"/>
<path style="fill:#BF6A1E;" d="M277.333,469.333c0,11.76-9.563,21.333-21.333,21.333c-11.771,0-21.333-9.573-21.333-21.333V192
	h42.667V469.333z"/>
<path style="opacity:0.1;enable-background:new    ;" d="M266.667,192v266.667c0,11.76-9.563,21.333-21.333,21.333
	c-3.12,0-6.034-0.747-8.706-1.954c3.349,7.404,10.725,12.621,19.372,12.621c11.771,0,21.333-9.573,21.333-21.333V192H266.667z"/>
<g>
	<rect x="245.333" y="128" style="fill:#D1D1CE;" width="21.333" height="42.667"/>
	<path style="fill:#D1D1CE;" d="M362.667,85.333H352c-5.896,0-10.667,4.771-10.667,10.667v10.667H170.667V96
		c0-5.896-4.771-10.667-10.667-10.667h-10.667V42.667H160c5.896,0,10.667-4.771,10.667-10.667V21.333h170.667V32
		c0,5.896,4.771,10.667,10.667,10.667h10.667V85.333z"/>
</g>
<path style="fill:#303C42;" d="M330.667,53.333H181.333c-5.896,0-10.667,4.771-10.667,10.667s4.771,10.667,10.667,10.667h149.333
	c5.896,0,10.667-4.771,10.667-10.667S336.563,53.333,330.667,53.333z"/>
<linearGradient id="SVGID_1_" gradientUnits="userSpaceOnUse" x1="-43.3237" y1="639.4767" x2="-28.6878" y2="632.6509" gradientTransform="matrix(21.3333 0 0 -21.3333 996.3334 13791.667)">
	<stop  offset="0" style="stop-color:#FFFFFF;stop-opacity:0.2"/>
	<stop  offset="1" style="stop-color:#FFFFFF;stop-opacity:0"/>
</linearGradient>
<path style="fill:url(#SVGID_1_);" d="M373.333,21.333h-10.667V10.667C362.667,4.771,357.896,0,352,0H160
	c-5.896,0-10.667,4.771-10.667,10.667v10.667h-10.667C132.771,21.333,128,26.104,128,32v64c0,5.896,4.771,10.667,10.667,10.667
	h10.667v10.667c0,5.896,4.771,10.667,10.667,10.667h64v42.667c-5.896,0-10.667,4.771-10.667,10.667v288
	C213.333,492.865,232.479,512,256,512s42.667-19.135,42.667-42.667v-288c0-5.896-4.771-10.667-10.667-10.667V128h64
	c5.896,0,10.667-4.771,10.667-10.667v-10.667h10.667c5.896,0,10.667-4.771,10.667-10.667V32
	C384,26.104,379.229,21.333,373.333,21.333z"/>
<g>
</g>
<g>
</g>
<g>
</g>
<g>
</g>
<g>
</g>
<g>
</g>
<g>
</g>
<g>
</g>
<g>
</g>
<g>
</g>
<g>
</g>
<g>
</g>
<g>
</g>
<g>
</g>
<g>
</g>
</svg>
