<svg height="512" viewBox="0 0 192 192" width="512" xmlns="http://www.w3.org/2000/svg" xmlns:xlink="http://www.w3.org/1999/xlink"><linearGradient id="New_Gradient_Swatch_2" gradientUnits="userSpaceOnUse" x1="94.69" x2="158.004" y1="122.004" y2="58.69"><stop offset="0" stop-color="#34cdfa"/><stop offset="1" stop-color="#e8d9f1"/></linearGradient><path d="m144 176v-72h-16v72h-32v16h80v-16z" fill="#34cdfa"/><path d="m168 72h-72a24.027 24.027 0 0 0 -24 24 8 8 0 0 0 8 8h88a8 8 0 0 0 8-8v-16a8 8 0 0 0 -8-8z" fill="url(#New_Gradient_Swatch_2)"/><path d="m160 0v48h-40a24.028 24.028 0 0 0 -24 24v24h-24a8 8 0 0 0 -7.761 6.06l-14.485 57.94h-25.754v16h32a8 8 0 0 0 7.761-6.06l14.485-57.94h89.754a8 8 0 0 0 8-8v-104zm-48 96v-24a8.009 8.009 0 0 1 8-8h40v32z" fill="#ccf2fe"/></svg>