<?xml version="1.0" encoding="iso-8859-1"?>
<!-- Generator: Adobe Illustrator 19.0.0, SVG Export Plug-In . SVG Version: 6.00 Build 0)  -->
<svg version="1.1" id="Capa_1" xmlns="http://www.w3.org/2000/svg" xmlns:xlink="http://www.w3.org/1999/xlink" x="0px" y="0px"
	 viewBox="0 0 388.068 388.068" style="enable-background:new 0 0 388.068 388.068;" xml:space="preserve">
<path style="fill:#86BDD1;" d="M378.414,193.234l-4.8-16.8l-9.6,15.2c-3.2,4-6.4,7.2-11.2,9.6c-4,1.6-8,2.4-12,2.4
	c-21.6,0-37.6-20-54.4-41.6c-6.4-8.8-13.6-17.6-21.6-25.6c-8-8.8-19.2-13.6-31.2-13.6c-13.6,0.8-27.2,5.6-38.4,13.6
	c-11.2-8-24.8-12.8-38.4-13.6c-12,0-23.2,4.8-31.2,13.6c-8,8-15.2,16.8-21.6,26.4c-16.8,21.6-32,41.6-54.4,41.6c-4,0-8-0.8-12-2.4
	c-4.8-2.4-8-5.6-11.2-10.4l-9.6-15.2l-4.8,16.8c-0.8,4-1.6,8-1.6,12c0.8,16.8,12.8,32,36.8,45.6c16,9.6,33.6,14.4,52,14.4
	c55.2,0,96-47.2,96-47.2c1.6,1.6,42.4,47.2,96,47.2c18.4,0,36-4.8,52-14.4c24-13.6,36-28.8,36.8-45.6
	C380.014,201.234,380.014,197.234,378.414,193.234z"/>
<path style="fill:#6197AA;" d="M373.614,176.434l-9.6,15.2c-3.2,4-6.4,7.2-11.2,10.4c-4,1.6-8,2.4-12,2.4c-21.6,0-37.6-20-54.4-41.6
	c-6.4-8.8-13.6-17.6-21.6-25.6c-8-8.8-19.2-13.6-31.2-13.6c-13.6,0.8-27.2,5.6-38.4,13.6v80.8l0,0c1.6,1.6,42.4,47.2,96,47.2
	c18.4,0,36-4.8,52-14.4c24-13.6,36-28.8,36.8-45.6c0-4,0-8-1.6-12L373.614,176.434z"/>
<g>
	<path style="fill:#1F2E3A;" d="M353.614,150.034c-4-2.4-8.8-1.6-11.2,1.6c-2.4,4-1.6,8.8,1.6,11.2c9.6,7.2,15.2,14.4,14.4,20
		c-1.6,4.8-4.8,8.8-9.6,11.2c-3.2,0.8-6.4,1.6-9.6,1.6c-17.6,0-32-19.2-48-38.4c-7.2-9.6-14.4-18.4-22.4-26.4
		c-9.6-10.4-23.2-16-36.8-16c-13.6,0.8-27.2,4.8-38.4,12c-12-7.2-24.8-11.2-39.2-12c-13.6,0-27.2,5.6-36.8,16
		c-8,8.8-15.2,17.6-22.4,26.4c-15.2,20-30.4,38.4-48,38.4c-3.2,0-6.4-0.8-8.8-1.6c-4.8-2.4-8-6.4-8.8-11.2
		c-0.8-5.6,4.8-12.8,14.4-20c4-2.4,4.8-7.2,1.6-11.2c-2.4-4-7.2-4.8-11.2-1.6c-1.6,0.8-35.2,24.8-34.4,56
		c3.2,19.2,16.8,36.8,43.2,52c16.8,9.6,36,15.2,56,15.2c46.4,0,82.4-30.4,96-44c13.6,13.6,49.6,44,96,44c20,0,39.2-5.6,56-15.2
		c26.4-15.2,40-32.8,40.8-52C389.614,174.034,355.214,150.834,353.614,150.034z M371.214,195.634c0.8,3.2,1.6,6.4,1.6,9.6
		c-1.6,13.6-12,26.4-33.6,38.4c-14.4,8.8-31.2,12.8-48,13.6c-51.2,0-89.6-44-90.4-44.8c-1.6-1.6-3.2-2.4-5.6-2.4l0,0
		c-2.4,0-4.8,0.8-6.4,2.4c0,0.8-39.2,44.8-90.4,44.8c-16.8,0-33.6-4.8-48-13.6c-20.8-12-32-24.8-32.8-38.4c0-3.2,0-6.4,0.8-9.6
		c4,5.6,8.8,9.6,14.4,12.8h0.8c4.8,1.6,9.6,2.4,15.2,2.4c25.6,0,43.2-23.2,60-44.8c6.4-8.8,13.6-16.8,21.6-24.8
		c6.4-7.2,16-11.2,25.6-11.2c12,0.8,24,4.8,34.4,12c3.2,2.4,6.4,2.4,9.6,0c10.4-7.2,21.6-11.2,34.4-12c9.6,0,18.4,4,24.8,11.2
		c7.2,8,14.4,16,20.8,24.8c16.8,22.4,34.4,44.8,60,44.8l0,0c5.6,0,11.2-1.6,16-3.2C362.414,205.234,367.214,201.234,371.214,195.634
		z"/>
	<path style="fill:#1F2E3A;" d="M224.814,165.234c-10.4-1.6-20,0.8-29.6,4.8c-8.8-4.8-19.2-6.4-29.6-4.8
		c-22.4,2.4-44,18.4-65.6,45.6c-2.4,3.2-2.4,8.8,1.6,11.2c3.2,2.4,8.8,2.4,11.2-1.6l0,0c44.8-58.4,76-36,77.6-35.2h0.8l0.8,0.8
		c0.8,0,1.6,0.8,2.4,0.8h0.8c0.8,0,1.6,0,2.4,0h0.8c0.8,0,0.8-0.8,1.6-0.8h0.8c1.6-0.8,32-23.2,77.6,34.4c2.4,3.2,8,4,11.2,1.6
		s4-8,1.6-11.2C268.814,182.834,247.214,167.634,224.814,165.234z"/>
</g>
<g>
</g>
<g>
</g>
<g>
</g>
<g>
</g>
<g>
</g>
<g>
</g>
<g>
</g>
<g>
</g>
<g>
</g>
<g>
</g>
<g>
</g>
<g>
</g>
<g>
</g>
<g>
</g>
<g>
</g>
</svg>
