<?xml version="1.0" encoding="iso-8859-1"?>
<!-- Generator: Adobe Illustrator 19.0.0, SVG Export Plug-In . SVG Version: 6.00 Build 0)  -->
<svg version="1.1" id="Capa_1" xmlns="http://www.w3.org/2000/svg" xmlns:xlink="http://www.w3.org/1999/xlink" x="0px" y="0px"
	 viewBox="0 0 511.998 511.998" style="enable-background:new 0 0 511.998 511.998;" xml:space="preserve">
<path style="fill:#303C42;" d="M501.352,362.666c-0.031,0-0.365,0-1-0.021c-11.932-0.523-25.057-10.165-31.523-15.893
	c-0.212-2.107-0.303-4.216-0.768-6.315c-3.094-13.906-11.406-25.781-23.406-33.427c-7.525-4.789-15.969-7.306-24.728-7.923
	L123.144,94.405c-8.615-5.938-18.698-9.073-29.146-9.073c-28.302,0-51.333,23.031-51.333,51.333v12.667
	c0,3.427,1.646,6.646,4.417,8.646l192,138.667c4.26,3.052,10.073,2.594,13.792-1.104l25.802-25.792l62.932,41.935
	c-29.923,4.388-67.605,8.326-106.943,8.326c-84.104,0-160.917-17.927-169.771-20.063c-13.917-3.083-28.198-0.583-40.219,7.083
	c-12,7.656-20.313,19.531-23.406,33.427c-6.365,28.698,11.802,57.229,41.365,63.802c22.417,5.26,102.531,22.406,192.031,22.406
	s169.615-17.146,192.906-22.604c13.906-3.094,25.771-11.406,33.427-23.427c0.378-0.592,0.587-1.25,0.94-1.854
	c19.06,4.345,33.48,5.07,37.956,5.198c0.479,0.01,0.958,0.021,1.438,0.021c0.063,0,0.135,0,0.198,0h0.01c0,0,0.01,0,0.021,0h0.01
	c0.021,0,0.031,0,0.031,0c0.031,0.01,0.073,0,0.073,0c0.042-0.01,0.125-0.021,0.135-0.01c5.667-0.25,10.188-4.927,10.188-10.656
	C511.998,367.447,507.237,362.676,501.352,362.666z"/>
<path style="fill:#D1D1CE;" d="M283.227,247.145c-4.208-2.833-9.865-2.271-13.458,1.333l-25.552,25.552L63.998,143.874v-7.208
	c0-16.542,13.458-30,30-30c6.115,0,12,1.833,17.042,5.302l277.628,191.47c-4.568,0.945-10.001,2.016-16.219,3.161L283.227,247.145z"
	/>
<path style="opacity:0.5;fill:#FFFFFF;enable-background:new    ;" d="M67.622,122.676c-2.237,4.197-3.624,8.911-3.624,13.99v7.208
	L244.217,274.03l15.754-15.754L67.622,122.676z"/>
<path style="fill:#BF6A1E;" d="M421.831,383.489c-21.865,5.125-99.948,21.844-187.167,21.844S69.362,388.614,46.383,383.228
	c-17.208-3.813-28.104-20.927-24.281-38.146c1.854-8.344,6.844-15.469,14.042-20.063c5.198-3.313,11.094-5.021,17.104-5.021
	c2.333,0,4.688,0.26,7.021,0.781c8.729,2.104,87.823,20.563,174.396,20.563c84.594,0,160.021-17.104,174.396-20.552
	c8.344-1.885,16.927-0.365,24.135,4.219c7.198,4.583,12.177,11.708,14.031,20.052c1.865,8.344,0.354,16.917-4.229,24.125
	C438.404,376.395,431.29,381.384,421.831,383.489z"/>
<path style="opacity:0.1;enable-background:new    ;" d="M442.998,358.52c-4.594,7.208-11.708,12.198-21.167,14.302
	c-21.865,5.125-99.948,21.844-187.167,21.844S69.362,377.947,46.383,372.561c-12.908-2.859-22.263-13.203-24.52-25.462
	c-2.576,16.516,7.987,32.466,24.52,36.129c22.979,5.385,101.063,22.104,188.281,22.104s165.302-16.719,187.167-21.844
	c9.458-2.104,16.573-7.094,21.167-14.302c4.215-6.629,5.695-14.409,4.478-22.105C446.744,351.097,445.252,354.976,442.998,358.52z"
	/>
<g>
	<circle style="fill:#303C42;" cx="53.332" cy="351.999" r="10.667"/>
	<circle style="fill:#303C42;" cx="415.999" cy="351.999" r="10.667"/>
</g>
<linearGradient id="SVGID_1_" gradientUnits="userSpaceOnUse" x1="-46.6005" y1="636.5436" x2="-24.0341" y2="626.0204" gradientTransform="matrix(21.3333 0 0 -21.3333 996.3547 13791.6436)">
	<stop  offset="0" style="stop-color:#FFFFFF;stop-opacity:0.2"/>
	<stop  offset="1" style="stop-color:#FFFFFF;stop-opacity:0"/>
</linearGradient>
<path style="fill:url(#SVGID_1_);" d="M501.352,362.666c-0.031,0-0.365,0-1-0.021c-11.932-0.523-25.057-10.165-31.523-15.893
	c-0.212-2.107-0.303-4.216-0.768-6.315c-3.094-13.906-11.406-25.781-23.406-33.427c-7.525-4.789-15.969-7.306-24.728-7.923
	L123.144,94.405c-8.615-5.938-18.698-9.073-29.146-9.073c-28.302,0-51.333,23.031-51.333,51.333v12.667
	c0,3.427,1.646,6.646,4.417,8.646l192,138.667c4.26,3.052,10.073,2.594,13.792-1.104l25.802-25.792l62.932,41.935
	c-29.923,4.388-67.605,8.326-106.943,8.326c-84.104,0-160.917-17.927-169.771-20.063c-13.917-3.083-28.198-0.583-40.219,7.083
	c-12,7.656-20.313,19.531-23.406,33.427c-6.365,28.698,11.802,57.229,41.365,63.802c22.417,5.26,102.531,22.406,192.031,22.406
	s169.615-17.146,192.906-22.604c13.906-3.094,25.771-11.406,33.427-23.427c0.378-0.592,0.587-1.25,0.94-1.854
	c19.06,4.345,33.48,5.07,37.956,5.198c0.479,0.01,0.958,0.021,1.438,0.021c0.063,0,0.135,0,0.198,0h0.01c0,0,0.01,0,0.021,0h0.01
	c0.021,0,0.031,0,0.031,0c0.031,0.01,0.073,0,0.073,0c0.042-0.01,0.125-0.021,0.135-0.01c5.667-0.25,10.188-4.927,10.188-10.656
	C511.998,367.447,507.237,362.676,501.352,362.666z"/>
<g>
</g>
<g>
</g>
<g>
</g>
<g>
</g>
<g>
</g>
<g>
</g>
<g>
</g>
<g>
</g>
<g>
</g>
<g>
</g>
<g>
</g>
<g>
</g>
<g>
</g>
<g>
</g>
<g>
</g>
</svg>
