<svg height="512" viewBox="0 0 192 192" width="512" xmlns="http://www.w3.org/2000/svg" xmlns:xlink="http://www.w3.org/1999/xlink"><linearGradient id="New_Gradient_Swatch_2" gradientUnits="userSpaceOnUse" x1="56" x2="136" y1="176" y2="96"><stop offset="0" stop-color="#34cdfa"/><stop offset="1" stop-color="#e8d9f1"/></linearGradient><g fill="#34cdfa"><path d="m184 64h-176a8 8 0 0 1 -8-8v-32h16v24h160v-24h16v32a8 8 0 0 1 -8 8z"/><path d="m152 168h16v24h-16z"/><path d="m120 168h16v24h-16z"/><path d="m88 168h16v24h-16z"/><path d="m56 168h16v24h-16z"/><path d="m24 168h16v24h-16z"/></g><rect fill="#e6f9fe" height="144" rx="8" width="144" x="24" y="32"/><path d="m48 168v-128a8 8 0 0 1 8-8h-24a8 8 0 0 0 -8 8v128a8 8 0 0 0 8 8h24a8 8 0 0 1 -8-8z" fill="#ccf2fe"/><path d="m24 128h144v16h-144z" fill="url(#New_Gradient_Swatch_2)"/></svg>