<?xml version="1.0" encoding="iso-8859-1"?>
<!-- Generator: Adobe Illustrator 19.0.0, SVG Export Plug-In . SVG Version: 6.00 Build 0)  -->
<svg version="1.1" id="Capa_1" xmlns="http://www.w3.org/2000/svg" xmlns:xlink="http://www.w3.org/1999/xlink" x="0px" y="0px"
	 viewBox="0 0 437.6 437.6" style="enable-background:new 0 0 437.6 437.6;" xml:space="preserve">
<polygon style="fill:#86BDD1;" points="150.723,326.4 116.323,187.2 321.123,187.2 286.723,326.4 "/>
<polygon style="fill:#FFFFFF;" points="249.123,428.8 249.123,396 189.123,396 189.123,428.8 150.723,428.8 150.723,326.4 
	286.723,326.4 286.723,428.8 "/>
<rect x="189.123" y="396" style="fill:#86BDD1;" width="60" height="32.8"/>
<path style="fill:#FFFFFF;" d="M262.723,162.4c-25.6,0-44-22.4-44-22.4c-11.2,12.8-27.2,20.8-44,22.4c-8.8,0-16.8-2.4-24-6.4
	c-4.8-2.4-8.8-5.6-12.8-10.4l-16-20l24.8,7.2c1.6,0.8,3.2,0.8,4.8,0.8c10.4,0,16.8-9.6,24.8-19.2c3.2-4,6.4-8,10.4-12
	s8.8-6.4,14.4-6.4c6.4,0,12.8,2.4,17.6,6.4c5.6-4,11.2-5.6,17.6-6.4c5.6,0,10.4,2.4,14.4,6.4c3.2,4,6.4,8,9.6,12
	c8,9.6,15.2,19.2,24.8,19.2c1.6,0,3.2,0,4.8-0.8l24.8-7.2l-16,20c-3.2,4-8,7.2-12.8,10.4C279.523,160,271.523,162.4,262.723,162.4z"
	/>
<polygon style="fill:#86BDD1;" points="87.523,71.2 71.523,8 365.923,8 349.923,71.2 "/>
<path style="fill:#B9D9EA;" d="M116.323,187.2L87.523,72h262.4l-28.8,115.2H116.323z M224.323,145.6c10.4,10.4,24.8,16,39.2,16.8
	c8.8,0,16.8-2.4,24-6.4c11.2-6.4,16.8-13.6,16.8-20.8c0.8-12.8-13.6-22.4-14.4-22.4c4,2.4,6.4,6.4,8,10.4v1.6l-0.8,1.6
	c-0.8,2.4-2.4,4.8-4.8,6.4l-0.8,0.8h-1.6c-1.6,0.8-3.2,0.8-4.8,0.8c-10.4,0-17.6-9.6-24.8-19.2c-3.2-4-6.4-8-9.6-12
	c-4-4-8.8-6.4-14.4-6.4c-4.8,0-9.6,1.6-14.4,4l-3.2,1.6l-4-2.4c-4-2.4-8.8-4-14.4-4c-5.6,0-10.4,2.4-14.4,6.4c-3.2,4-6.4,8-9.6,12
	c-8,9.6-15.2,19.2-24.8,19.2c-1.6,0-3.2,0-4.8-0.8h-1.6l-0.8-0.8c-2.4-1.6-4-3.2-4.8-5.6l-0.8-1.6v-1.6c0.8-4.8,4-8.8,8-11.2
	c-0.8,0-14.4,10.4-14.4,22.4c0,8,6.4,14.4,16.8,20.8c7.2,4,15.2,6.4,24,6.4c14.4-0.8,28.8-6.4,39.2-16.8l5.6-4.8L224.323,145.6z"/>
<rect x="216.323" y="396" style="fill:#6197AA;" width="32" height="32.8"/>
<g>
	<polygon style="fill:#D8D8D8;" points="216.323,396 249.123,396 249.123,428.8 286.723,428.8 286.723,326.4 216.323,326.4 	"/>
	<path style="fill:#D8D8D8;" d="M285.923,133.6c-10.4,0-17.6-9.6-24.8-19.2c-3.2-4-6.4-8-10.4-12s-8.8-6.4-14.4-6.4
		c-6.4,0-12.8,2.4-17.6,6.4l-2.4-1.6v41.6c1.6-1.6,2.4-2.4,2.4-2.4s19.2,22.4,44.8,22.4c8.8,0,16.8-2.4,24-6.4
		c4.8-2.4,8.8-5.6,12.8-10.4l16-20l-25.6,7.2C289.123,133.6,287.523,133.6,285.923,133.6z"/>
</g>
<path style="fill:#9EC6D8;" d="M216.323,100.8l2.4,0.8l4-2.4c4-2.4,8.8-4,14.4-4s10.4,2.4,14.4,6.4c3.2,4,7.2,8,9.6,12
	c8,9.6,15.2,19.2,24.8,19.2c1.6,0,3.2,0,4.8-0.8h1.6l0.8-0.8c2.4-1.6,4-3.2,4.8-6.4l0.8-1.6v-0.8c-1.6-4-4-8-8-10.4
	c0.8,0,14.4,10.4,14.4,22.4c0,8-6.4,14.4-16.8,20.8c-7.2,4-15.2,6.4-24,6.4c-14.4-0.8-28.8-6.4-39.2-16.8l-6.4-4l-2.4,2.4v44h104.8
	l28.8-115.2h-133.6V100.8z"/>
<g>
	<polygon style="fill:#6197AA;" points="216.323,326.4 286.723,326.4 321.123,187.2 216.323,187.2 	"/>
	<polygon style="fill:#6197AA;" points="216.323,71.2 349.923,71.2 365.923,8 216.323,8 	"/>
</g>
<g>
	<path style="fill:#1F2E3A;" d="M146.723,162.4c8,4.8,17.6,8,28,8c16.8-0.8,32-7.2,44-19.2c12,11.2,28,18.4,44,19.2l0,0
		c9.6,0,19.2-3.2,28-8c13.6-8,20.8-16.8,20.8-27.2c0.8-16.8-16-28-17.6-29.6c-4-2.4-8.8-1.6-11.2,1.6c-2.4,4-1.6,8.8,1.6,11.2
		c4,3.2,4.8,4.8,4.8,5.6c-0.8,0.8-0.8,1.6-1.6,1.6c-0.8,0-1.6,0-2.4,0c-6.4,0-12-8-18.4-16c-3.2-4-7.2-8.8-10.4-12.8
		c-5.6-5.6-12.8-8.8-20-8.8c-6.4,0-12,1.6-17.6,4.8c-5.6-3.2-11.2-4.8-17.6-4.8c-7.2,0-15.2,3.2-20,8.8c-4,4-7.2,8-10.4,12.8
		c-6.4,8-12.8,16-18.4,16c-0.8,0-1.6,0-2.4,0c-0.8-0.8-1.6-0.8-1.6-1.6s0.8-2.4,4.8-5.6c4-2.4,4.8-7.2,1.6-11.2
		c-2.4-4-7.2-4.8-11.2-1.6l0,0c-1.6,1.6-18.4,12.8-17.6,29.6C125.923,145.6,133.123,154.4,146.723,162.4z M151.523,141.6
		c13.6,0,22.4-11.2,31.2-22.4c3.2-4,6.4-8,9.6-11.2c2.4-2.4,5.6-4,8.8-4c4.8,0,9.6,1.6,12.8,4.8c3.2,2.4,6.4,2.4,9.6,0
		c4-2.4,8-4,12.8-4.8c3.2,0,6.4,1.6,8.8,4c3.2,3.2,6.4,7.2,9.6,11.2c8.8,11.2,17.6,22.4,31.2,22.4c2.4,0,4.8,0,7.2-0.8
		c-3.2,3.2-6.4,5.6-10.4,8c-6.4,3.2-12.8,5.6-20,5.6l0,0c-21.6,0-38.4-19.2-38.4-19.2c-3.2-3.2-8-4-11.2-0.8l-0.8,0.8
		c-9.6,11.2-24,18.4-38.4,19.2c-7.2,0-13.6-2.4-20-5.6c-4-2.4-7.2-4.8-10.4-8C146.723,141.6,149.123,141.6,151.523,141.6
		L151.523,141.6z"/>
	<path style="fill:#1F2E3A;" d="M365.923,0h-294.4c-4.8,0-8,3.2-8,8c0,0.8,0,1.6,0,2.4l79.2,317.6v101.6c0,4.8,3.2,8,8,8h136
		c4.8,0,8-3.2,8-8V327.2l79.2-317.6c0.8-4-1.6-8.8-5.6-9.6C366.723,0,366.723,0,365.923,0L365.923,0z M241.123,420.8h-44V404h44
		V420.8z M278.723,420.8h-21.6V396c0-4.8-3.2-8-8-8h-60c-4.8,0-8,3.2-8,8v24.8h-21.6v-86.4h119.2V420.8z M280.323,318.4h-123.2
		l-31.2-123.2h184.8L280.323,318.4z M314.723,179.2h-192L97.923,80h241.6L314.723,179.2z M343.523,63.2h-249.6l-12-48h273.6
		L343.523,63.2z"/>
</g>
<g>
</g>
<g>
</g>
<g>
</g>
<g>
</g>
<g>
</g>
<g>
</g>
<g>
</g>
<g>
</g>
<g>
</g>
<g>
</g>
<g>
</g>
<g>
</g>
<g>
</g>
<g>
</g>
<g>
</g>
</svg>
