<?xml version="1.0" encoding="iso-8859-1"?>
<!-- Generator: Adobe Illustrator 19.0.0, SVG Export Plug-In . SVG Version: 6.00 Build 0)  -->
<svg version="1.1" id="Capa_1" xmlns="http://www.w3.org/2000/svg" xmlns:xlink="http://www.w3.org/1999/xlink" x="0px" y="0px"
	 viewBox="0 0 512.001 512.001" style="enable-background:new 0 0 512.001 512.001;" xml:space="preserve">
<path style="fill:#303C42;" d="M493.792,222.229l-204.5-204.84c-23.146-23.185-64.771-23.185-87.917,0l-76.5,76.626
	c-11.573,11.592-18.208,27.641-18.208,44.033c0,16.391,6.635,32.439,18.208,44.031l30.837,30.888
	c-10.779,11.474-17.046,26.833-17.046,42.608c0,10.616,3.034,20.953,8.138,30.163L3.125,429.656c-4.167,4.173-4.167,10.935,0,15.108
	c0.02,0.02,0.048,0.025,0.068,0.044l-0.068,0.068l64,64l0.003-0.003c2.082,2.082,4.811,3.128,7.539,3.128
	c2.729,0,5.458-1.044,7.542-3.13l143.68-143.919c9.194,5.113,19.514,8.152,30.112,8.152c15.749,0,31.083-6.277,42.538-17.074
	l30.837,30.888c11.573,11.592,27.594,18.24,43.958,18.24c16.365,0,32.385-6.647,43.958-18.24l76.5-76.626
	C505.365,298.699,512,282.652,512,266.26S505.365,233.821,493.792,222.229z"/>
<rect x="31.151" y="381.246" transform="matrix(-0.7071 0.7071 -0.7071 -0.7071 457.9288 642.0391)" style="fill:#BF6A1E;" width="129.686" height="69.227"/>
<rect x="51.108" y="429.415" transform="matrix(-0.707 0.7072 -0.7072 -0.707 506.1336 661.9586)" style="opacity:0.1;enable-background:new    ;" width="129.665" height="12.821"/>
<g>
	
		<rect x="151.165" y="306.739" transform="matrix(-0.7071 0.7071 -0.7071 -0.7071 532.717 462.0036)" style="fill:#DFE1DF;" width="39.019" height="69.184"/>
	<path style="fill:#DFE1DF;" d="M227.125,340.042l-55.167-55.167C164.354,277.271,160,266.751,160,256.001
		c0-10.135,3.982-19.979,10.796-27.454l112.646,112.646C268.011,355.111,241.896,354.813,227.125,340.042z"/>
	<path style="fill:#DFE1DF;" d="M478.709,295.542l-76.5,76.5c-15.208,15.208-42.542,15.208-57.75,0l-204.5-204.5
		C132.354,159.938,128,149.417,128,138.667s4.354-21.271,11.958-28.875l76.5-76.5c7.604-7.604,18.125-11.958,28.875-11.958
		c10.75,0,21.271,4.354,28.875,11.958l204.5,204.5c7.604,7.604,11.958,18.125,11.958,28.875S486.313,287.938,478.709,295.542z"/>
</g>
<rect x="171.066" y="354.779" transform="matrix(-0.7089 0.7053 -0.7053 -0.7089 580.4866 482.778)" style="opacity:0.1;enable-background:new    ;" width="39.083" height="12.821"/>
<g>
	
		<rect x="11.305" y="389.565" transform="matrix(-0.707 0.7072 -0.7072 -0.707 410.007 622.0828)" style="opacity:0.2;fill:#FFFFFF;enable-background:new    ;" width="129.665" height="12.821"/>
	
		<rect x="131.206" y="314.983" transform="matrix(-0.7089 0.7053 -0.7053 -0.7089 484.3008 442.8878)" style="opacity:0.2;fill:#FFFFFF;enable-background:new    ;" width="39.083" height="12.821"/>
	<path style="opacity:0.2;fill:#FFFFFF;enable-background:new    ;" d="M139.959,131.126l76.5-76.5
		c7.604-7.604,18.125-11.958,28.875-11.958c10.75,0,21.271,4.354,28.875,11.958l204.5,204.5c5.034,5.034,8.474,11.397,10.34,18.208
		c0.952-3.477,1.618-7.034,1.618-10.667c0-10.75-4.354-21.271-11.958-28.875l-204.5-204.5c-7.604-7.604-18.125-11.958-28.875-11.958
		c-10.75,0-21.271,4.354-28.875,11.958l-76.5,76.5C132.354,117.396,128,127.917,128,138.667c0,3.633,0.667,7.19,1.618,10.667
		C131.485,142.523,134.925,136.16,139.959,131.126z"/>
</g>
<g>
	<path style="fill:#303C42;" d="M252.875,67.126c-4.167-4.167-10.917-4.167-15.083,0c-4.167,4.167-4.167,10.917,0,15.083l192,192
		c2.083,2.083,4.813,3.125,7.542,3.125c2.729,0,5.458-1.042,7.542-3.125c4.167-4.167,4.167-10.917,0-15.083L252.875,67.126z"/>
	<path style="fill:#303C42;" d="M188.875,131.126c-4.167-4.167-10.917-4.167-15.083,0c-4.167,4.167-4.167,10.917,0,15.083l192,192
		c2.083,2.083,4.813,3.125,7.542,3.125c2.729,0,5.458-1.042,7.542-3.125c4.167-4.167,4.167-10.917,0-15.083L188.875,131.126z"/>
	<path style="fill:#303C42;" d="M210.209,88.459c-4.167-4.167-10.917-4.167-15.083,0c-4.167,4.167-4.167,10.917,0,15.083
		l213.333,213.333c2.083,2.083,4.813,3.125,7.542,3.125s5.458-1.042,7.542-3.125c4.167-4.167,4.167-10.917,0-15.083L210.209,88.459z
		"/>
</g>
<linearGradient id="SVGID_1_" gradientUnits="userSpaceOnUse" x1="-43.569" y1="636.6559" x2="-25.1671" y2="628.0749" gradientTransform="matrix(21.3333 0 0 -21.3333 996.3267 13791.6748)">
	<stop  offset="0" style="stop-color:#FFFFFF;stop-opacity:0.2"/>
	<stop  offset="1" style="stop-color:#FFFFFF;stop-opacity:0"/>
</linearGradient>
<path style="fill:url(#SVGID_1_);" d="M493.792,222.229l-204.5-204.84c-23.146-23.185-64.771-23.185-87.917,0l-76.5,76.626
	c-11.573,11.592-18.208,27.641-18.208,44.033c0,16.391,6.635,32.439,18.208,44.031l30.837,30.888
	c-10.779,11.474-17.046,26.833-17.046,42.608c0,10.616,3.034,20.953,8.138,30.163L3.125,429.656c-4.167,4.173-4.167,10.935,0,15.108
	c0.02,0.02,0.048,0.025,0.068,0.044l-0.068,0.068l64,64l0.003-0.003c2.082,2.082,4.811,3.128,7.539,3.128
	c2.729,0,5.458-1.044,7.542-3.13l143.68-143.919c9.194,5.113,19.514,8.152,30.112,8.152c15.749,0,31.083-6.277,42.538-17.074
	l30.837,30.888c11.573,11.592,27.594,18.24,43.958,18.24c16.365,0,32.385-6.647,43.958-18.24l76.5-76.626
	C505.365,298.699,512,282.652,512,266.26S505.365,233.821,493.792,222.229z"/>
<g>
</g>
<g>
</g>
<g>
</g>
<g>
</g>
<g>
</g>
<g>
</g>
<g>
</g>
<g>
</g>
<g>
</g>
<g>
</g>
<g>
</g>
<g>
</g>
<g>
</g>
<g>
</g>
<g>
</g>
</svg>
