<svg height="512" viewBox="0 0 192 192" width="512" xmlns="http://www.w3.org/2000/svg" xmlns:xlink="http://www.w3.org/1999/xlink"><linearGradient id="New_Gradient_Swatch_2" gradientUnits="userSpaceOnUse" x1="83.985" x2="108.015" y1="99.015" y2="74.985"><stop offset="0" stop-color="#34cdfa"/><stop offset="1" stop-color="#e8d9f1"/></linearGradient><path d="m168 192h-16v-8a8.009 8.009 0 0 0 -8-8h-32a24.028 24.028 0 0 1 -24-24v-16h16v16a8.009 8.009 0 0 0 8 8h32a24.028 24.028 0 0 1 24 24z" fill="#34cdfa"/><path d="m149.657 90.343c-18.731-18.731-.047-44.476.743-45.543a8 8 0 0 0 -6.4-12.8h-96a8.01 8.01 0 0 0 -7.164 11.561c.139.28 13.685 28.235.508 48a8 8 0 0 0 -1.344 4.439c0 30.253 24.9 44.47 38.06 47.761a7.977 7.977 0 0 0 1.94.239h32a7.994 7.994 0 0 0 3.578-.845c1.486-.743 36.422-18.54 36.422-47.155a8 8 0 0 0 -2.343-5.657z" fill="#ccf2fe"/><path d="m64 96a8 8 0 0 1 1.344-4.437c13.177-19.767-.369-47.722-.508-48a8.01 8.01 0 0 1 7.164-11.563h-24a8.01 8.01 0 0 0 -7.164 11.561c.139.28 13.685 28.235.508 48a8 8 0 0 0 -1.344 4.439c0 30.253 24.9 44.47 38.06 47.761a7.977 7.977 0 0 0 1.94.239h24a7.977 7.977 0 0 1 -1.94-.239c-13.16-3.291-38.06-17.508-38.06-47.761z" fill="#99e6fd"/><path d="m144 8h-96a8 8 0 0 0 -8 8v24h112v-24a8 8 0 0 0 -8-8z" fill="#67d9fb"/><path d="m72 8h-24a8 8 0 0 0 -8 8v24h24v-24a8 8 0 0 1 8-8z" fill="#34cdfa"/><g fill="#01c0f9"><path d="m40 0h16v16h-16z"/><path d="m64 0h16v16h-16z"/><path d="m136 0h16v16h-16z"/><path d="m112 0h16v16h-16z"/><path d="m88 0h16v16h-16z"/></g><circle cx="96" cy="87" fill="url(#New_Gradient_Swatch_2)" r="17"/></svg>