<svg height="512" viewBox="0 0 192 192" width="512" xmlns="http://www.w3.org/2000/svg" xmlns:xlink="http://www.w3.org/1999/xlink"><linearGradient id="New_Gradient_Swatch_2" gradientUnits="userSpaceOnUse" x1="76" x2="116" y1="196" y2="156"><stop offset="0" stop-color="#34cdfa"/><stop offset="1" stop-color="#e8d9f1"/></linearGradient><linearGradient id="New_Gradient_Swatch_2-2" x1="50.352" x2="141.648" xlink:href="#New_Gradient_Swatch_2" y1="101.667" y2="10.371"/><path d="m183.676 53.738a8.185 8.185 0 0 0 -7.928-5.738h-159.496a8.185 8.185 0 0 0 -7.928 5.738 8 8 0 0 0 5.476 9.954c20.246 5.784 58.2 20.052 58.2 32.308v96h48v-96c0-12.222 37.956-26.5 58.2-32.308a8 8 0 0 0 5.476-9.954z" fill="#e6f9fe"/><path d="m29.8 63.692a8 8 0 0 1 -5.479-9.954 8.185 8.185 0 0 1 7.931-5.738h-16a8.185 8.185 0 0 0 -7.928 5.738 8 8 0 0 0 5.476 9.954c20.246 5.784 58.2 20.052 58.2 32.308v96h16v-96c0-12.256-37.954-26.524-58.2-32.308z" fill="#ccf2fe"/><path d="m72 160h48v32h-48z" fill="url(#New_Gradient_Swatch_2)"/><path d="m183.676 53.738a8.185 8.185 0 0 0 -7.928-5.738h-159.496a8.185 8.185 0 0 0 -7.928 5.738 8 8 0 0 0 5.476 9.954c20.246 5.784 58.2 20.052 58.2 32.308v24h48v-24c0-12.222 37.956-26.5 58.2-32.308a8 8 0 0 0 5.476-9.954z" fill="url(#New_Gradient_Swatch_2-2)"/><rect fill="#e6f9fe" height="64" rx="8" width="176" x="8"/><path d="m40 56v-48a8 8 0 0 1 8-8h-32a8 8 0 0 0 -8 8v48a8 8 0 0 0 8 8h32a8 8 0 0 1 -8-8z" fill="#ccf2fe"/><path d="m8 16h176v8h-176z" fill="#34cdfa"/><path d="m8 16h32v8h-32z" fill="#01c0f9"/><path d="m8 40h176v8h-176z" fill="#34cdfa"/><path d="m8 40h32v8h-32z" fill="#01c0f9"/></svg>