<?xml version="1.0" encoding="iso-8859-1"?>
<!-- Generator: Adobe Illustrator 19.0.0, SVG Export Plug-In . SVG Version: 6.00 Build 0)  -->
<svg version="1.1" id="Capa_1" xmlns="http://www.w3.org/2000/svg" xmlns:xlink="http://www.w3.org/1999/xlink" x="0px" y="0px"
	 viewBox="0 0 512 512" style="enable-background:new 0 0 512 512;" xml:space="preserve">
<path style="fill:#303C42;" d="M341.333,0H170.667C147.135,0,128,19.135,128,42.667v42.667C128,108.865,147.135,128,170.667,128H192
	c0,19.827,13.648,36.383,32,41.152V192c-3.063,0-5.969,1.313-8,3.604c-2.021,2.292-2.969,5.354-2.583,8.385l10.219,81.729
	c0.146,1.198,0.094,2.406-0.313,4.479c-9.427,74.833-20.656,164.813-20.656,168.469C202.667,488.073,226.594,512,256,512
	s53.333-23.927,53.333-53.333c0-3.656-11.229-93.635-20.813-169.375c-0.25-1.167-0.302-2.375-0.156-3.552l10.219-81.75
	c0.385-3.031-0.563-6.094-2.583-8.385c-2.031-2.292-4.938-3.604-8-3.604v-22.848c18.352-4.77,32-21.326,32-41.152h21.333
	C364.865,128,384,108.865,384,85.333V42.667C384,19.135,364.865,0,341.333,0z"/>
<path style="fill:#BF6A1E;" d="M256,490.667c-17.646,0-32-14.354-32.01-31.51c0.385-5.646,12.469-102.542,20.344-165.385
	c0.75-3.5,0.906-7.083,0.469-10.677l-8.719-69.76h39.833l-8.719,69.781c-0.438,3.573-0.281,7.156,0.313,9.75
	c8.031,63.75,20.115,160.646,20.49,165.802C288,476.313,273.646,490.667,256,490.667z"/>
<path style="opacity:0.1;enable-background:new    ;" d="M256.01,469.333c-14.54,0-26.706-9.802-30.592-22.832
	c-0.833,7.001-1.354,11.564-1.428,12.655c0.01,17.156,14.365,31.51,32.01,31.51s32-14.354,32-32
	c-0.073-0.995-0.589-5.464-1.419-12.389C282.682,459.553,270.531,469.333,256.01,469.333z"/>
<g>
	<rect x="245.333" y="170.667" style="fill:#C6CDD1;" width="21.333" height="21.333"/>
	<path style="fill:#C6CDD1;" d="M277.333,149.333h-42.667c-11.76,0-21.333-9.573-21.333-21.333h85.333
		C298.667,139.76,289.094,149.333,277.333,149.333z"/>
	<path style="fill:#C6CDD1;" d="M362.667,85.333c0,11.76-9.573,21.333-21.333,21.333H170.667c-11.76,0-21.333-9.573-21.333-21.333
		V42.667c0-11.76,9.573-21.333,21.333-21.333h170.667c11.76,0,21.333,9.573,21.333,21.333V85.333z"/>
</g>
<g>
	<path style="fill:#303C42;" d="M330.667,53.333H181.333c-5.896,0-10.667,4.771-10.667,10.667s4.771,10.667,10.667,10.667h149.333
		c5.896,0,10.667-4.771,10.667-10.667S336.563,53.333,330.667,53.333z"/>
	<circle style="fill:#303C42;" cx="256" cy="448" r="10.667"/>
</g>
<linearGradient id="SVGID_1_" gradientUnits="userSpaceOnUse" x1="-43.2842" y1="639.3936" x2="-28.451" y2="632.4754" gradientTransform="matrix(21.3333 0 0 -21.3333 996.3334 13791.667)">
	<stop  offset="0" style="stop-color:#FFFFFF;stop-opacity:0.2"/>
	<stop  offset="1" style="stop-color:#FFFFFF;stop-opacity:0"/>
</linearGradient>
<path style="fill:url(#SVGID_1_);" d="M341.333,0H170.667C147.135,0,128,19.135,128,42.667v42.667
	C128,108.865,147.135,128,170.667,128H192c0,19.827,13.648,36.383,32,41.152V192c-3.063,0-5.969,1.313-8,3.604
	c-2.021,2.292-2.969,5.354-2.583,8.385l10.219,81.729c0.146,1.198,0.094,2.406-0.313,4.479
	c-9.427,74.833-20.656,164.813-20.656,168.469C202.667,488.073,226.594,512,256,512s53.333-23.927,53.333-53.333
	c0-3.656-11.229-93.635-20.813-169.375c-0.25-1.167-0.302-2.375-0.156-3.552l10.219-81.75c0.385-3.031-0.563-6.094-2.583-8.385
	c-2.031-2.292-4.938-3.604-8-3.604v-22.848c18.352-4.77,32-21.326,32-41.152h21.333C364.865,128,384,108.865,384,85.333V42.667
	C384,19.135,364.865,0,341.333,0z"/>
<g>
</g>
<g>
</g>
<g>
</g>
<g>
</g>
<g>
</g>
<g>
</g>
<g>
</g>
<g>
</g>
<g>
</g>
<g>
</g>
<g>
</g>
<g>
</g>
<g>
</g>
<g>
</g>
<g>
</g>
</svg>
