<?xml version="1.0" encoding="iso-8859-1"?>
<!-- Generator: Adobe Illustrator 19.0.0, SVG Export Plug-In . SVG Version: 6.00 Build 0)  -->
<svg version="1.1" id="Capa_1" xmlns="http://www.w3.org/2000/svg" xmlns:xlink="http://www.w3.org/1999/xlink" x="0px" y="0px"
	 viewBox="0 0 430.4 430.4" style="enable-background:new 0 0 430.4 430.4;" xml:space="preserve">
<g>
	<path style="fill:#FFFFFF;" d="M87.2,422.4l60-80l6.4,4.8c17.6,13.6,39.2,20.8,61.6,21.6c22.4,0,44-8,61.6-21.6l6.4-4.8l60,80H87.2
		z"/>
	<path style="fill:#FFFFFF;" d="M215.2,368C143.2,368,84,287.2,84,188S143.2,8,215.2,8s131.2,80.8,131.2,180S287.2,368,215.2,368z
		 M215.2,38.4c-57.6,0-104.8,67.2-104.8,149.6s47.2,149.6,104.8,149.6S320,271.2,320,188S272.8,38.4,215.2,38.4z"/>
</g>
<path style="fill:#86BDD1;" d="M215.2,337.6c-57.6,0-104.8-67.2-104.8-149.6S157.6,38.4,215.2,38.4S320,105.6,320,188
	S272.8,337.6,215.2,337.6z"/>
<g>
	<path style="fill:#D8D8D8;" d="M283.2,342.4l-4,2.4c-12,9.6-25.6,16-40,20l0,0c-2.4,0.8-4.8,0.8-7.2,1.6h-0.8l-6.4,0.8h-1.6
		c-2.4,0-4.8,0-8,0v53.6h128L283.2,342.4z"/>
	<path style="fill:#D8D8D8;" d="M320,188c0,83.2-47.2,149.6-104.8,149.6V368c2.4,0,4.8,0,8,0h1.6l6.4-0.8h1.6c2.4,0,4.8-0.8,7.2-1.6
		l0,0c13.6-4,26.4-9.6,37.6-18.4l2.4-1.6c40-31.2,67.2-89.6,67.2-156.8C346.4,88.8,287.2,8,215.2,8v30.4
		C272.8,38.4,320,105.6,320,188z"/>
	<path style="fill:#D8D8D8;" d="M239.2,365.6c14.4-4,28-10.4,40-20l-2.4,1.6C265.6,355.2,252.8,361.6,239.2,365.6z"/>
</g>
<path style="fill:#6197AA;" d="M320,188c0-82.4-47.2-149.6-104.8-149.6v299.2C272.8,337.6,320,271.2,320,188z"/>
<g>
	<path style="fill:#1F2E3A;" d="M354.4,188C354.4,84,292,0,215.2,0S76,84.8,76,188c0,64,24,120.8,60.8,155.2l-55.2,74.4
		c-2.4,3.2-1.6,8.8,1.6,11.2c1.6,0.8,3.2,1.6,4.8,1.6h256c4.8,0,8-3.2,8-8c0-1.6-0.8-3.2-1.6-4.8l-56-74.4
		C330.4,309.6,354.4,252.8,354.4,188z M327.2,414.4h-224l45.6-60.8c39.2,30.4,93.6,30.4,132.8,0L327.2,414.4z M215.2,360
		C147.2,360,92,282.4,92,188S147.2,16,215.2,16s123.2,77.6,123.2,172S283.2,360,215.2,360z"/>
	<path style="fill:#1F2E3A;" d="M215.2,30.4c-62.4,0-112.8,71.2-112.8,157.6s50.4,157.6,112.8,157.6S328,275.2,328,188
		S277.6,30.4,215.2,30.4z M215.2,329.6c-52.8,0-96.8-64-96.8-141.6s44-141.6,96.8-141.6S312,110.4,312,188S268.8,329.6,215.2,329.6z
		"/>
</g>
<g>
</g>
<g>
</g>
<g>
</g>
<g>
</g>
<g>
</g>
<g>
</g>
<g>
</g>
<g>
</g>
<g>
</g>
<g>
</g>
<g>
</g>
<g>
</g>
<g>
</g>
<g>
</g>
<g>
</g>
</svg>
