<svg height="512" viewBox="0 0 192 192" width="512" xmlns="http://www.w3.org/2000/svg" xmlns:xlink="http://www.w3.org/1999/xlink"><linearGradient id="New_Gradient_Swatch_2" gradientUnits="userSpaceOnUse" x1="60.004" x2="163.043" y1="156.423" y2="53.385"><stop offset="0" stop-color="#34cdfa"/><stop offset="1" stop-color="#e8d9f1"/></linearGradient><path d="m137.789 68.422c-6.478-3.239-9.348-7.98-8.081-13.349a15.093 15.093 0 0 1 14.292-11.073 4 4 0 0 0 1.789-7.578c-8.53-4.265-25.352-6.635-43.7-2.316-14.889 3.501-35.554 12.561-49.519 35.836-8.883 14.806-9.39 48.791-1.062 71.3 4.455 12.045 11.1 19.842 19.227 22.55a4 4 0 0 0 1.265.208h72a4 4 0 0 0 1.265-.205c1.091-.364 26.735-9.309 26.735-43.795 0-21.585-12.789-40.867-34.211-51.578z" fill="url(#New_Gradient_Swatch_2)"/><path d="m189.494 148.157c-4.619-5.766-16.024-14.892-37.494-4.157-16 8-24 8-24 8h-30.343a4 4 0 0 1 -2.829-1.172l-16-16a4 4 0 0 1 2.829-6.828h14.343c18.364 0 22.676-18.735 23.689-27.535a4 4 0 0 0 -3.974-4.465h-59.315a3.971 3.971 0 0 0 -.784.078l-39.224 7.844a3.971 3.971 0 0 1 -.792.078h-15.6v56h15.179a4.007 4.007 0 0 1 1.576.323l54.49 23.354a4.007 4.007 0 0 0 1.576.323h62.117a4 4 0 0 0 1.984-.527l51.406-29.373a3.987 3.987 0 0 0 1.166-5.943z" fill="#ccf2fe"/><g fill="#99e6fd"><path d="m89 120h-14.343a4 4 0 0 0 -2.829 6.828l5.881 5.881a4.008 4.008 0 0 1 3.948-4.709h14.343c18.364 0 22.676-18.735 23.689-27.535a4 4 0 0 0 -3.974-4.465h-3.551c-1.721 9.478-6.995 24-23.164 24z"/><path d="m181.864 141.792-44.942 25.681a4 4 0 0 1 -1.984.527h-62.117a4.007 4.007 0 0 1 -1.576-.323l-54.49-23.354a4.007 4.007 0 0 0 -1.576-.323h-15.179v16h15.179a4.007 4.007 0 0 1 1.576.323l54.49 23.354a4.007 4.007 0 0 0 1.576.323h62.117a4 4 0 0 0 1.984-.527l51.406-29.373a3.987 3.987 0 0 0 1.166-5.941 24.668 24.668 0 0 0 -7.63-6.367z"/></g></svg>