<?xml version="1.0" encoding="iso-8859-1"?>
<!-- Generator: Adobe Illustrator 19.0.0, SVG Export Plug-In . SVG Version: 6.00 Build 0)  -->
<svg version="1.1" id="Capa_1" xmlns="http://www.w3.org/2000/svg" xmlns:xlink="http://www.w3.org/1999/xlink" x="0px" y="0px"
	 viewBox="0 0 417.701 417.701" style="enable-background:new 0 0 417.701 417.701;" xml:space="preserve">
<path style="fill:#9EC6D8;" d="M172.056,310.501c-12.8-8.8-20-24-20-39.2c-0.8-15.2,7.2-30.4,20-38.4l12-7.2v91.2L172.056,310.501z"
	/>
<path style="fill:#86BDD1;" d="M134.456,370.501c-27.2,0-48.8-22.4-48.8-48.8v-126.4l9.6,1.6c5.6,0.8,10.4,1.6,16,1.6h47.2
	c5.6,0,10.4-0.8,16-1.6l9.6-1.6v32.8l-6.4,1.6c-15.2,4-25.6,21.6-25.6,41.6s10.4,37.6,25.6,41.6l6.4,1.6v8
	C183.256,348.901,161.656,370.501,134.456,370.501z"/>
<path style="fill:#FFFFFF;" d="M111.256,198.501c-52.8,0-95.2-43.2-95.2-96s42.4-95.2,95.2-95.2h47.2c52.8,0,95.2,42.4,95.2,95.2
	s-42.4,95.2-95.2,95.2h-47.2V198.501z"/>
<path style="fill:#86BDD1;" d="M232.056,163.301c28.8-35.2,28.8-85.6,0-120.8l-14.4-16.8l22.4,3.2c24.8,4.8,49.6,6.4,75.2,6.4
	c10.4,0,20.8,0,31.2-0.8l8-0.8v136.8l-8-0.8c-10.4-0.8-20.8-0.8-31.2-0.8c-25.6,0-50.4,1.6-75.2,6.4l-21.6,4L232.056,163.301z"/>
<path style="fill:#FFFFFF;" d="M363.256,172.101c-4.8,0-8.8-4-8.8-8.8v-120.8c0-4,3.2-8,7.2-8.8h1.6h28c4.8,0,8.8,4,8.8,8.8v120.8
	c0,4.8-4,8.8-8.8,8.8L363.256,172.101z"/>
<path style="fill:#6197AA;" d="M158.456,198.501h-23.2v172.8c27.2,0,49.6-21.6,49.6-48.8l0,0v-8l-6.4-2.4
	c-15.2-4-25.6-21.6-25.6-41.6s10.4-37.6,25.6-41.6l6.4-1.6v-32.8l-9.6,1.6C169.656,197.701,164.056,197.701,158.456,198.501z"/>
<path style="fill:#D8D8D8;" d="M354.456,99.301v64c0,4.8,4,8.8,8.8,8.8h28c4.8,0,8.8-4,8.8-8.8v-64H354.456z"/>
<path style="fill:#6197AA;" d="M253.656,99.301c0,0.8,0,2.4,0,3.2c0,22.4-8,43.2-21.6,60.8l-14.4,16.8l22.4-4
	c24.8-4.8,50.4-6.4,75.2-6.4c10.4,0,20.8,0,31.2,0.8l8,0.8v-72L253.656,99.301L253.656,99.301z"/>
<path style="fill:#D8D8D8;" d="M16.056,102.501c0,52.8,42.4,95.2,95.2,96h47.2c52.8,0,95.2-43.2,95.2-96c0-0.8,0-2.4,0-3.2h-237.6
	C16.056,100.101,16.056,101.701,16.056,102.501z"/>
<g>
	<path style="fill:#1F2E3A;" d="M210.456,94.501h-58.4c-4.8,0-8,3.2-8,8s3.2,8,8,8h58.4c4.8,0,8-3.2,8-8
		S215.256,94.501,210.456,94.501L210.456,94.501z"/>
	<path style="fill:#1F2E3A;" d="M391.256,25.701h-28.8c-0.8,0-104,10.4-158.4-15.2l0,0c-14.4-7.2-29.6-11.2-45.6-10.4h-47.2
		c-56.8-0.8-103.2,46.4-102.4,103.2c0,43.2,28,82.4,68.8,96.8v121.6c0,28.8,20.8,52.8,48.8,56.8v31.2c0,4.8,3.2,8,8,8s8-3.2,8-8
		v-31.2c28-4,49.6-28,49.6-56.8v-121.6c4-1.6,8-3.2,12-4.8h0.8c54.4-25.6,157.6-15.2,158.4-15.2h28.8c9.6,0,16.8-7.2,16.8-16.8
		v-120.8C408.056,32.901,400.856,25.701,391.256,25.701z M176.056,303.301c-10.4-7.2-16-19.2-15.2-32c-0.8-12.8,4.8-24.8,15.2-32
		V303.301z M176.056,221.701c-17.6,4.8-31.2,24.8-31.2,49.6s13.6,44.8,31.2,48.8v1.6c0,22.4-18.4,40.8-40.8,40.8
		s-40.8-18.4-40.8-40.8v-117.6c5.6,0.8,12,1.6,17.6,1.6h47.2c5.6,0,12-0.8,17.6-1.6L176.056,221.701z M158.456,190.501h-47.2
		c-48,0-87.2-39.2-87.2-87.2s39.2-87.2,87.2-87.2h47.2c48,0,87.2,39.2,87.2,87.2C245.656,151.301,206.456,190.501,158.456,190.501
		L158.456,190.501z M346.456,162.501c-36-2.4-72.8-0.8-108,5.6c31.2-38.4,31.2-92.8,0-131.2c25.6,4.8,51.2,6.4,76.8,6.4
		c12,0,23.2-0.8,32-0.8L346.456,162.501z M392.856,162.501c0,0.8,0,0.8-0.8,0.8h-28c-0.8,0-0.8,0-0.8-0.8v-120c0-0.8,0-0.8,0.8-0.8
		h28c0.8,0,0.8,0,0.8,0.8V162.501z"/>
</g>
<g>
</g>
<g>
</g>
<g>
</g>
<g>
</g>
<g>
</g>
<g>
</g>
<g>
</g>
<g>
</g>
<g>
</g>
<g>
</g>
<g>
</g>
<g>
</g>
<g>
</g>
<g>
</g>
<g>
</g>
</svg>
