<?xml version="1.0" encoding="iso-8859-1"?>
<!-- Generator: Adobe Illustrator 19.0.0, SVG Export Plug-In . SVG Version: 6.00 Build 0)  -->
<svg version="1.1" id="Capa_1" xmlns="http://www.w3.org/2000/svg" xmlns:xlink="http://www.w3.org/1999/xlink" x="0px" y="0px"
	 viewBox="0 0 512 512" style="enable-background:new 0 0 512 512;" xml:space="preserve">
<path style="fill:#303C42;" d="M461.667,128h-35V96c0-5.896-4.771-10.667-10.667-10.667h-10.667V10.667
	C405.333,4.771,400.563,0,394.667,0h-85.333c-5.896,0-10.667,4.771-10.667,10.667v74.667H288h-21.333
	c-108.538,0-197.164,85.831-202.185,193.148C26.025,286.341,0,337.557,0,384c0,50.24,30.708,85.333,74.667,85.333
	S149.333,434.24,149.333,384c0-46.056-25.6-96.779-63.53-105.288c4.883-95.661,84.009-172.046,180.863-172.046h10.667V128h-35
	C214.583,128,192,150.583,192,178.333c0,0.115,0,0.229,0.01,0.344l19.354,293.49C212.844,494.5,231.552,512,253.938,512h196.125
	c22.385,0,41.094-17.5,42.573-39.833l19.167-287.708l0.198-6.125C512,150.583,489.417,128,461.667,128z"/>
<path style="fill:#DFE1DF;" d="M128,384c0,38.281-21.438,64-53.333,64s-53.333-25.719-53.333-64
	c0-43.865,25.917-85.333,53.333-85.333S128,340.135,128,384z"/>
<path style="opacity:0.1;enable-background:new    ;" d="M109.906,322.587c4.543,12.305,7.427,25.984,7.427,40.079
	c0,38.281-21.438,64-53.333,64c-16.388,0-29.938-6.875-39.315-18.668C31.798,432.582,50.053,448,74.667,448
	C106.563,448,128,422.281,128,384C128,360.9,120.715,338.652,109.906,322.587z"/>
<rect x="320" y="21.333" style="fill:#797D82;" width="64" height="64"/>
<rect x="320" y="21.333" style="opacity:0.2;fill:#FFFFFF;enable-background:new    ;" width="10.667" height="64"/>
<rect x="373.333" y="21.333" style="opacity:0.1;enable-background:new    ;" width="10.667" height="64"/>
<rect x="298.667" y="106.667" style="fill:#797D82;" width="106.667" height="21.333"/>
<rect x="298.667" y="106.667" style="opacity:0.2;fill:#FFFFFF;enable-background:new    ;" width="10.667" height="21.333"/>
<rect x="394.667" y="106.667" style="opacity:0.1;enable-background:new    ;" width="10.667" height="21.333"/>
<path style="fill:#797D82;" d="M471.344,470.75c-0.74,11.167-10.083,19.917-21.281,19.917H253.938
	c-11.198,0-20.542-8.75-21.281-19.917L213.51,183.771l-0.177-5.594c0.083-15.917,13.063-28.844,29-28.844h219.333
	c15.99,0,29,13.01,29.01,28.656L471.344,470.75z"/>
<path style="opacity:0.1;enable-background:new    ;" d="M461.667,149.333h-25.314c12.298,0,22.306,13.01,22.314,28.656
	l-14.871,292.76c-0.568,11.167-7.755,19.917-16.368,19.917h22.635c11.198,0,20.542-8.75,21.281-19.917l19.333-292.76
	C490.667,162.344,477.656,149.333,461.667,149.333z"/>
<path style="opacity:0.2;fill:#FFFFFF;enable-background:new    ;" d="M260.206,470.75L245.48,183.771l-0.137-5.594
	c0.064-15.917,10.047-28.844,22.306-28.844h-25.316c-15.938,0-28.917,12.927-29,28.844l0.177,5.594l19.146,286.979
	c0.74,11.167,10.083,19.917,21.281,19.917h22.638C267.962,490.667,260.775,481.917,260.206,470.75z"/>
<circle style="fill:#303C42;" cx="352" cy="53.333" r="21.333"/>
<linearGradient id="SVGID_1_" gradientUnits="userSpaceOnUse" x1="-42.6584" y1="638.5699" x2="-21.4446" y2="628.6785" gradientTransform="matrix(21.3333 0 0 -21.3333 996.3334 13791.667)">
	<stop  offset="0" style="stop-color:#FFFFFF;stop-opacity:0.2"/>
	<stop  offset="1" style="stop-color:#FFFFFF;stop-opacity:0"/>
</linearGradient>
<path style="fill:url(#SVGID_1_);" d="M461.667,128h-35V96c0-5.896-4.771-10.667-10.667-10.667h-10.667V10.667
	C405.333,4.771,400.563,0,394.667,0h-85.333c-5.896,0-10.667,4.771-10.667,10.667v74.667H288h-21.333
	c-108.538,0-197.164,85.831-202.185,193.148C26.025,286.341,0,337.557,0,384c0,50.24,30.708,85.333,74.667,85.333
	S149.333,434.24,149.333,384c0-46.056-25.6-96.779-63.53-105.288c4.883-95.661,84.009-172.046,180.863-172.046h10.667V128h-35
	C214.583,128,192,150.583,192,178.333c0,0.115,0,0.229,0.01,0.344l19.354,293.49C212.844,494.5,231.552,512,253.938,512h196.125
	c22.385,0,41.094-17.5,42.573-39.833l19.167-287.708l0.198-6.125C512,150.583,489.417,128,461.667,128z"/>
<g>
</g>
<g>
</g>
<g>
</g>
<g>
</g>
<g>
</g>
<g>
</g>
<g>
</g>
<g>
</g>
<g>
</g>
<g>
</g>
<g>
</g>
<g>
</g>
<g>
</g>
<g>
</g>
<g>
</g>
</svg>
