<?xml version="1.0" encoding="iso-8859-1"?>
<!-- Generator: Adobe Illustrator 19.0.0, SVG Export Plug-In . SVG Version: 6.00 Build 0)  -->
<svg version="1.1" id="Capa_1" xmlns="http://www.w3.org/2000/svg" xmlns:xlink="http://www.w3.org/1999/xlink" x="0px" y="0px"
	 viewBox="0 0 436.8 436.8" style="enable-background:new 0 0 436.8 436.8;" xml:space="preserve">
<path style="fill:#B9D9EA;" d="M215.699,146.4c-35.2,0-68.8-12-96.8-33.6L96.499,96l28,3.2c17.6,1.6,34.4,2.4,50.4,2.4
	c40.8,0,95.2-5.6,119.2-32.8c3.2-4,6.4-8.8,8-13.6l15.2,3.2c0.8,15.2-2.4,31.2-8.8,44.8c-11.2,20-29.6,34.4-52,39.2
	C243.699,144.8,229.299,146.4,215.699,146.4z"/>
<path style="fill:#9EC6D8;" d="M270.899,428.8c-16.8-1.6-32.8-8.8-44-21.6c-0.8,0.8-19.2,21.6-44,21.6c-8.8,0-16.8-2.4-24-6.4
	c-4.8-2.4-8.8-6.4-12-10.4l8-12.8c1.6,0.8,3.2,0.8,4.8,0.8c10.4,0,17.6-9.6,24.8-19.2c3.2-4,6.4-8,9.6-12c4-4,8.8-6.4,14.4-6.4
	c6.4,0,12.8,2.4,17.6,6.4c5.6-4,11.2-5.6,17.6-6.4c5.6,0,10.4,2.4,14.4,6.4c3.2,4,7.2,8,9.6,12c8,9.6,15.2,19.2,24.8,19.2
	c1.6,0,3.2,0,5.6-0.8l8.8,12.8c-3.2,4-8,7.2-12.8,10.4C286.899,426.4,278.899,428.8,270.899,428.8L270.899,428.8z"/>
<path style="fill:#B9D9EA;" d="M176.499,100.8c-20,0-40.8-1.6-60.8-4l-12.8-1.6l7.2-10.4c10.4-16.8,24.8-26.4,40.8-26.4
	c5.6,0,12,0.8,20,0.8c10.4,0.8,22.4,1.6,35.2,1.6c17.6,0,64,0,86.4-30.4l16-21.6l-2.4,28c0,11.2-4.8,22.4-12,31.2
	C274.899,89.6,235.699,100.8,176.499,100.8L176.499,100.8z"/>
<path style="fill:#9EC6D8;" d="M81.299,249.6c-9.6-48-3.2-97.6,16.8-141.6l4.8-9.6l8,7.2c28.8,25.6,66.4,40,104.8,40.8
	c13.6,0,28-1.6,41.6-5.6c22.4-4.8,40.8-19.2,52-39.2c9.6-20.8,11.2-44,6.4-66.4l-4.8-27.2l18.4,20.8c15.2,16.8,29.6,44.8,12,87.2
	c2.4,0.8,5.6,0.8,8,0.8c10.4,0,20-4.8,26.4-12l12.8-14.4l0.8,19.2c1.6,31.2-3.2,88.8-55.2,128l-7.2,4.8l-4-8
	c-8-14.4-28.8-48-58.4-48c-4.8,0-10.4,0-15.2,0s-11.2,0-16.8,0c-40,1.6-78.4-13.6-107.2-42.4c0.8,14.4-0.8,28.8-4.8,42.4
	c-0.8,2.4-2.4,5.6-4,9.6c-8,17.6-14.4,35.2-20,54.4L81.299,249.6z"/>
<path style="fill:#B9D9EA;" d="M62.899,237.6c-16.8-36-20.8-67.2-12.8-90.4c5.6-16,16.8-29.6,32-36.8l20-11.2l-8.8,20.8
	c-15.2,36-20,75.2-15.2,113.6L62.899,237.6z"/>
<g>
	<path style="fill:#1F2E3A;" d="M302.099,372c-4-2.4-8.8-1.6-11.2,1.6s-1.6,8.8,1.6,11.2c4,3.2,4.8,4.8,4.8,5.6
		c-0.8,0.8-0.8,1.6-1.6,1.6c-0.8,0-1.6,0-2.4,0c-6.4,0-12-8-18.4-16c-3.2-4-7.2-8.8-10.4-12.8c-5.6-5.6-12.8-8.8-20-8.8
		c-6.4,0-12,1.6-17.6,4.8c-5.6-3.2-11.2-4.8-17.6-4.8c-7.2,0-15.2,3.2-20,8.8c-4,4-7.2,8-10.4,12.8c-6.4,8-12.8,16-18.4,16
		c-0.8,0-1.6,0-2.4,0c-0.8-0.8-1.6-0.8-1.6-1.6c0-0.8,0.8-2.4,4.8-5.6c4-2.4,4.8-7.2,1.6-11.2s-7.2-4.8-11.2-1.6
		c-1.6,1.6-18.4,12.8-17.6,29.6c0,10.4,7.2,20,20.8,27.2c8,4.8,17.6,8,28,8c16.8-0.8,32-7.2,44-18.4c12,11.2,28,17.6,44,18.4l0,0
		c9.6,0,19.2-3.2,28-8c13.6-8,20.8-16.8,20.8-27.2C320.499,384.8,303.699,372.8,302.099,372z M290.899,415.2
		c-6.4,3.2-12.8,5.6-20,5.6l0,0c-21.6,0-38.4-19.2-38.4-19.2c-1.6-1.6-4-2.4-6.4-2.4s-4.8,0.8-6.4,2.4c0,0-16.8,19.2-38.4,19.2
		c-7.2,0-13.6-1.6-20-5.6c-4-2.4-7.2-4.8-10.4-8c2.4,0.8,4.8,0.8,7.2,0.8c13.6,0,22.4-11.2,31.2-22.4c3.2-4,6.4-8,9.6-11.2
		c2.4-2.4,5.6-4,8.8-4c4.8,0,9.6,1.6,12.8,4.8c3.2,2.4,6.4,2.4,9.6,0c4-2.4,8-4,12.8-4.8c3.2,0,6.4,1.6,8.8,4
		c3.2,3.2,6.4,7.2,9.6,11.2c8.8,11.2,17.6,22.4,31.2,22.4c2.4,0,4.8,0,7.2-0.8C298.099,410.4,294.899,412.8,290.899,415.2z"/>
	<path style="fill:#1F2E3A;" d="M387.699,77.6c-3.2,0-6.4,1.6-8,4.8c-8,19.2-18.4,24.8-27.2,25.6c18.4-60-22.4-92.8-40-103.2l0,0
		c-2.4-1.6-4.8-3.2-7.2-4h-0.8c-0.8,0-1.6-0.8-2.4-0.8h-1.6c-0.8,0-0.8,0-1.6,0h-0.8h-0.8l0.8,1.6c-0.8,0-0.8,0.8-1.6,1.6l-0.8,0.8
		c0,0.8-0.8,0.8-0.8,1.6v0.8c-7.2,32-36,47.2-88.8,47.2c-12.8,0-24-0.8-35.2-1.6c-8-0.8-15.2-0.8-20-0.8c-33.6,0-50.4,32.8-54.4,44
		c-28,9.6-45.6,26.4-53.6,49.6c-20,61.6,41.6,146.4,44,149.6l0,0c0.8,0.8,1.6,1.6,2.4,2.4h0.8c0.8,0.8,2.4,0.8,3.2,0.8
		s1.6,0,3.2-0.8l0,0l0,0c0.8,0,0.8-0.8,1.6-1.6h0.8c0.8-0.8,1.6-1.6,1.6-2.4V292c0-0.8,0.8-1.6,0.8-2.4s0-1.6,0-2.4
		c-5.6-20.8,15.2-68,24-88c1.6-4,3.2-7.2,4-9.6c3.2-8.8,4.8-18.4,4.8-28c28,22.4,63.2,34.4,98.4,32.8c5.6,0,12,0,17.6,0
		s10.4,0,15.2,0c32.8,0,55.2,51.2,55.2,51.2c1.6,4,6.4,5.6,10.4,4c-0.8,0.8-0.8,0.8,0,0.8c88-56.8,64-164,64-164.8
		C394.099,81.6,390.899,78.4,387.699,77.6z M300.499,72.8c4-4.8,7.2-10.4,9.6-16c0.8,14.4-1.6,28-8,40.8
		c-9.6,17.6-27.2,30.4-47.2,34.4c-45.6,12-93.6,2.4-131.2-26.4c12.8,1.6,31.2,2.4,51.2,2.4
		C220.499,108.8,274.899,102.4,300.499,72.8L300.499,72.8z M150.099,67.2c4.8,0,12,0.8,19.2,0.8c10.4,0.8,23.2,1.6,36,1.6
		c18.4,0,68,0,92.8-33.6c0,9.6-4,19.2-10.4,26.4c-33.6,39.2-136.8,31.2-172,27.2C122.899,76.8,135.699,68,150.099,67.2L150.099,67.2
		z M57.299,149.6c4.8-14.4,14.4-25.6,28-32.8c-15.2,37.6-20,77.6-15.2,117.6C58.099,208,48.499,176,57.299,149.6z M330.099,230.4
		c-8.8-16.8-32-52-65.6-52c-4.8,0-10.4,0-16,0c-34.4,0.8-72.8,2.4-117.6-40c-3.2-3.2-8-3.2-11.2,0c-1.6,1.6-2.4,4-2.4,5.6
		c0.8,12.8-0.8,26.4-4,39.2c-0.8,2.4-2.4,5.6-4,9.6c-8,17.6-15.2,36-20.8,55.2c-8.8-46.4-3.2-93.6,16.8-136
		c30.4,27.2,69.6,41.6,110.4,42.4c14.4,0,29.6-2.4,43.2-5.6c24-5.6,45.6-20.8,56.8-43.2c10.4-22.4,12.8-47.2,7.2-71.2
		c14.4,15.2,26.4,40.8,10.4,78.4c-1.6,4,0,8.8,4.8,10.4l0,0c3.2,0.8,7.2,1.6,11.2,1.6c12,0,24-5.6,32-15.2
		C383.699,139.2,379.699,194.4,330.099,230.4z"/>
</g>
<g>
</g>
<g>
</g>
<g>
</g>
<g>
</g>
<g>
</g>
<g>
</g>
<g>
</g>
<g>
</g>
<g>
</g>
<g>
</g>
<g>
</g>
<g>
</g>
<g>
</g>
<g>
</g>
<g>
</g>
</svg>
