<?xml version="1.0" encoding="iso-8859-1"?>
<!-- Generator: Adobe Illustrator 19.0.0, SVG Export Plug-In . SVG Version: 6.00 Build 0)  -->
<svg version="1.1" id="Capa_1" xmlns="http://www.w3.org/2000/svg" xmlns:xlink="http://www.w3.org/1999/xlink" x="0px" y="0px"
	 viewBox="0 0 469.333 469.333" style="enable-background:new 0 0 469.333 469.333;" xml:space="preserve">
<path style="fill:#303C42;" d="M458.667,191.986H448v-32c0-5.896-4.771-10.667-10.667-10.667h-13.945
	c-22.436-47.979-94.98-83.809-216.138-106.49c-4.729-0.792-9.625,1.604-11.667,6.052c-2.021,4.458-0.771,9.729,3.063,12.781
	c0.563,0.458,0.958,0.823,1.208,1c-2.917,4.188-18.729,13.844-53.375,20.365c-54.09,10.18-89.724,39.599-100.671,66.292H32
	c-5.896,0-10.667,4.771-10.667,10.667v32H10.667C4.771,191.986,0,196.757,0,202.653v181.333c0,23.531,19.146,42.667,42.667,42.667
	h384c23.521,0,42.667-19.135,42.667-42.667V202.653C469.333,196.757,464.563,191.986,458.667,191.986z"/>
<path style="fill:#FBF2E9;" d="M150.438,103.986c24-4.51,65.063-15.281,70.479-36.729c94.132,19.443,154.802,47.553,177.957,82.063
	H69.749C81.728,130.985,110.017,111.598,150.438,103.986z"/>
<path style="opacity:0.2;fill:#FFFFFF;enable-background:new    ;" d="M174.328,103.986c16.935-4.451,45.642-15.04,50.129-35.922
	c-1.224-0.258-2.305-0.552-3.54-0.807c-5.417,21.448-46.479,32.219-70.479,36.729c-40.421,7.612-68.71,26.999-80.689,45.333h46.874
	C125.189,130.985,145.421,111.598,174.328,103.986z"/>
<path style="opacity:0.1;enable-background:new    ;" d="M234.311,70.313C296.023,89.604,336.262,116.524,352,149.32h46.874
	C376.868,116.524,320.602,89.604,234.311,70.313z"/>
<rect x="42.667" y="170.645" style="fill:#D7A580;" width="384" height="21.333"/>
<rect x="42.667" y="170.645" style="opacity:0.2;fill:#FFFFFF;enable-background:new    ;" width="21.333" height="21.333"/>
<rect x="405.333" y="170.645" style="opacity:0.1;enable-background:new    ;" width="21.333" height="21.333"/>
<path style="fill:#D7A580;" d="M448,383.986c0,11.76-9.563,21.333-21.333,21.333h-384c-11.771,0-21.333-9.573-21.333-21.333V213.32
	H448V383.986z"/>
<path style="opacity:0.1;enable-background:new    ;" d="M426.667,213.32v115.84c0,30.28-24.547,54.826-54.826,54.826H21.333
	c0,11.76,9.563,21.333,21.333,21.333h384c11.782,0,21.333-9.551,21.333-21.333V213.32H426.667z"/>
<path style="fill:#303C42;" d="M354.771,267.143c-4.646-1.26-9.625,0.813-12.063,4.958c-0.271,0.427-6.5,10.552-24.833,10.552
	c-9.521,0-13.292-2.583-18.542-6.146c-6.438-4.396-14.458-9.854-30.542-9.854c-14.603,0-26.297,4.948-34.125,13.426
	c-7.828-8.478-19.522-13.426-34.125-13.426c-16.083,0-24.104,5.458-30.542,9.854c-5.25,3.563-9.021,6.146-18.542,6.146
	c-18.333,0-24.563-10.125-24.708-10.354c-2.313-4.313-7.25-6.49-11.979-5.333c-4.729,1.167-8.063,5.406-8.104,10.281
	c0,1.219,0.063,30.115,21.604,51.813c15.125,15.219,36.563,22.927,63.729,22.927c18.921,0,33.512-7.406,42.667-17.516
	c9.155,10.109,23.746,17.516,42.667,17.516c84.354,0,85.333-73.917,85.333-74.667C362.667,272.518,359.396,268.424,354.771,267.143z
	"/>
<g>
	<path style="fill:#BF6A1E;" d="M192,330.653c-34.604,0-50.521-14.906-57.813-29.021c4.938,1.448,10.667,2.354,17.271,2.354
		c16.083,0,24.104-5.458,30.542-9.854c5.25-3.563,9.021-6.146,18.542-6.146c15.563,0,23.458,7.177,23.458,21.333
		C224,319.622,211.146,330.653,192,330.653z"/>
	<path style="fill:#BF6A1E;" d="M277.333,330.653c-19.146,0-32-11.031-32-21.333c0-14.156,7.896-21.333,23.458-21.333
		c9.521,0,13.292,2.583,18.542,6.146c6.438,4.396,14.458,9.854,30.542,9.854c6.458,0,12.083-0.865,16.958-2.26
		C327.375,315.778,311.458,330.653,277.333,330.653z"/>
</g>
<g>
	<path style="opacity:0.2;fill:#FFFFFF;enable-background:new    ;" d="M143.513,314.109c2.518,0.305,5.112,0.544,7.945,0.544
		c16.083,0,24.104-5.458,30.542-9.854c5.25-3.563,9.021-6.146,18.542-6.146c12.645,0,19.951,4.983,22.35,14.353
		c0.359-1.237,1.108-2.451,1.108-3.686c0-14.156-7.896-21.333-23.458-21.333c-9.521,0-13.292,2.583-18.542,6.146
		c-6.438,4.396-14.458,9.854-30.542,9.854c-6.604,0-12.333-0.906-17.271-2.354C136.38,305.877,139.487,310.148,143.513,314.109z"/>
	<path style="opacity:0.2;fill:#FFFFFF;enable-background:new    ;" d="M273.271,298.653c9.521,0,13.292,2.583,18.542,6.146
		c6.438,4.396,14.458,9.854,30.542,9.854c0.971,0,1.794-0.145,2.728-0.182c4.204-4.034,7.448-8.405,9.751-12.745
		c-4.875,1.396-10.5,2.26-16.958,2.26c-16.083,0-24.104-5.458-30.542-9.854c-5.25-3.563-9.021-6.146-18.542-6.146
		c-15.563,0-23.458,7.177-23.458,21.333c0,3.473,1.905,6.878,4.574,10.065C250.159,305.679,257.96,298.653,273.271,298.653z"/>
</g>
<linearGradient id="SVGID_1_" gradientUnits="userSpaceOnUse" x1="-66.432" y1="616.0583" x2="-44.8962" y2="606.0089" gradientTransform="matrix(21.3333 0 0 -21.3333 1430.1112 13315.2227)">
	<stop  offset="0" style="stop-color:#FFFFFF;stop-opacity:0.2"/>
	<stop  offset="1" style="stop-color:#FFFFFF;stop-opacity:0"/>
</linearGradient>
<path style="fill:url(#SVGID_1_);" d="M458.667,191.986H448v-32c0-5.896-4.771-10.667-10.667-10.667h-13.945
	c-22.436-47.979-94.98-83.809-216.138-106.49c-4.729-0.792-9.625,1.604-11.667,6.052c-2.021,4.458-0.771,9.729,3.063,12.781
	c0.563,0.458,0.958,0.823,1.208,1c-2.917,4.188-18.729,13.844-53.375,20.365c-54.09,10.18-89.724,39.599-100.671,66.292H32
	c-5.896,0-10.667,4.771-10.667,10.667v32H10.667C4.771,191.986,0,196.757,0,202.653v181.333c0,23.531,19.146,42.667,42.667,42.667
	h384c23.521,0,42.667-19.135,42.667-42.667V202.653C469.333,196.757,464.563,191.986,458.667,191.986z"/>
<g>
</g>
<g>
</g>
<g>
</g>
<g>
</g>
<g>
</g>
<g>
</g>
<g>
</g>
<g>
</g>
<g>
</g>
<g>
</g>
<g>
</g>
<g>
</g>
<g>
</g>
<g>
</g>
<g>
</g>
</svg>
