<svg height="512" viewBox="0 0 192 192" width="512" xmlns="http://www.w3.org/2000/svg" xmlns:xlink="http://www.w3.org/1999/xlink"><linearGradient id="New_Gradient_Swatch_2" gradientUnits="userSpaceOnUse" x1="127.037" x2="160.963" y1="64.963" y2="31.037"><stop offset="0" stop-color="#34cdfa"/><stop offset="1" stop-color="#e8d9f1"/></linearGradient><path d="m128 192h-16a24.027 24.027 0 0 1 -24-24v-8a8.009 8.009 0 0 0 -8-8h-80v-16h80a24.027 24.027 0 0 1 24 24v8a8.009 8.009 0 0 0 8 8h16a8.009 8.009 0 0 0 8-8v-16h16v16a24.027 24.027 0 0 1 -24 24z" fill="#01c0f9"/><path d="m112 112h16v16h-16z" fill="#ccf2fe"/><path d="m175.053 76.225a8 8 0 0 0 -7.053-4.225h-24a8 8 0 0 0 -6.656 3.563c-17.144 25.719-17.344 74.378-17.344 76.437a8 8 0 0 0 8 8h32a8 8 0 0 0 7.892-9.311c-2.069-12.5-4.887-48.774 6.764-66.251a8 8 0 0 0 .397-8.213z" fill="#99e6fd"/><path d="m136 152c0-2.059.2-50.718 17.344-76.437a8 8 0 0 1 6.656-3.563h-16a8 8 0 0 0 -6.656 3.563c-17.144 25.719-17.344 74.378-17.344 76.437a8 8 0 0 0 8 8h16a8 8 0 0 1 -8-8z" fill="#67d9fb"/><path d="m144 0c-21.028 0-35.541 9.017-47.2 16.263-6.685 4.152-12.455 7.737-16.8 7.737-13.84 0-28.289-7.089-28.422-7.155a8.076 8.076 0 0 0 -11.578 7.155v48a8.076 8.076 0 0 0 11.578 7.155c3.98-1.99 16.846-7.155 28.422-7.155 4.345 0 10.115 3.585 16.8 7.737 11.659 7.246 26.172 16.263 47.2 16.263 22.143 0 48-12.571 48-48s-25.857-48-48-48z" fill="#e6f9fe"/><path d="m144 80c-21.028 0-35.541-9.017-47.2-16.263-6.685-4.152-12.455-7.737-16.8-7.737-11.576 0-24.442 5.165-28.422 7.155a8.076 8.076 0 0 1 -11.578-7.155v16a8.076 8.076 0 0 0 11.578 7.155c3.98-1.99 16.846-7.155 28.422-7.155 4.345 0 10.115 3.585 16.8 7.737 11.659 7.246 26.172 16.263 47.2 16.263 22.143 0 48-12.571 48-48a65.141 65.141 0 0 0 -.492-8c-3.608 29.331-27.124 40-47.508 40z" fill="#ccf2fe"/><circle cx="144" cy="48" fill="url(#New_Gradient_Swatch_2)" r="24"/><g fill="#99e6fd"><path d="m0 16h24v16h-24z"/><path d="m0 40h24v16h-24z"/><path d="m0 64h24v16h-24z"/></g></svg>