<svg height="512" viewBox="0 0 192 192" width="512" xmlns="http://www.w3.org/2000/svg" xmlns:xlink="http://www.w3.org/1999/xlink"><linearGradient id="New_Gradient_Swatch_2" gradientUnits="userSpaceOnUse" x1="39.32" x2="100.376" y1="70.19" y2="9.134"><stop offset="0" stop-color="#34cdfa"/><stop offset="1" stop-color="#e8d9f1"/></linearGradient><linearGradient id="New_Gradient_Swatch_2-2" x1="35.87" x2="129.91" xlink:href="#New_Gradient_Swatch_2" y1="124.13" y2="30.09"/><linearGradient id="New_Gradient_Swatch_2-3" x1="71.957" x2="157.152" xlink:href="#New_Gradient_Swatch_2" y1="157.435" y2="72.239"/><linearGradient id="New_Gradient_Swatch_2-4" x1="126.848" x2="149.717" xlink:href="#New_Gradient_Swatch_2" y1="149.717" y2="126.848"/><path d="m176 192h-160a8 8 0 0 1 -8-8v-88a8 8 0 0 1 8-8h32v16h-24v72h144v-72h-24v-16h32a8 8 0 0 1 8 8v88a8 8 0 0 1 -8 8z" fill="#34cdfa"/><path d="m96 0a64.072 64.072 0 0 0 -64 64v88a8 8 0 0 0 8 8h112a8 8 0 0 0 8-8v-88a64.072 64.072 0 0 0 -64-64z" fill="#ccf2fe"/><path d="m56 144a8 8 0 0 1 -8-8v-88a63.626 63.626 0 0 1 11.484-36.516 63.961 63.961 0 0 0 -27.484 52.516v88a8 8 0 0 0 8 8h112a8 8 0 0 0 8-8v-8z" fill="#99e6fd"/><path d="m48 144v-80a48 48 0 0 1 96 0v80z" fill="#fff"/><path d="m96 16a48.055 48.055 0 0 0 -48 48v14.87l61.056-61.056a47.811 47.811 0 0 0 -13.056-1.814z" fill="url(#New_Gradient_Swatch_2)"/><path d="m139.818 44.443a48.279 48.279 0 0 0 -24.271-24.251l-67.547 67.547v48.522z" fill="url(#New_Gradient_Swatch_2-2)"/><path d="m143.718 58.8-85.196 85.2h53.739l31.739-31.739v-48.261a48.2 48.2 0 0 0 -.282-5.2z" fill="url(#New_Gradient_Swatch_2-3)"/><path d="m144 144v-22.87l-22.87 22.87z" fill="url(#New_Gradient_Swatch_2-4)"/></svg>