<?xml version="1.0" encoding="iso-8859-1"?>
<!-- Generator: Adobe Illustrator 19.0.0, SVG Export Plug-In . SVG Version: 6.00 Build 0)  -->
<svg version="1.1" id="Capa_1" xmlns="http://www.w3.org/2000/svg" xmlns:xlink="http://www.w3.org/1999/xlink" x="0px" y="0px"
	 viewBox="0 0 426.4 426.4" style="enable-background:new 0 0 426.4 426.4;" xml:space="preserve">
<path style="fill:#86BDD1;" d="M336.413,417.6c-6.4,0-12-3.2-16-8l-302.4-302.4c-8.8-6.4-10.4-19.2-4-28c0.8-0.8,1.6-1.6,2.4-2.4
	s51.2-51.2,62.4-62.4c4-4,8.8-6.4,14.4-6.4c3.2,0,6.4,0.8,8.8,2.4h0.8l8,8l-4.8,6.4l-56,56l297.6,298.4l62.4-62.4l5.6,5.6
	c7.2,7.2,7.2,18.4,0,25.6c-0.8,0.8-0.8,0.8-1.6,1.6c-9.6,10.4-49.6,50.4-62.4,62.4C346.813,415.2,342.013,417.6,336.413,417.6z"/>
<path style="fill:#1F2E3A;" d="M414.013,311.2c-1.6-1.6-3.2-2.4-5.6-2.4l0,0c-2.4,0-4,0.8-5.6,2.4l-56,56l-10.4-10.4l56-56
	c3.2-3.2,4-8,0.8-11.2s-8-4-11.2-0.8l-0.8,0.8l-56,56l-12-12l56-56c3.2-3.2,2.4-8.8-0.8-11.2c-3.2-2.4-7.2-2.4-10.4,0l-56,56
	l-12-11.2l56-56c3.2-3.2,3.2-8,0-11.2s-8-3.2-11.2,0l-56,56l-12-11.2l56-56c3.2-3.2,2.4-8.8-0.8-11.2c-3.2-2.4-7.2-2.4-10.4,0
	l-56,56l-12-12l56-56c3.2-3.2,3.2-8,0.8-11.2c-2.4-3.2-8-3.2-11.2-0.8l-56,56l-12-11.2l56-56c3.2-3.2,4-8,0.8-11.2
	c-3.2-3.2-8-4-11.2-0.8l-0.8,0.8l-56,56l-12-12l56-56c3.2-3.2,2.4-8.8-0.8-11.2c-3.2-2.4-7.2-2.4-10.4,0l-56,56l-12-12l56-56
	c3.2-3.2,4-8,0.8-11.2c-3.2-3.2-8-4-11.2-0.8l-0.8,0.8l-56,56l-12.8-12.8l56-56c3.2-3.2,4-8,0.8-11.2s-8-4-11.2-0.8l-0.8,0.8l-56,56
	l-12-12l56-56c3.2-3.2,4-8,0.8-11.2s-8-4-11.2-0.8l-0.8,0.8l-56,56l-12-12l56-56c3.2-3.2,2.4-8.8-0.8-11.2c-3.2-2.4-7.2-2.4-10.4,0
	l-56,56l-12-12l56-56c3.2-3.2,2.4-8.8-0.8-11.2c-3.2-2.4-7.2-2.4-10.4,0l-56,56l-10.4-10.4l56-56c3.2-3.2,3.2-8,0-11.2l-6.4-6.4
	c-4.8-4.8-11.2-7.2-17.6-7.2c-7.2,0-14.4,3.2-20,8.8c-11.2,10.4-60.8,60-62.4,62.4c-4.8,5.6-8,12-8.8,20c0,8.8,4,16,10.4,22.4
	l302.4,302.4c5.6,6.4,13.6,9.6,21.6,10.4c7.2,0,14.4-3.2,20-8c2.4-2.4,52-51.2,62.4-62.4c10.4-9.6,12-25.6,2.4-36.8
	c0,0,0-0.8-0.8-0.8L414.013,311.2z M406.813,344c-10.4,11.2-61.6,61.6-62.4,62.4c-2.4,2.4-5.6,3.2-8,3.2c-4,0-8-2.4-10.4-5.6
	l-302.4-302.4c-9.6-9.6-4-16-1.6-19.2c0.8-0.8,51.2-51.2,62.4-62.4c2.4-2.4,5.6-4,8.8-4c2.4,0,4.8,0.8,6.4,2.4l0,0l0.8,0.8l-56,56
	c-3.2,3.2-3.2,8,0,11.2l21.6,21.6l45.6,46.4l0,0l46.4,46.4l0,0l69.6,69.6l0,0l23.2,23.2l0,0l69.6,69.6l0,0l21.6,21.6
	c3.2,3.2,8,3.2,11.2,0l56-56l0.8,0.8C410.013,329.6,414.813,335.2,406.813,344z"/>
<g>
</g>
<g>
</g>
<g>
</g>
<g>
</g>
<g>
</g>
<g>
</g>
<g>
</g>
<g>
</g>
<g>
</g>
<g>
</g>
<g>
</g>
<g>
</g>
<g>
</g>
<g>
</g>
<g>
</g>
</svg>
