<?xml version="1.0" encoding="iso-8859-1"?>
<!-- Generator: Adobe Illustrator 19.0.0, SVG Export Plug-In . SVG Version: 6.00 Build 0)  -->
<svg version="1.1" id="Capa_1" xmlns="http://www.w3.org/2000/svg" xmlns:xlink="http://www.w3.org/1999/xlink" x="0px" y="0px"
	 viewBox="0 0 512.001 512.001" style="enable-background:new 0 0 512.001 512.001;" xml:space="preserve">
<path style="fill:#303C42;" d="M418.583,85.657l-224.958-56.24c-21.427-5.365-43.51-8.083-65.625-8.083
	c-70.583,0-128,57.417-128,128c0,37.783,16.549,71.688,42.667,95.137v171.53c0,41.167,33.5,74.667,74.667,74.667
	S192,457.167,192,416.001V269.553c0.535-0.13,1.09-0.168,1.625-0.302l224.958-56.24c4.75-1.188,8.083-5.448,8.083-10.344V96.001
	C426.667,91.105,423.333,86.844,418.583,85.657z"/>
<path style="fill:#A1ABB2;" d="M170.667,416.001c0,29.406-23.927,53.333-53.333,53.333S64,445.407,64,416.001V260.016
	c18.853,10.944,40.673,17.318,64,17.318c14.316,0,28.547-1.555,42.667-3.814V416.001z"/>
<path style="opacity:0.2;fill:#FFFFFF;enable-background:new    ;" d="M85.333,416.001V269.654
	c-7.406-2.658-14.615-5.738-21.333-9.638v155.984c0,29.406,23.927,53.333,53.333,53.333
	C99.69,469.334,85.333,445.407,85.333,416.001z"/>
<path style="opacity:0.1;enable-background:new    ;" d="M149.333,276.278v139.723c0,29.406-14.357,53.333-32,53.333
	c29.406,0,53.333-23.927,53.333-53.333V273.52C163.582,274.654,156.47,275.606,149.333,276.278z"/>
<path style="fill:#C6CDD1;" d="M405.333,194.334l-216.875,54.229c-19.75,4.938-40.083,7.438-60.458,7.438
	c-58.813,0-106.667-47.854-106.667-106.667S69.188,42.667,128,42.667c20.375,0,40.708,2.5,60.458,7.438l216.875,54.229V194.334z"/>
<path style="opacity:0.2;fill:#FFFFFF;enable-background:new    ;" d="M128,64.001c20.375,0,40.708,2,60.458,5.949l216.875,43.384
	v-9L188.458,50.105c-19.75-4.938-40.083-7.438-60.458-7.438c-58.813,0-106.667,47.854-106.667,106.667
	C21.333,102.283,69.188,64.001,128,64.001z"/>
<path style="opacity:0.1;enable-background:new    ;" d="M128,256.001c20.375,0,40.708-2.5,60.458-7.438l216.875-54.229v-9
	l-216.875,43.383c-19.75,3.951-40.083,5.951-60.458,5.951c-58.813,0-106.667-38.284-106.667-85.333
	C21.333,208.146,69.188,256.001,128,256.001z"/>
<g>
	<path style="fill:#303C42;" d="M128,64.001c-47.052,0-85.333,38.281-85.333,85.333S80.948,234.667,128,234.667
		s85.333-38.281,85.333-85.333S175.052,64.001,128,64.001z M128,213.334c-35.292,0-64-28.708-64-64s28.708-64,64-64s64,28.708,64,64
		S163.292,213.334,128,213.334z"/>
	<path style="fill:#303C42;" d="M458.656,117.334c0.854,0,1.729-0.104,2.594-0.323l42.667-10.667
		c5.719-1.427,9.198-7.219,7.76-12.927c-1.427-5.729-7.219-9.208-12.927-7.76l-42.667,10.667c-5.719,1.427-9.198,7.219-7.76,12.927
		C449.531,114.105,453.875,117.334,458.656,117.334z"/>
	<path style="fill:#303C42;" d="M458.667,160.001h42.667c5.896,0,10.667-4.771,10.667-10.667c0-5.896-4.771-10.667-10.667-10.667
		h-42.667c-5.896,0-10.667,4.771-10.667,10.667C448,155.23,452.771,160.001,458.667,160.001z"/>
	<path style="fill:#303C42;" d="M503.917,192.324l-42.667-10.667c-5.74-1.458-11.5,2.031-12.927,7.76
		c-1.438,5.708,2.042,11.5,7.76,12.927l42.667,10.667c0.865,0.219,1.74,0.323,2.594,0.323c4.781,0,9.125-3.229,10.333-8.083
		C513.115,199.542,509.635,193.751,503.917,192.324z"/>
	<path style="fill:#303C42;" d="M85.333,330.667v85.333c0,5.896,4.771,10.667,10.667,10.667h42.667
		c5.896,0,10.667-4.771,10.667-10.667v-85.333c0-5.896-4.771-10.667-10.667-10.667H96C90.104,320.001,85.333,324.771,85.333,330.667
		z"/>
</g>
<rect x="106.667" y="384.001" style="fill:#5F6369;" width="21.333" height="21.333"/>
<rect x="106.667" y="341.334" style="fill:#D5D0CA;" width="21.333" height="21.333"/>
<linearGradient id="SVGID_1_" gradientUnits="userSpaceOnUse" x1="-47.1709" y1="639.8101" x2="-25.9483" y2="629.9138" gradientTransform="matrix(21.3333 0 0 -21.3333 996.3212 13791.6807)">
	<stop  offset="0" style="stop-color:#FFFFFF;stop-opacity:0.2"/>
	<stop  offset="1" style="stop-color:#FFFFFF;stop-opacity:0"/>
</linearGradient>
<path style="fill:url(#SVGID_1_);" d="M418.583,85.657l-224.958-56.24c-21.427-5.365-43.51-8.083-65.625-8.083
	c-70.583,0-128,57.417-128,128c0,37.783,16.549,71.688,42.667,95.137v171.53c0,41.167,33.5,74.667,74.667,74.667
	S192,457.167,192,416.001V269.553c0.535-0.13,1.09-0.168,1.625-0.302l224.958-56.24c4.75-1.188,8.083-5.448,8.083-10.344V96.001
	C426.667,91.105,423.333,86.844,418.583,85.657z M458.656,117.334c0.854,0,1.729-0.104,2.594-0.323l42.667-10.667
	c5.719-1.427,9.198-7.219,7.76-12.927c-1.427-5.729-7.219-9.208-12.927-7.76l-42.667,10.667c-5.719,1.427-9.198,7.219-7.76,12.927
	C449.531,114.105,453.875,117.334,458.656,117.334z M458.667,160.001h42.667c5.896,0,10.667-4.771,10.667-10.667
	c0-5.896-4.771-10.667-10.667-10.667h-42.667c-5.896,0-10.667,4.771-10.667,10.667C448,155.23,452.771,160.001,458.667,160.001z
	 M503.917,192.324l-42.667-10.667c-5.74-1.458-11.5,2.031-12.927,7.76c-1.438,5.708,2.042,11.5,7.76,12.927l42.667,10.667
	c0.865,0.219,1.74,0.323,2.594,0.323c4.781,0,9.125-3.229,10.333-8.083C513.115,199.542,509.635,193.751,503.917,192.324z"/>
<g>
</g>
<g>
</g>
<g>
</g>
<g>
</g>
<g>
</g>
<g>
</g>
<g>
</g>
<g>
</g>
<g>
</g>
<g>
</g>
<g>
</g>
<g>
</g>
<g>
</g>
<g>
</g>
<g>
</g>
</svg>
