<?xml version="1.0" encoding="iso-8859-1"?>
<!-- Generator: Adobe Illustrator 19.0.0, SVG Export Plug-In . SVG Version: 6.00 Build 0)  -->
<svg version="1.1" id="Capa_1" xmlns="http://www.w3.org/2000/svg" xmlns:xlink="http://www.w3.org/1999/xlink" x="0px" y="0px"
	 viewBox="0 0 428 428" style="enable-background:new 0 0 428 428;" xml:space="preserve">
<rect x="178.064" y="159.2" style="fill:#FFFFFF;" width="71.2" height="77.6"/>
<path style="fill:#B9D9EA;" d="M115.664,54.4l4-11.2c4-10.4,12.8-16,27.2-16h134.4c13.6,0,23.2,5.6,27.2,16l4,11.2H115.664z"/>
<g>
	<path style="fill:#FFFFFF;" d="M194.064,420.8c-11.2,0-48.8-3.2-48.8-48.8v-25.6h137.6V372c0,45.6-37.6,48.8-48.8,48.8H194.064z"/>
	<rect x="118.064" y="54.4" style="fill:#FFFFFF;" width="192.8" height="23.2"/>
</g>
<path style="fill:#B9D9EA;" d="M146.864,111.2c-21.6,0-27.2-12.8-28.8-24l-0.8-8.8h194.4l-1.6,8.8c-1.6,11.2-7.2,24-28.8,24H146.864
	z"/>
<path style="fill:#86BDD1;" d="M145.264,346.4V160c0-45.6,38.4-48.8,49.6-48.8h39.2c24,0,48.8,12.8,48.8,48.8v186.4H145.264z
	 M186.064,159.2c-4.8,0-8,3.2-8,8v61.6c0,4.8,3.2,8,8,8h55.2c4.8,0,8-3.2,8-8v-61.6c0-4.8-3.2-8-8-8L186.064,159.2L186.064,159.2z"
	/>
<path style="fill:#D8D8D8;" d="M250.064,228v-61.6c0-4.8-3.2-8-8-8h-28V236h28C246.064,236,250.064,232.8,250.064,228z"/>
<path style="fill:#9EC6D8;" d="M310.064,54.4h1.6l-4-11.2c-4-10.4-12.8-16-27.2-16h-66.4v27.2H310.064z"/>
<g>
	<path style="fill:#D8D8D8;" d="M282.864,372v-25.6h-68.8v74.4h20C245.264,420.8,282.864,416.8,282.864,372z"/>
	<rect x="214.064" y="54.4" style="fill:#D8D8D8;" width="96" height="23.2"/>
</g>
<path style="fill:#9EC6D8;" d="M214.064,111.2h67.2c21.6,0,27.2-12.8,28.8-24l0.8-8.8h-96.8V111.2z"/>
<path style="fill:#6197AA;" d="M214.064,159.2h36v77.6h-36v110.4h68.8V160c0-36-25.6-48.8-48.8-48.8h-20V159.2z"/>
<path style="fill:#86BDD1;" d="M250.064,167.2v61.6c0,4.8-3.2,8-8,8h8v-77.6h-8C246.064,159.2,250.064,162.4,250.064,167.2z"/>
<g>
	<path style="fill:#1F2E3A;" d="M286.064,20V8c0-4.8-3.2-8-8-8s-8,3.2-8,8v12h-16V8c0-4.8-3.2-8-8-8s-8,3.2-8,8v12h-16V8
		c0-4.8-3.2-8-8-8s-8,3.2-8,8v12h-16V8c0-4.8-3.2-8-8-8s-8,3.2-8,8v12h-16V8c0-4.8-3.2-8-8-8s-8,3.2-8,8v12c-20,1.6-32,15.2-32,36.8
		v24.8c-1.6,18.4,12,35.2,31.2,36.8c2.4,0,4,0,6.4,0h4.8c-10.4,11.2-16,25.6-15.2,40.8v212c0,42.4,30.4,56.8,56.8,56.8h40
		c26.4,0,56.8-15.2,56.8-56.8V160c0.8-15.2-4.8-29.6-15.2-40.8h5.6c18.4,1.6,35.2-12,36.8-31.2c0-2.4,0-4,0-6.4V56.8
		C318.064,35.2,306.064,22.4,286.064,20z M146.864,36h134.4c10.4,0,16.8,3.2,19.2,10.4h-173.6C130.064,39.2,136.464,36,146.864,36
		L146.864,36z M274.864,372c0,36-28.8,40.8-40.8,40.8h-40c-12,0-40.8-4-40.8-40.8v-18.4h122.4L274.864,372z M274.864,339.2h-121.6
		V160c0-36.8,28.8-40.8,41.6-40.8h39.2c9.6,0,40.8,3.2,40.8,40.8V339.2z M281.264,103.2h-134.4c-12.8,0-19.2-4.8-20.8-16.8h176
		C301.264,97.6,294.064,103.2,281.264,103.2L281.264,103.2z M302.064,70.4h-176v-8h176.8L302.064,70.4z"/>
	<path style="fill:#1F2E3A;" d="M242.064,151.2h-55.2c-8.8,0-16,7.2-16,16v61.6c0,8.8,7.2,16,16,16h55.2c8.8,0,16-7.2,16-16v-61.6
		C258.064,158.4,250.864,151.2,242.064,151.2z M186.064,228v-61.6h55.2V228H186.064z"/>
</g>
<g>
</g>
<g>
</g>
<g>
</g>
<g>
</g>
<g>
</g>
<g>
</g>
<g>
</g>
<g>
</g>
<g>
</g>
<g>
</g>
<g>
</g>
<g>
</g>
<g>
</g>
<g>
</g>
<g>
</g>
</svg>
