<svg height="512" viewBox="0 0 192 192" width="512" xmlns="http://www.w3.org/2000/svg" xmlns:xlink="http://www.w3.org/1999/xlink"><linearGradient id="New_Gradient_Swatch_2" gradientUnits="userSpaceOnUse" x1="48" x2="144" y1="184" y2="88"><stop offset="0" stop-color="#34cdfa"/><stop offset="1" stop-color="#e8d9f1"/></linearGradient><path d="m120 0h-64a8 8 0 0 0 -5.657 2.343l-16 16 11.314 11.314 13.656-13.657h28.687v24h16v-24h16z" fill="#34cdfa"/><rect fill="#99e6fd" height="40" rx="8" width="48" x="72" y="32"/><path d="m88 64v-24a8 8 0 0 1 8-8h-16a8 8 0 0 0 -8 8v24a8 8 0 0 0 8 8h16a8 8 0 0 1 -8-8z" fill="#67d9fb"/><path d="m153.94 80.239-25.94-6.485v-9.754a8 8 0 0 0 -8-8h-48a8 8 0 0 0 -8 8v9.754l-25.94 6.485a8 8 0 0 0 -6.06 7.761v96a8 8 0 0 0 8 8h112a8 8 0 0 0 8-8v-96a8 8 0 0 0 -6.06-7.761z" fill="#ccf2fe"/><path d="m54.06 88.239 25.94-6.485v-25.754h-8a8 8 0 0 0 -8 8v9.754l-25.94 6.485a8 8 0 0 0 -6.06 7.761v96a8 8 0 0 0 8 8h8v-96a8 8 0 0 1 6.06-7.761z" fill="#99e6fd"/><path d="m32 104h128v64h-128z" fill="url(#New_Gradient_Swatch_2)"/></svg>