<?xml version="1.0" encoding="iso-8859-1"?>
<!-- Generator: Adobe Illustrator 19.0.0, SVG Export Plug-In . SVG Version: 6.00 Build 0)  -->
<svg version="1.1" id="Capa_1" xmlns="http://www.w3.org/2000/svg" xmlns:xlink="http://www.w3.org/1999/xlink" x="0px" y="0px"
	 viewBox="0 0 384.019 384.019" style="enable-background:new 0 0 384.019 384.019;" xml:space="preserve">
<g>
	<path style="fill:#FFFFFF;" d="M178.837,263.919c-8.8,0-17.6-4-23.2-11.2l-108-108c-6.4-5.6-10.4-14.4-11.2-23.2
		c0.8-8.8,4.8-16.8,11.2-23.2l52-52c5.6-6.4,14.4-10.4,23.2-11.2c8.8,0,17.6,4,23.2,11.2l94.4,94.4l3.2,1.6v1.6l10.4,11.2
		c6.4,5.6,10.4,14.4,11.2,23.2c-0.8,8.8-4,16.8-11.2,23.2l-52,52C196.437,259.119,187.637,263.919,178.837,263.919z"/>
	<path style="fill:#FFFFFF;" d="M327.637,340.719c-8,0-14.4-6.4-14.4-14.4c0-4,1.6-7.2,4-10.4c5.6-5.6,14.4-5.6,20,0s5.6,14.4,0,20
		C334.837,339.119,331.637,340.719,327.637,340.719z"/>
	<path style="fill:#FFFFFF;" d="M327.637,319.919c-3.2,0-6.4,3.2-6.4,6.4c0,1.6,0.8,3.2,1.6,4c2.4,2.4,6.4,2.4,8.8,0s2.4-6.4,0-8.8
		C330.837,320.719,329.237,319.919,327.637,319.919z"/>
</g>
<path style="fill:#86BDD1;" d="M338.037,373.519c-9.6,0-19.2-4-26.4-10.4l-109.6-109.6l52.8-52.8l110.4,110.4
	c14.4,14.4,14.4,37.6,0,52.8C358.037,370.319,348.437,374.319,338.037,373.519z M327.637,311.919c-8,0-14.4,6.4-13.6,14.4
	s6.4,14.4,14.4,13.6c8,0,14.4-6.4,13.6-14.4c0-4-1.6-7.2-4-9.6C334.837,313.519,330.837,311.919,327.637,311.919L327.637,311.919z"
	/>
<path style="fill:#6197AA;" d="M338.037,373.519c9.6,0,19.2-4,26.4-10.4c0,0,0.8-0.8,0.8-1.6l-26.4-26.4c-5.6,5.6-14.4,6.4-20,0.8
	s-6.4-14.4-0.8-20l0,0l1.6-0.8l-90.4-89.6l-28,28l110.4,110.4C318.837,370.319,328.437,374.319,338.037,373.519z"/>
<path style="fill:#D8D8D8;" d="M47.637,144.719l108,108c5.6,6.4,14.4,10.4,23.2,11.2c8.8-0.8,16.8-4.8,23.2-11.2l27.2-27.2
	l-154.4-154.4l-27.2,27.2c-6.4,5.6-10.4,14.4-11.2,23.2C37.237,130.319,41.237,139.119,47.637,144.719z"/>
<g>
	<path style="fill:#1F2E3A;" d="M71.637,122.319c-4,5.6-3.2,12.8,2.4,16.8c4,3.2,10.4,3.2,14.4,0c4-5.6,3.2-12.8-2.4-16.8
		C82.037,119.119,75.637,119.119,71.637,122.319z"/>
	<path style="fill:#1F2E3A;" d="M114.837,113.519c4.8-4.8,4.8-12.8,0-16.8s-12.8-4.8-16.8,0s-4.8,12.8,0,16.8
		S110.037,118.319,114.837,113.519z"/>
	<path style="fill:#1F2E3A;" d="M123.637,147.919c4.8-4.8,4-12.8-0.8-16.8c-4.8-4-11.2-4-16,0c-4.8,4.8-4,12.8,0.8,16.8
		C111.637,151.919,118.837,151.919,123.637,147.919z"/>
	<path style="fill:#1F2E3A;" d="M132.437,104.719c-4.8,4.8-4.8,12.8,0,16.8s12.8,4.8,16.8,0s4.8-12.8,0-16.8
		S137.237,99.919,132.437,104.719z"/>
	<path style="fill:#1F2E3A;" d="M141.237,87.119c4.8-4.8,4.8-12.8,0-16.8s-12.8-4.8-16.8,0s-4.8,12.8,0,16.8
		S136.437,91.919,141.237,87.119z"/>
	<path style="fill:#1F2E3A;" d="M116.437,167.119c-4.8,4.8-4.8,12.8,0,16.8s12.8,4.8,16.8,0s4.8-12.8,0-16.8
		S121.237,162.319,116.437,167.119z"/>
	<path style="fill:#1F2E3A;" d="M159.637,158.319c4.8-4.8,4.8-12.8,0-16.8s-12.8-4.8-16.8,0s-4.8,12.8,0,16.8
		S154.837,163.119,159.637,158.319z"/>
	<path style="fill:#1F2E3A;" d="M168.437,192.719c4.8-4.8,4-12.8-0.8-16.8s-11.2-4-16,0c-4.8,4.8-4,12.8,0.8,16.8
		S163.637,196.719,168.437,192.719z"/>
	<path style="fill:#1F2E3A;" d="M177.237,149.519c-4.8,4.8-4.8,12.8,0,17.6s12.8,4.8,17.6,0s4.8-12.8,0-17.6
		C190.037,144.719,182.037,144.719,177.237,149.519z"/>
	<path style="fill:#1F2E3A;" d="M186.037,131.919c4.8-4.8,4.8-12.8,0-16.8s-12.8-4.8-16.8,0s-4.8,12.8,0,16.8
		C174.037,135.919,181.237,136.719,186.037,131.919L186.037,131.919z"/>
	<path style="fill:#1F2E3A;" d="M161.237,211.919c-4.8,4.8-4.8,12.8,0,17.6c4.8,4.8,12.8,4.8,17.6,0s4.8-12.8,0-17.6
		C173.237,207.119,166.037,207.119,161.237,211.919L161.237,211.919z"/>
	<path style="fill:#1F2E3A;" d="M186.837,185.519c-4.8,4.8-4.8,12.8,0,17.6s12.8,4.8,17.6,0s4.8-12.8,0-17.6
		S191.637,180.719,186.837,185.519z"/>
	<path style="fill:#1F2E3A;" d="M213.237,159.919c-4.8,4.8-4.8,12.8,0,17.6s12.8,4.8,17.6,0s4.8-12.8,0-17.6
		S218.037,155.119,213.237,159.919L213.237,159.919z"/>
	<path style="fill:#1F2E3A;" d="M311.637,310.319c-8.8,8.8-8.8,23.2,0,32s23.2,8.8,32,0s8.8-22.4,0-31.2
		C334.837,301.519,320.437,301.519,311.637,310.319z M331.637,330.319c-2.4,2.4-6.4,2.4-8.8,0s-2.4-6.4,0-8.8s6.4-2.4,8.8,0
		C334.837,323.919,334.837,327.919,331.637,330.319L331.637,330.319z"/>
	<path style="fill:#1F2E3A;" d="M265.237,199.919c8-10.4,9.6-24,4.8-36l28-28c3.2-3.2,4-8,0.8-11.2s-8-4-11.2-0.8l-0.8,0.8
		l-25.6,25.6c-0.8-0.8-0.8-0.8-1.6-1.6l-7.2-7.2l25.6-25.6c3.2-3.2,4-8,0.8-11.2s-8-4-11.2-0.8l-0.8,0.8l-25.6,25.6l-8.8-8.8
		l25.6-25.6c3.2-3.2,2.4-8.8-0.8-11.2c-3.2-2.4-7.2-2.4-10.4,0l-25.6,25.6l-8.8-8.8l25.6-25.6c3.2-3.2,2.4-8.8-0.8-11.2
		c-3.2-2.4-7.2-2.4-10.4,0l-26.4,24.8l-8.8-8.8l25.6-25.6c3.2-3.2,2.4-8.8-0.8-11.2c-3.2-2.4-7.2-2.4-10.4,0l-25.6,25.6l-8.8-8.8
		l25.6-25.6c3.2-3.2,4-8,0.8-11.2s-8-4-11.2-0.8c-0.8,0-0.8,0.8-1.6,1.6l-25.6,25.6l-7.2-7.2l-2.4-4l25.6-25.6
		c2.4-3.2,1.6-8.8-1.6-11.2c-3.2-2.4-6.4-2.4-9.6,0l-28,28c-4-1.6-8.8-3.2-13.6-3.2c-11.2,0-21.6,4.8-28.8,13.6l-52.8,52.8
		c-8,7.2-12.8,17.6-13.6,28.8c0,4.8,0.8,9.6,3.2,13.6l-28,28c-3.2,3.2-4,8-0.8,11.2s8,4,11.2,0.8l0.8-0.8l25.6-25.6
		c0.8,0.8,0.8,0.8,1.6,1.6l7.2,7.2l-24,25.6c-3.2,3.2-4,8-0.8,11.2s8,4,11.2,0.8l0.8-0.8l25.6-25.6l8.8,8.8l-25.6,25.6
		c-4,2.4-4.8,7.2-2.4,11.2s7.2,4.8,11.2,2.4c0.8-0.8,1.6-1.6,2.4-2.4l25.6-25.6l8.8,9.6l-25.6,25.6c-3.2,3.2-4,8-0.8,11.2
		c3.2,3.2,8,4,11.2,0.8l0.8-0.8l25.6-25.6l8.8,8.8l-25.6,25.6c-4,2.4-4.8,7.2-2.4,11.2c2.4,4,7.2,4.8,11.2,2.4
		c0.8-0.8,1.6-1.6,2.4-2.4l25.6-25.6l8.8,8.8l-25.6,25.6c-3.2,3.2-4,8-0.8,11.2s8,4,11.2,0.8l0.8-0.8l25.6-25.6l7.2,7.2l1.6,1.6
		l-25.6,25.6c-3.2,3.2-4,8-0.8,11.2s8,4,11.2,0.8l0.8-0.8l28-28c4,1.6,8.8,3.2,13.6,3.2c8,0,16-3.2,22.4-8l104.8,104.8
		c16.8,19.2,44.8,20.8,64,4s20.8-44.8,4-64c-1.6-1.6-3.2-3.2-4-4L265.237,199.919z M196.437,247.119c-4,4.8-10.4,8-17.6,8.8
		c-6.4-0.8-12.8-3.2-17.6-8.8l-33.6-33.6l0,0l-20-20l0,0l-53.6-54.4c-4.8-4-8.8-10.4-8.8-17.6c0.8-6.4,4-12.8,8.8-17.6l52-52
		c4-4.8,10.4-8,17.6-8.8c7.2,0,12.8,3.2,17.6,8.8l12.8,12.8l20,20l0,0l61.6,60.8l0,0l12.8,13.6c9.6,7.2,11.2,20.8,4,30.4
		c-1.6,1.6-2.4,3.2-4,4L196.437,247.119z M358.837,357.519c-12,11.2-29.6,11.2-41.6,0l-104-104l41.6-41.6l104,104.8
		C370.037,327.919,370.837,346.319,358.837,357.519L358.837,357.519L358.837,357.519z"/>
</g>
<g>
</g>
<g>
</g>
<g>
</g>
<g>
</g>
<g>
</g>
<g>
</g>
<g>
</g>
<g>
</g>
<g>
</g>
<g>
</g>
<g>
</g>
<g>
</g>
<g>
</g>
<g>
</g>
<g>
</g>
</svg>
