<svg height="512" viewBox="0 0 192 192" width="512" xmlns="http://www.w3.org/2000/svg" xmlns:xlink="http://www.w3.org/1999/xlink"><linearGradient id="New_Gradient_Swatch_2" gradientUnits="userSpaceOnUse" x1="126.398" x2="177.602" y1="57.602" y2="6.398"><stop offset="0" stop-color="#34cdfa"/><stop offset="1" stop-color="#e8d9f1"/></linearGradient><path d="m16 24h104v16h-104z" fill="#99e6fd"/><ellipse cx="152" cy="32" fill="url(#New_Gradient_Swatch_2)" rx="40" ry="32"/><path d="m96 16h16v32h-16z" fill="#ccf2fe"/><path d="m80 0h-32v16h8v40h16v-40h8z" fill="#01c0f9"/><path d="m98.3 110.454c-1.746-1.472-3.4-2.862-4.644-4.111-3.669-3.669-5.642-17.66-5.656-26.343v-24a8 8 0 0 0 -8-8h-32a8 8 0 0 0 -8 8v23.994c-.014 8.689-1.987 22.68-5.657 26.349-1.248 1.249-2.9 2.639-4.644 4.111-8.64 7.285-21.699 18.294-21.699 41.546 0 20.561 19.439 40 40 40h32c20.561 0 40-19.439 40-40 0-23.252-13.059-34.261-21.7-41.546z" fill="#ccf2fe"/><path d="m24 152c0-23.252 13.059-34.261 21.7-41.546 1.746-1.472 3.4-2.862 4.644-4.111 3.67-3.669 5.643-17.66 5.657-26.349v-23.994a8 8 0 0 1 8-8h-16.001a8 8 0 0 0 -8 8v23.994c-.014 8.689-1.987 22.68-5.657 26.349-1.248 1.249-2.9 2.639-4.644 4.111-8.64 7.285-21.699 18.294-21.699 41.546 0 20.561 19.439 40 40 40h16c-20.561 0-40-19.439-40-40z" fill="#99e6fd"/><path d="m80 192c20.561 0 40-19.439 40-40 0-23.252-13.059-34.261-21.7-41.546-1.746-1.472-3.4-2.862-4.644-4.111-3.669-3.669-5.642-17.66-5.656-26.343l-48-.006c-.014 8.689-1.987 22.68-5.657 26.349-1.248 1.249-2.9 2.639-4.644 4.111-8.64 7.285-21.699 18.294-21.699 41.546 0 20.561 19.439 40 40 40z" fill="#67d9fb"/><path d="m24 152c0-23.252 13.059-34.261 21.7-41.546 1.746-1.472 3.4-2.862 4.644-4.111 3.668-3.669 5.642-17.658 5.656-26.343h-16c-.014 8.689-1.987 22.68-5.657 26.349-1.248 1.249-2.9 2.639-4.644 4.111-8.64 7.279-21.699 18.288-21.699 41.54 0 20.561 19.439 40 40 40h16c-20.561 0-40-19.439-40-40z" fill="#34cdfa"/></svg>