<?xml version="1.0" encoding="iso-8859-1"?>
<!-- Generator: Adobe Illustrator 19.0.0, SVG Export Plug-In . SVG Version: 6.00 Build 0)  -->
<svg version="1.1" id="Capa_1" xmlns="http://www.w3.org/2000/svg" xmlns:xlink="http://www.w3.org/1999/xlink" x="0px" y="0px"
	 viewBox="0 0 512.01 512.01" style="enable-background:new 0 0 512.01 512.01;" xml:space="preserve">
<path style="fill:#303C42;" d="M277.338,117.467V10.677c0-5.896-4.771-10.667-10.667-10.667h-3.656
	c-41.76,0-81.021,16.26-110.552,45.792c-2,2-3.125,4.708-3.125,7.542v64.124c-14.19,6.526-19.004,14.03-20.208,16.439
	c-0.74,1.479-1.125,3.115-1.125,4.771v330.667c0,23.531,19.135,42.667,42.667,42.667h85.333c23.531,0,42.667-19.135,42.667-42.667
	V138.677c0-1.656-0.385-3.292-1.125-4.771C296.342,131.497,291.528,123.993,277.338,117.467z"/>
<path style="fill:#C9CBC3;" d="M170.672,57.854c23.406-21.979,53.344-34.708,85.333-36.333v24.436
	c-6.258,3.724-10.667,10.262-10.667,18.053s4.409,14.329,10.667,18.053v28.574c-11.125-2.382-25.057-3.961-42.667-3.961
	c-17.611,0-31.542,1.581-42.667,3.962V57.854z"/>
<path style="opacity:0.2;fill:#FFFFFF;enable-background:new    ;" d="M192.005,57.854c6.273-11.781,13.529-20.665,21.333-26.845
	c-15.609,6.18-30.121,15.064-42.667,26.845v52.785c6.164-1.319,13.297-2.353,21.333-3.048V57.854z"/>
<path style="opacity:0.1;enable-background:new    ;" d="M256.005,45.957V21.52c-7.249,0.368-14.348,1.479-21.333,2.966v21.47
	c-3.129,3.724-5.333,10.262-5.333,18.053s2.204,14.329,5.333,18.053v25.526c8.036,0.695,15.169,1.729,21.333,3.048V82.063
	c-6.258-3.724-10.667-10.262-10.667-18.053S249.747,49.681,256.005,45.957z"/>
<path style="fill:#72808A;" d="M277.338,469.343c0,11.76-9.573,21.333-21.333,21.333h-85.333c-11.76,0-21.333-9.573-21.333-21.333
	V142.468c4.354-4,19.958-14.458,64-14.458c44.635,0,60.063,10.74,64,14.302V469.343z"/>
<path style="opacity:0.2;fill:#FFFFFF;enable-background:new    ;" d="M149.338,469.343c0,11.76,9.573,21.333,21.333,21.333h14.223
	c-7.841,0-14.223-9.573-14.223-21.333V142.468c2.902-4,13.306-14.458,42.667-14.458c-44.042,0-59.646,10.458-64,14.458V469.343z"/>
<path style="opacity:0.1;enable-background:new    ;" d="M213.338,128.01c29.757,0,40.042,10.74,42.667,14.302v327.031
	c0,11.76-6.382,21.333-14.223,21.333h14.223c11.76,0,21.333-9.573,21.333-21.333V142.312
	C273.401,138.75,257.974,128.01,213.338,128.01z"/>
<g>
	<path style="fill:#303C42;" d="M320.005,53.343h-10.667c-5.896,0-10.667,4.771-10.667,10.667c0,5.896,4.771,10.667,10.667,10.667
		h10.667c5.896,0,10.667-4.771,10.667-10.667C330.672,58.114,325.901,53.343,320.005,53.343z"/>
	<path style="fill:#303C42;" d="M362.672,74.677h10.667c5.896,0,10.667-4.771,10.667-10.667c0-5.896-4.771-10.667-10.667-10.667
		h-10.667c-5.896,0-10.667,4.771-10.667,10.667C352.005,69.906,356.776,74.677,362.672,74.677z"/>
	<path style="fill:#303C42;" d="M309.338,42.677c1.115,0,2.26-0.177,3.375-0.552l10.115-3.375c5.594-1.865,8.604-7.906,6.74-13.49
		c-1.865-5.583-7.917-8.594-13.49-6.74l-10.115,3.375c-5.594,1.865-8.604,7.906-6.74,13.49
		C300.713,39.854,304.87,42.677,309.338,42.677z"/>
	<path style="fill:#303C42;" d="M363.224,24.718c1.115,0,2.26-0.177,3.375-0.552l10.115-3.375c5.594-1.865,8.604-7.906,6.74-13.49
		c-1.854-5.573-7.896-8.635-13.49-6.74l-10.115,3.375c-5.594,1.865-8.604,7.906-6.74,13.49
		C354.599,21.895,358.755,24.718,363.224,24.718z"/>
	<path style="fill:#303C42;" d="M322.828,89.27l-10.115-3.375c-5.563-1.865-11.625,1.156-13.49,6.74
		c-1.865,5.583,1.146,11.625,6.74,13.49l10.115,3.375c1.115,0.375,2.26,0.552,3.375,0.552c4.469,0,8.625-2.823,10.115-7.292
		C331.432,97.177,328.422,91.135,322.828,89.27z"/>
	<path style="fill:#303C42;" d="M376.713,107.229l-10.115-3.375c-5.604-1.875-11.635,1.156-13.49,6.74
		c-1.865,5.583,1.146,11.625,6.74,13.49l10.115,3.375c1.115,0.375,2.26,0.552,3.375,0.552c4.469,0,8.625-2.823,10.115-7.292
		C385.318,115.135,382.307,109.093,376.713,107.229z"/>
</g>
<linearGradient id="SVGID_1_" gradientUnits="userSpaceOnUse" x1="-42.3819" y1="638.3445" x2="-28.951" y2="632.0815" gradientTransform="matrix(21.3333 0 0 -21.3333 996.2316 13791.7793)">
	<stop  offset="0" style="stop-color:#FFFFFF;stop-opacity:0.2"/>
	<stop  offset="1" style="stop-color:#FFFFFF;stop-opacity:0"/>
</linearGradient>
<path style="fill:url(#SVGID_1_);" d="M277.338,117.467V10.677c0-5.896-4.771-10.667-10.667-10.667h-3.656
	c-41.76,0-81.021,16.26-110.552,45.792c-2,2-3.125,4.708-3.125,7.542v64.124c-14.19,6.526-19.004,14.03-20.208,16.439
	c-0.74,1.479-1.125,3.115-1.125,4.771v330.667c0,23.531,19.135,42.667,42.667,42.667h85.333c23.531,0,42.667-19.135,42.667-42.667
	V138.677c0-1.656-0.385-3.292-1.125-4.771C296.342,131.497,291.528,123.993,277.338,117.467z M320.005,53.343h-10.667
	c-5.896,0-10.667,4.771-10.667,10.667c0,5.896,4.771,10.667,10.667,10.667h10.667c5.896,0,10.667-4.771,10.667-10.667
	C330.672,58.114,325.901,53.343,320.005,53.343z M362.672,74.677h10.667c5.896,0,10.667-4.771,10.667-10.667
	c0-5.896-4.771-10.667-10.667-10.667h-10.667c-5.896,0-10.667,4.771-10.667,10.667C352.005,69.906,356.776,74.677,362.672,74.677z
	 M309.338,42.677c1.115,0,2.26-0.177,3.375-0.552l10.115-3.375c5.594-1.865,8.604-7.906,6.74-13.49
	c-1.865-5.583-7.917-8.594-13.49-6.74l-10.115,3.375c-5.594,1.865-8.604,7.906-6.74,13.49
	C300.713,39.854,304.87,42.677,309.338,42.677z M363.224,24.718c1.115,0,2.26-0.177,3.375-0.552l10.115-3.375
	c5.594-1.865,8.604-7.906,6.74-13.49c-1.854-5.573-7.896-8.635-13.49-6.74l-10.115,3.375c-5.594,1.865-8.604,7.906-6.74,13.49
	C354.599,21.895,358.755,24.718,363.224,24.718z M322.828,89.27l-10.115-3.375c-5.563-1.865-11.625,1.156-13.49,6.74
	c-1.865,5.583,1.146,11.625,6.74,13.49l10.115,3.375c1.115,0.375,2.26,0.552,3.375,0.552c4.469,0,8.625-2.823,10.115-7.292
	C331.432,97.177,328.422,91.135,322.828,89.27z M376.713,107.229l-10.115-3.375c-5.604-1.875-11.635,1.156-13.49,6.74
	c-1.865,5.583,1.146,11.625,6.74,13.49l10.115,3.375c1.115,0.375,2.26,0.552,3.375,0.552c4.469,0,8.625-2.823,10.115-7.292
	C385.318,115.135,382.307,109.093,376.713,107.229z"/>
<g>
</g>
<g>
</g>
<g>
</g>
<g>
</g>
<g>
</g>
<g>
</g>
<g>
</g>
<g>
</g>
<g>
</g>
<g>
</g>
<g>
</g>
<g>
</g>
<g>
</g>
<g>
</g>
<g>
</g>
</svg>
