<svg height="512" viewBox="0 0 192 192" width="512" xmlns="http://www.w3.org/2000/svg" xmlns:xlink="http://www.w3.org/1999/xlink"><linearGradient id="New_Gradient_Swatch_2" gradientUnits="userSpaceOnUse" x1="73.863" x2="118.137" y1="151.097" y2="106.823"><stop offset="0" stop-color="#34cdfa"/><stop offset="1" stop-color="#e8d9f1"/></linearGradient><g fill="#34cdfa"><path d="m128 48h-16v-16a16 16 0 0 0 -32 0v16h-16v-16a32 32 0 0 1 64 0z"/><path d="m184 96h-40v-16h32v-32h16v40a8 8 0 0 1 -8 8z"/><path d="m48 96h-40a8 8 0 0 1 -8-8v-40h16v32h32z"/></g><path d="m152 80a24.027 24.027 0 0 1 -24-24v-8a8 8 0 0 0 -8-8h-48a8 8 0 0 0 -8 8v8a24.027 24.027 0 0 1 -24 24 8 8 0 0 0 -8 8v96a8 8 0 0 0 8 8h112a8 8 0 0 0 8-8v-96a8 8 0 0 0 -8-8z" fill="#ccf2fe"/><path d="m56 88a24.027 24.027 0 0 0 24-24v-24h-8a8 8 0 0 0 -8 8v8a24.027 24.027 0 0 1 -24 24 8 8 0 0 0 -8 8v96a8 8 0 0 0 8 8h8v-96a8 8 0 0 1 8-8z" fill="#99e6fd"/><path d="m120 112h-48a8 8 0 0 0 -8 8v8a32 32 0 0 0 64 0v-8a8 8 0 0 0 -8-8z" fill="url(#New_Gradient_Swatch_2)"/></svg>