<?xml version="1.0" encoding="iso-8859-1"?>
<!-- Generator: Adobe Illustrator 19.0.0, SVG Export Plug-In . SVG Version: 6.00 Build 0)  -->
<svg version="1.1" id="Capa_1" xmlns="http://www.w3.org/2000/svg" xmlns:xlink="http://www.w3.org/1999/xlink" x="0px" y="0px"
	 viewBox="0 0 512 512" style="enable-background:new 0 0 512 512;" xml:space="preserve">
<g>
	<circle style="fill:#303C42;" cx="384" cy="53.333" r="10.667"/>
	<circle style="fill:#303C42;" cx="458.667" cy="96" r="10.667"/>
	<circle style="fill:#303C42;" cx="448" cy="53.333" r="10.667"/>
	<circle style="fill:#303C42;" cx="416" cy="32" r="10.667"/>
	<circle style="fill:#303C42;" cx="416" cy="74.667" r="10.667"/>
	<circle style="fill:#303C42;" cx="458.667" cy="10.667" r="10.667"/>
	<path style="fill:#303C42;" d="M277.333,204.565V160c0-5.896-4.771-10.667-10.667-10.667H256v-31.133l89.333,71.466
		c1.958,1.552,4.313,2.333,6.667,2.333c2.375,0,4.75-0.792,6.708-2.375c3.896-3.146,5.063-8.583,2.833-13.063L320,93.479v-8.146h32
		c5.896,0,10.667-4.771,10.667-10.667V32c0-5.896-4.771-10.667-10.667-10.667h-42.667h-72.417c-51.75,0-99.771,25.698-128.458,68.75
		c-2.188,3.271-2.396,7.479-0.521,10.948c1.854,3.469,5.458,5.635,9.396,5.635h53.333v42.667H160
		c-5.896,0-10.667,4.771-10.667,10.667v44.565C86.87,229.947,42.667,291.201,42.667,362.667c0,60.813,32.854,117.49,85.771,147.917
		c1.604,0.927,3.438,1.417,5.313,1.417h159.167c1.875,0,3.708-0.49,5.313-1.417C351.146,480.156,384,423.479,384,362.667
		C384,291.201,339.797,229.947,277.333,204.565z"/>
</g>
<g>
	<polygon style="fill:#D5D0CA;" points="275.75,106.667 302.741,106.667 320.75,142.667 	"/>
	<rect x="320" y="42.667" style="fill:#D5D0CA;" width="21.333" height="21.333"/>
	<path style="fill:#D5D0CA;" d="M236.917,42.667h61.75v32v10.667h-53.333h-64H139.25C164.229,58.313,199.438,42.667,236.917,42.667z
		"/>
</g>
<path style="opacity:0.2;fill:#FFFFFF;enable-background:new    ;" d="M236.917,42.667c-37.479,0-72.688,15.646-97.667,42.667
	h11.189c23.802-20.389,54.279-32,86.478-32h61.75V42.667H236.917z"/>
<g>
	<rect x="192" y="106.667" style="fill:#D5D0CA;" width="42.667" height="42.667"/>
	<path style="fill:#D5D0CA;" d="M170.667,170.667h10.667h64H256v26.951c-13.665-3.538-27.911-5.617-42.667-5.617
		c-14.755,0-29.001,2.079-42.667,5.617V170.667z"/>
</g>
<path style="fill:#F1D3B5;" d="M290.021,490.667H136.646C91.771,463.719,64,414.938,64,362.667c0-82.344,67-149.333,149.333-149.333
	s149.333,66.99,149.333,149.333C362.667,414.938,334.896,463.719,290.021,490.667z"/>
<path style="opacity:0.1;enable-background:new    ;" d="M348.767,300.15c2.059,9.865,3.233,20.051,3.233,30.517
	c0,35.986-13.163,70.318-36.007,97.01c-17.212,20.111-42.91,30.99-69.38,30.99H125.979c-25.862-15.531-45.908-38.379-58.366-64.901
	c8.621,39.958,33.246,75.41,69.033,96.901h153.375c44.875-26.948,72.646-75.729,72.646-128
	C362.667,340.328,357.598,319.198,348.767,300.15z"/>
<path style="fill:#FFFFFF;" d="M143.5,255.438c-36.417,23.802-58.167,63.885-58.167,107.229c0,5.896,4.771,10.667,10.667,10.667
	c5.896,0,10.667-4.771,10.667-10.667c0-36.115,18.125-69.521,48.5-89.375c4.938-3.219,6.313-9.833,3.104-14.76
	C155,253.573,148.375,252.24,143.5,255.438z"/>
<linearGradient id="SVGID_1_" gradientUnits="userSpaceOnUse" x1="-43.0314" y1="639.2469" x2="-26.8488" y2="631.7006" gradientTransform="matrix(21.3333 0 0 -21.3333 996.3334 13791.667)">
	<stop  offset="0" style="stop-color:#FFFFFF;stop-opacity:0.2"/>
	<stop  offset="1" style="stop-color:#FFFFFF;stop-opacity:0"/>
</linearGradient>
<path style="fill:url(#SVGID_1_);" d="M384,42.667c-5.891,0-10.667,4.775-10.667,10.667C373.333,59.224,378.109,64,384,64
	s10.667-4.776,10.667-10.667C394.667,47.441,389.891,42.667,384,42.667z M458.667,85.333C452.776,85.333,448,90.108,448,96
	c0,5.891,4.776,10.667,10.667,10.667s10.667-4.776,10.667-10.667C469.333,90.108,464.557,85.333,458.667,85.333z M458.667,53.333
	c0-5.892-4.776-10.667-10.667-10.667s-10.667,4.775-10.667,10.667C437.333,59.224,442.109,64,448,64S458.667,59.224,458.667,53.333z
	 M416,21.333c-5.891,0-10.667,4.775-10.667,10.667c0,5.891,4.776,10.667,10.667,10.667S426.667,37.891,426.667,32
	C426.667,26.108,421.891,21.333,416,21.333z M416,64c-5.891,0-10.667,4.775-10.667,10.667c0,5.891,4.776,10.667,10.667,10.667
	s10.667-4.776,10.667-10.667C426.667,68.775,421.891,64,416,64z M458.667,21.333c5.891,0,10.667-4.776,10.667-10.667
	C469.333,4.775,464.557,0,458.667,0S448,4.775,448,10.667C448,16.557,452.776,21.333,458.667,21.333z M277.333,204.565V160
	c0-5.896-4.771-10.667-10.667-10.667H256v-31.133l89.333,71.466c1.958,1.552,4.313,2.333,6.667,2.333
	c2.375,0,4.75-0.792,6.708-2.375c3.896-3.146,5.063-8.583,2.833-13.063L320,93.479v-8.146h32c5.896,0,10.667-4.771,10.667-10.667V32
	c0-5.896-4.771-10.667-10.667-10.667H236.917c-51.75,0-99.771,25.698-128.458,68.75c-2.188,3.271-2.396,7.479-0.521,10.948
	c1.854,3.469,5.458,5.635,9.396,5.635h53.333v42.667H160c-5.896,0-10.667,4.771-10.667,10.667v44.565
	C86.87,229.947,42.667,291.201,42.667,362.667c0,60.813,32.854,117.49,85.771,147.917c1.604,0.927,3.438,1.417,5.313,1.417h159.167
	c1.875,0,3.708-0.49,5.313-1.417C351.146,480.156,384,423.479,384,362.667C384,291.201,339.797,229.947,277.333,204.565z"/>
<g>
</g>
<g>
</g>
<g>
</g>
<g>
</g>
<g>
</g>
<g>
</g>
<g>
</g>
<g>
</g>
<g>
</g>
<g>
</g>
<g>
</g>
<g>
</g>
<g>
</g>
<g>
</g>
<g>
</g>
</svg>
