<?xml version="1.0" encoding="iso-8859-1"?>
<!-- Generator: Adobe Illustrator 19.0.0, SVG Export Plug-In . SVG Version: 6.00 Build 0)  -->
<svg version="1.1" id="Capa_1" xmlns="http://www.w3.org/2000/svg" xmlns:xlink="http://www.w3.org/1999/xlink" x="0px" y="0px"
	 viewBox="0 0 470.897 470.897" style="enable-background:new 0 0 470.897 470.897;" xml:space="preserve">
<polygon style="fill:#B9D9EA;" points="179.449,94.249 289.849,94.249 252.249,109.449 179.449,143.849 "/>
<polygon style="fill:#86BDD1;" points="179.449,190.249 289.849,136.649 289.849,183.049 179.449,235.849 "/>
<g>
	<polygon style="fill:#FFFFFF;" points="179.449,143.849 289.849,91.049 289.849,136.649 179.449,190.249 	"/>
	<path style="fill:#FFFFFF;" d="M184.249,57.449l1.6-9.6c5.6-27.2,31.2-44.8,58.4-39.2c20,4,35.2,19.2,39.2,39.2l1.6,9.6H184.249z"
		/>
</g>
<rect x="158.649" y="376.649" style="fill:#86BDD1;" width="151.2" height="36.8"/>
<path style="fill:#FFFFFF;" d="M234.649,462.249c-24,0-44-16.8-48.8-40l-1.6-9.6h100.8l-1.6,9.6
	C278.649,445.449,258.649,462.249,234.649,462.249z"/>
<g>
	<polygon style="fill:#86BDD1;" points="209.049,376.649 179.449,373.449 289.849,319.849 289.849,376.649 	"/>
	<rect x="158.649" y="57.449" style="fill:#86BDD1;" width="151.2" height="36.8"/>
</g>
<polygon style="fill:#B9D9EA;" points="179.449,281.449 289.849,228.649 289.849,274.249 179.449,327.849 "/>
<g>
	<polygon style="fill:#FFFFFF;" points="179.449,327.849 289.849,274.249 289.849,319.849 179.449,373.449 	"/>
	<polygon style="fill:#FFFFFF;" points="179.449,235.849 289.849,183.049 289.849,228.649 179.449,281.449 	"/>
</g>
<polygon style="fill:#D8D8D8;" points="252.249,109.449 235.449,117.449 235.449,117.449 "/>
<polygon style="fill:#9EC6D8;" points="252.249,109.449 284.249,94.249 235.449,94.249 235.449,117.449 "/>
<polygon style="fill:#6197AA;" points="235.449,209.449 289.849,183.049 289.849,136.649 235.449,163.049 "/>
<g>
	<polygon style="fill:#D8D8D8;" points="289.849,136.649 289.849,94.249 252.249,109.449 235.449,117.449 235.449,163.049 	"/>
	<polygon style="fill:#D8D8D8;" points="252.249,109.449 289.849,94.249 284.249,94.249 	"/>
	<path style="fill:#D8D8D8;" d="M285.049,57.449l-1.6-9.6c-4.8-23.2-24.8-40-48-40v49.6H285.049z"/>
</g>
<polygon style="fill:#6197AA;" points="235.449,412.649 285.049,412.649 310.649,412.649 310.649,376.649 289.849,376.649 
	235.449,376.649 "/>
<path style="fill:#D8D8D8;" d="M283.449,422.249l1.6-9.6h-49.6v49.6C258.649,462.249,278.649,445.449,283.449,422.249z"/>
<g>
	<polygon style="fill:#6197AA;" points="289.849,376.649 289.849,319.849 235.449,346.249 235.449,376.649 	"/>
	<polygon style="fill:#6197AA;" points="235.449,94.249 284.249,94.249 289.849,91.049 289.849,94.249 310.649,94.249 
		310.649,57.449 285.049,57.449 235.449,57.449 	"/>
	<polygon style="fill:#6197AA;" points="284.249,94.249 289.849,94.249 289.849,91.049 	"/>
</g>
<polygon style="fill:#9EC6D8;" points="235.449,300.649 289.849,274.249 289.849,228.649 235.449,255.049 "/>
<g>
	<polygon style="fill:#D8D8D8;" points="235.449,346.249 289.849,319.849 289.849,274.249 235.449,300.649 	"/>
	<polygon style="fill:#D8D8D8;" points="235.449,300.649 289.849,274.249 289.849,274.249 	"/>
	<polygon style="fill:#D8D8D8;" points="235.449,255.049 289.849,228.649 289.849,183.049 235.449,209.449 	"/>
	<polygon style="fill:#D8D8D8;" points="235.449,209.449 289.849,183.049 289.849,183.049 	"/>
</g>
<path style="fill:#1F2E3A;" d="M310.649,49.449h-18.4c-4.8-31.2-33.6-53.6-64.8-48.8c-25.6,3.2-45.6,23.2-48.8,48.8h-18.4
	c-4.8,0-8,3.2-8,8v36.8c0,4.8,3.2,8,8,8h12v266.4h-12c-4.8,0-8,3.2-8,8v36.8c0,4.8,3.2,8,8,8h18.4c4.8,31.2,33.6,53.6,64.8,48.8
	c25.6-3.2,45.6-23.2,48.8-48.8h18.4c4.8,0,8-3.2,8-8v-36.8c0-4.8-3.2-8-8-8h-12v-266.4h12c4.8,0,8-3.2,8-8v-36.8
	C318.649,52.649,314.649,49.449,310.649,49.449z M234.649,15.849c20,0,36.8,14.4,40.8,33.6h-81.6
	C197.849,29.449,214.649,15.849,234.649,15.849z M234.649,454.249c-20,0-36.8-14.4-40.8-33.6h81.6
	C271.449,440.649,254.649,454.249,234.649,454.249L234.649,454.249z M302.649,383.849v20.8h-136v-20.8H302.649L302.649,383.849z
	 M281.849,103.849v28l-95.2,45.6v-28L281.849,103.849z M187.449,131.049v-29.6h61.6L187.449,131.049z M281.849,149.449v28
	l-95.2,45.6v-28L281.849,149.449z M281.849,195.049v28l-95.2,45.6v-28L281.849,195.049z M281.849,241.449v28l-94.4,45.6v-28
	L281.849,241.449z M281.849,287.049v28l-95.2,45.6v-28L281.849,287.049z M281.849,332.649v35.2h-73.6L281.849,332.649z
	 M302.649,85.449h-136v-20.8h135.2v20.8H302.649z"/>
<g>
</g>
<g>
</g>
<g>
</g>
<g>
</g>
<g>
</g>
<g>
</g>
<g>
</g>
<g>
</g>
<g>
</g>
<g>
</g>
<g>
</g>
<g>
</g>
<g>
</g>
<g>
</g>
<g>
</g>
</svg>
