<svg height="512" viewBox="0 0 192 192" width="512" xmlns="http://www.w3.org/2000/svg" xmlns:xlink="http://www.w3.org/1999/xlink"><linearGradient id="New_Gradient_Swatch_2" gradientUnits="userSpaceOnUse" x1="67.172" x2="124.828" y1="187.172" y2="129.515"><stop offset="0" stop-color="#34cdfa"/><stop offset="1" stop-color="#e8d9f1"/></linearGradient><path d="m112 120h-32a8 8 0 0 0 -8 8v64h48v-64a8 8 0 0 0 -8-8z" fill="url(#New_Gradient_Swatch_2)"/><g fill="#34cdfa"><path d="m136 24h32v16h-32z"/><path d="m136 48h32v16h-32z"/><path d="m136 72h32v16h-32z"/><path d="m136 96h32v16h-32z"/><path d="m24 96h32v16h-32z"/><path d="m24 24h32v16h-32z"/><path d="m24 48h32v16h-32z"/><path d="m24 72h32v16h-32z"/></g><rect fill="#e6f9fe" height="136" rx="16" width="96" x="48"/><path d="m64 104v-104a16.019 16.019 0 0 0 -16 16v104a16.019 16.019 0 0 0 16 16h64a16.019 16.019 0 0 0 16-16h-64a16.019 16.019 0 0 1 -16-16z" fill="#99e6fd"/><circle cx="112" cy="32" fill="#34cdfa" r="8"/><circle cx="80" cy="32" fill="#34cdfa" r="8"/><circle cx="112" cy="56" fill="#34cdfa" r="8"/><circle cx="80" cy="56" fill="#34cdfa" r="8"/><circle cx="112" cy="80" fill="#34cdfa" r="8"/><circle cx="80" cy="80" fill="#34cdfa" r="8"/><circle cx="112" cy="104" fill="#34cdfa" r="8"/><circle cx="80" cy="104" fill="#34cdfa" r="8"/></svg>