<?xml version="1.0" encoding="iso-8859-1"?>
<!-- Generator: Adobe Illustrator 19.0.0, SVG Export Plug-In . SVG Version: 6.00 Build 0)  -->
<svg version="1.1" id="Capa_1" xmlns="http://www.w3.org/2000/svg" xmlns:xlink="http://www.w3.org/1999/xlink" x="0px" y="0px"
	 viewBox="0 0 512 512" style="enable-background:new 0 0 512 512;" xml:space="preserve">
<path style="fill:#303C42;" d="M416,149.333h-10.667v-32c0-5.896-4.771-10.667-10.667-10.667c-5.896,0-10.667,4.771-10.667,10.667
	v32h-21.333v-32c0-5.896-4.771-10.667-10.667-10.667c-5.896,0-10.667,4.771-10.667,10.667v32h-10.667
	c-5.896,0-10.667,4.771-10.667,10.667v21.333c0,25.754,18.353,47.298,42.667,52.254V416c0,41.167-33.5,74.667-74.667,74.667h-10.667
	c-37.587,0-68.469-28.022-73.609-64.214c5.372-0.555,9.609-4.932,9.609-10.453v-12.823c48.625-9.913,85.333-53.003,85.333-104.51
	v-288C298.667,4.771,293.896,0,288,0H96c-5.896,0-10.667,4.771-10.667,10.667v288c0,51.508,36.708,94.598,85.333,104.51V416
	c0,5.896,4.771,10.667,10.667,10.667h1.078C187.797,474.535,228.048,512,277.333,512H288c52.938,0,96-43.063,96-96V233.587
	c24.314-4.956,42.667-26.5,42.667-52.254V160C426.667,154.104,421.896,149.333,416,149.333z"/>
<path style="fill:#5F6369;" d="M106.667,298.667v-192h170.667v192C277.333,345.719,239.052,384,192,384
	S106.667,345.719,106.667,298.667z"/>
<path style="opacity:0.2;fill:#FFFFFF;enable-background:new    ;" d="M128,298.667v-192h-21.333v192
	C106.667,345.719,144.948,384,192,384C156.711,384,128,345.719,128,298.667z"/>
<path style="opacity:0.1;enable-background:new    ;" d="M256,106.667v192C256,345.719,227.289,384,192,384
	c47.052,0,85.333-38.281,85.333-85.333v-192H256z"/>
<g>
	<path style="fill:#303C42;" d="M256,138.667c0-5.896-4.771-10.667-10.667-10.667H138.667c-5.896,0-10.667,4.771-10.667,10.667
		s4.771,10.667,10.667,10.667h106.667C251.229,149.333,256,144.563,256,138.667z"/>
	<path style="fill:#303C42;" d="M234.667,309.333V224c0-5.896-4.771-10.667-10.667-10.667h-64c-5.896,0-10.667,4.771-10.667,10.667
		v85.333c0,5.896,4.771,10.667,10.667,10.667h64C229.896,320,234.667,315.229,234.667,309.333z"/>
</g>
<rect x="170.667" y="234.667" style="fill:#D5D0CA;" width="42.667" height="21.333"/>
<rect x="170.667" y="277.333" style="fill:#474C55;" width="42.667" height="21.333"/>
<path style="fill:#5F6369;" d="M128,21.333V32c0,5.896,4.771,10.667,10.667,10.667S149.333,37.896,149.333,32V21.333h32V32
	c0,5.896,4.771,10.667,10.667,10.667c5.896,0,10.667-4.771,10.667-10.667V21.333h32V32c0,5.896,4.771,10.667,10.667,10.667
	C251.229,42.667,256,37.896,256,32V21.333h21.333v64H106.667v-64H128z"/>
<polygon style="opacity:0.2;fill:#FFFFFF;enable-background:new    ;" points="128,21.333 106.667,21.333 106.667,85.333 
	128,85.333 128,32 "/>
<polygon style="opacity:0.1;enable-background:new    ;" points="256,21.333 256,32 256,85.333 277.333,85.333 277.333,21.333 "/>
<path style="fill:#5F6369;" d="M405.333,181.333c0,17.646-14.354,32-32,32s-32-14.354-32-32v-10.667h64V181.333z"/>
<path style="opacity:0.1;enable-background:new    ;" d="M373.333,202.667c-17.646,0-32-14.354-32-32v10.667
	c0,17.646,14.354,32,32,32s32-14.354,32-32v-10.667C405.333,188.313,390.979,202.667,373.333,202.667z"/>
<linearGradient id="SVGID_1_" gradientUnits="userSpaceOnUse" x1="-45.5768" y1="639.9329" x2="-26.3753" y2="630.9792" gradientTransform="matrix(21.3333 0 0 -21.3333 996.3334 13791.667)">
	<stop  offset="0" style="stop-color:#FFFFFF;stop-opacity:0.2"/>
	<stop  offset="1" style="stop-color:#FFFFFF;stop-opacity:0"/>
</linearGradient>
<path style="fill:url(#SVGID_1_);" d="M416,149.333h-10.667v-32c0-5.896-4.771-10.667-10.667-10.667
	c-5.896,0-10.667,4.771-10.667,10.667v32h-21.333v-32c0-5.896-4.771-10.667-10.667-10.667c-5.896,0-10.667,4.771-10.667,10.667v32
	h-10.667c-5.896,0-10.667,4.771-10.667,10.667v21.333c0,25.754,18.353,47.298,42.667,52.254V416c0,41.167-33.5,74.667-74.667,74.667
	h-10.667c-37.587,0-68.469-28.022-73.609-64.214c5.372-0.555,9.609-4.932,9.609-10.453v-12.823
	c48.625-9.913,85.333-53.003,85.333-104.51v-288C298.667,4.771,293.896,0,288,0H96c-5.896,0-10.667,4.771-10.667,10.667v288
	c0,51.508,36.708,94.598,85.333,104.51V416c0,5.896,4.771,10.667,10.667,10.667h1.078C187.797,474.535,228.048,512,277.333,512H288
	c52.938,0,96-43.063,96-96V233.587c24.314-4.956,42.667-26.5,42.667-52.254V160C426.667,154.104,421.896,149.333,416,149.333z"/>
<g>
</g>
<g>
</g>
<g>
</g>
<g>
</g>
<g>
</g>
<g>
</g>
<g>
</g>
<g>
</g>
<g>
</g>
<g>
</g>
<g>
</g>
<g>
</g>
<g>
</g>
<g>
</g>
<g>
</g>
</svg>
