<?xml version="1.0" encoding="iso-8859-1"?>
<!-- Generator: Adobe Illustrator 19.0.0, SVG Export Plug-In . SVG Version: 6.00 Build 0)  -->
<svg version="1.1" id="Capa_1" xmlns="http://www.w3.org/2000/svg" xmlns:xlink="http://www.w3.org/1999/xlink" x="0px" y="0px"
	 viewBox="0 0 512 512" style="enable-background:new 0 0 512 512;" xml:space="preserve">
<path style="fill:#303C42;" d="M507.75,300.813c-2.708-2.031-6.146-2.656-9.375-1.729l-19.469,5.621
	c-0.73-1.51-1.785-2.858-3.156-3.892c-2.667-2.01-6.146-2.688-9.354-1.729l-224,64.406c-4.583,1.313-7.729,5.49-7.729,10.25v1.478
	L115.021,409.76c-3.707-4.965-8.234-9.065-13.087-12.714l34.652-119.714h4.477c4.75,0,8.938-3.146,10.25-7.708l61.604-213.333
	c0.938-3.219,0.292-6.688-1.729-9.365c-1.654-2.199-4.133-3.398-6.792-3.853l8.521-29.439c0.938-3.229,0.292-6.698-1.729-9.375
	c-2-2.687-5.167-4.26-8.521-4.26c-42.375,0-80.292,28.417-92.208,69.042L1.729,433.25l0.141,0.042C0.745,438.035,0,442.918,0,448
	c0,35.292,28.708,64,64,64c8.792,0,17.375-1.802,24.292-4.906l354.625-105.542C483.583,389.635,512,351.719,512,309.333
	C512,305.979,510.417,302.823,507.75,300.813z"/>
<path style="fill:#5F6369;" d="M130.917,75.094c7.875-26.885,30.354-46.875,57.125-52.292L82.576,387.164
	C76.592,385.302,70.422,384,64,384c-9.746,0-18.887,2.359-27.161,6.272L130.917,75.094z"/>
<path style="opacity:0.2;fill:#FFFFFF;enable-background:new    ;" d="M136.745,94.958c6.583-22.475,23.435-39.999,44.406-48.352
	l6.891-23.805c-26.771,5.417-49.25,25.406-57.125,52.292L36.839,390.272c4.168-1.971,8.56-3.536,13.135-4.616L136.745,94.958z"/>
<path style="fill:#5F6369;" d="M436.875,381.094l-355.896,106c-5.417,2.375-11.146,3.573-16.979,3.573
	c-23.521,0-42.667-19.135-42.667-42.667S40.479,405.333,64,405.333c15.292,0,29.5,8.448,37.083,22.052
	c2.417,4.333,7.521,6.469,12.271,5.063l375.854-108.51C483.792,350.74,463.792,373.208,436.875,381.094z"/>
<path style="opacity:0.1;enable-background:new    ;" d="M438.333,359.76l-355.896,106c-5.417,2.375-11.146,3.573-16.979,3.573
	c-20.719,0-38.004-14.858-41.839-34.479c-1.362,4.167-2.286,8.53-2.286,13.146c0,23.531,19.146,42.667,42.667,42.667
	c5.833,0,11.563-1.198,16.979-3.573l355.896-106c26.917-7.885,46.917-30.354,52.333-57.156l-7.893,2.279
	C471.832,342.017,456.777,354.357,438.333,359.76z"/>
<g>
	<path style="fill:#303C42;" d="M64,426.667c-11.771,0-21.333,9.573-21.333,21.333c0,11.76,9.563,21.333,21.333,21.333
		S85.333,459.76,85.333,448C85.333,436.24,75.771,426.667,64,426.667z"/>
	<path style="fill:#303C42;" d="M256,288c0,5.896,4.771,10.667,10.667,10.667c5.896,0,10.667-4.771,10.667-10.667
		c0-15.083-7.979-23.052-13.792-28.875c-5.229-5.229-7.542-7.792-7.542-13.792s2.313-8.563,7.542-13.792
		c5.813-5.823,13.792-13.792,13.792-28.875c0-5.896-4.771-10.667-10.667-10.667c-5.896,0-10.667,4.771-10.667,10.667
		c0,6-2.313,8.563-7.542,13.792c-5.813,5.823-13.792,13.792-13.792,28.875s7.979,23.052,13.792,28.875
		C253.688,279.438,256,282,256,288z"/>
	<path style="fill:#303C42;" d="M341.333,266.667c0,5.896,4.771,10.667,10.667,10.667c5.896,0,10.667-4.771,10.667-10.667
		c0-15.083-7.979-23.052-13.792-28.875c-5.229-5.229-7.542-7.792-7.542-13.792s2.313-8.563,7.542-13.792
		c5.813-5.823,13.792-13.792,13.792-28.875c0-5.896-4.771-10.667-10.667-10.667c-5.896,0-10.667,4.771-10.667,10.667
		c0,6-2.313,8.563-7.542,13.792C327.979,200.948,320,208.917,320,224c0,15.083,7.979,23.052,13.792,28.875
		C339.021,258.104,341.333,260.667,341.333,266.667z"/>
	<path style="fill:#303C42;" d="M426.667,245.333c0,5.896,4.771,10.667,10.667,10.667S448,251.229,448,245.333
		c0-15.083-7.979-23.052-13.792-28.875c-5.229-5.229-7.542-7.792-7.542-13.792s2.313-8.563,7.542-13.792
		C440.021,183.052,448,175.083,448,160c0-5.896-4.771-10.667-10.667-10.667s-10.667,4.771-10.667,10.667
		c0,6-2.313,8.563-7.542,13.792c-5.813,5.823-13.792,13.792-13.792,28.875s7.979,23.052,13.792,28.875
		C424.354,236.771,426.667,239.333,426.667,245.333z"/>
</g>
<linearGradient id="SVGID_1_" gradientUnits="userSpaceOnUse" x1="-44.7851" y1="636.3748" x2="-24.5857" y2="626.9585" gradientTransform="matrix(21.3333 0 0 -21.3333 996.3334 13791.667)">
	<stop  offset="0" style="stop-color:#FFFFFF;stop-opacity:0.2"/>
	<stop  offset="1" style="stop-color:#FFFFFF;stop-opacity:0"/>
</linearGradient>
<path style="fill:url(#SVGID_1_);" d="M507.75,300.813c-2.708-2.031-6.146-2.656-9.375-1.729l-19.469,5.621
	c-0.73-1.51-1.785-2.858-3.156-3.892c-2.667-2.01-6.146-2.688-9.354-1.729l-224,64.406c-4.583,1.313-7.729,5.49-7.729,10.25v1.478
	L115.021,409.76c-3.707-4.965-8.234-9.065-13.087-12.714l34.652-119.714h4.477c4.75,0,8.938-3.146,10.25-7.708l61.604-213.333
	c0.938-3.219,0.292-6.688-1.729-9.365c-1.654-2.199-4.133-3.398-6.792-3.853l8.521-29.439c0.938-3.229,0.292-6.698-1.729-9.375
	c-2-2.687-5.167-4.26-8.521-4.26c-42.375,0-80.292,28.417-92.208,69.042L1.729,433.25l0.141,0.042C0.745,438.035,0,442.918,0,448
	c0,35.292,28.708,64,64,64c8.792,0,17.375-1.802,24.292-4.906l354.625-105.542C483.583,389.635,512,351.719,512,309.333
	C512,305.979,510.417,302.823,507.75,300.813z M256,288c0,5.896,4.771,10.667,10.667,10.667c5.896,0,10.667-4.771,10.667-10.667
	c0-15.083-7.979-23.052-13.792-28.875c-5.229-5.229-7.542-7.792-7.542-13.792s2.313-8.563,7.542-13.792
	c5.813-5.823,13.792-13.792,13.792-28.875c0-5.896-4.771-10.667-10.667-10.667c-5.896,0-10.667,4.771-10.667,10.667
	c0,6-2.313,8.563-7.542,13.792c-5.813,5.823-13.792,13.792-13.792,28.875s7.979,23.052,13.792,28.875
	C253.688,279.438,256,282,256,288z M341.333,266.667c0,5.896,4.771,10.667,10.667,10.667c5.896,0,10.667-4.771,10.667-10.667
	c0-15.083-7.979-23.052-13.792-28.875c-5.229-5.229-7.542-7.792-7.542-13.792s2.313-8.563,7.542-13.792
	c5.813-5.823,13.792-13.792,13.792-28.875c0-5.896-4.771-10.667-10.667-10.667c-5.896,0-10.667,4.771-10.667,10.667
	c0,6-2.313,8.563-7.542,13.792C327.979,200.948,320,208.917,320,224c0,15.083,7.979,23.052,13.792,28.875
	C339.021,258.104,341.333,260.667,341.333,266.667z M426.667,245.333c0,5.896,4.771,10.667,10.667,10.667S448,251.229,448,245.333
	c0-15.083-7.979-23.052-13.792-28.875c-5.229-5.229-7.542-7.792-7.542-13.792s2.313-8.563,7.542-13.792
	C440.021,183.052,448,175.083,448,160c0-5.896-4.771-10.667-10.667-10.667s-10.667,4.771-10.667,10.667
	c0,6-2.313,8.563-7.542,13.792c-5.813,5.823-13.792,13.792-13.792,28.875s7.979,23.052,13.792,28.875
	C424.354,236.771,426.667,239.333,426.667,245.333z"/>
<g>
</g>
<g>
</g>
<g>
</g>
<g>
</g>
<g>
</g>
<g>
</g>
<g>
</g>
<g>
</g>
<g>
</g>
<g>
</g>
<g>
</g>
<g>
</g>
<g>
</g>
<g>
</g>
<g>
</g>
</svg>
