<svg height="512" viewBox="0 0 192 192" width="512" xmlns="http://www.w3.org/2000/svg" xmlns:xlink="http://www.w3.org/1999/xlink"><linearGradient id="New_Gradient_Swatch_2" gradientUnits="userSpaceOnUse" x1="67.695" x2="129.079" y1="79.009" y2="17.625"><stop offset="0" stop-color="#34cdfa"/><stop offset="1" stop-color="#e8d9f1"/></linearGradient><path d="m123.705 13.53a103.382 103.382 0 0 0 -25.175-13.12 8.011 8.011 0 0 0 -9.21 11.99c1.828 2.809 3.3 7.285 2.451 8.844-.517.956-3.642 2.756-11.771 2.756-23.478 0-32 19.137-32 32a8 8 0 0 0 8 8h80a8 8 0 0 0 7.761-6.06c2.879-11.512 1.739-28.562-20.056-44.41z" fill="url(#New_Gradient_Swatch_2)"/><path d="m178.53 104.41-18.53-6.177v-42.233a8 8 0 0 0 -8-8h-112a8 8 0 0 0 -8 8v42.234l-18.53 6.176a8 8 0 0 0 -5.47 7.59v72a8 8 0 0 0 8 8h160a8 8 0 0 0 8-8v-72a8 8 0 0 0 -5.47-7.59z" fill="#ccf2fe"/><path d="m32 184v-72a8 8 0 0 1 5.47-7.59l18.53-6.176h104v-10.234a8 8 0 0 0 -8-8h-96v-32h-16a8 8 0 0 0 -8 8v42.234l-18.53 6.176a8 8 0 0 0 -5.47 7.59v72a8 8 0 0 0 8 8h24a8 8 0 0 1 -8-8z" fill="#99e6fd"/><g fill="#67d9fb"><path d="m24 72h144v16h-144z"/><path d="m136 128h-128v56a8 8 0 0 0 8 8h128v-56a8 8 0 0 0 -8-8z"/></g></svg>