<?xml version="1.0" encoding="iso-8859-1"?>
<!-- Generator: Adobe Illustrator 19.0.0, SVG Export Plug-In . SVG Version: 6.00 Build 0)  -->
<svg version="1.1" id="Capa_1" xmlns="http://www.w3.org/2000/svg" xmlns:xlink="http://www.w3.org/1999/xlink" x="0px" y="0px"
	 viewBox="0 0 512 512" style="enable-background:new 0 0 512 512;" xml:space="preserve">
<path style="fill:#303C42;" d="M382.542,59.732c-5.635-28.939-28.823-52.325-57.719-58.19c-12.813-2.583-25.948-1.906-38.042,1.917
	c-20.208,6.417-41.354,6.417-61.563,0c-12.104-3.823-25.219-4.5-38.052-1.917c-28.885,5.865-52.073,29.251-57.708,58.19
	c-0.973,4.988-1.47,9.972-1.458,14.917v85.337c0,30.053,3.698,60.075,10.99,89.233c6.865,27.47,10.344,55.752,10.344,84.066v72.045
	C149.333,464.144,197.188,512,256,512s106.667-47.856,106.667-106.671v-72.045c0-28.314,3.479-56.596,10.344-84.066
	c7.292-29.157,10.99-59.179,10.99-89.233V74.649C384.012,69.704,383.514,64.721,382.542,59.732z"/>
<path style="fill:#D1D1CE;" d="M150.396,63.833c3.948-20.25,20.813-37.26,41.01-41.354c3.792-0.771,7.563-1.156,11.281-1.156
	c5.479,0,10.854,0.833,16.073,2.49c12.198,3.865,24.708,5.833,37.219,5.833h0.01H256h0.01h0.01c12.51,0,25.021-1.969,37.219-5.833
	c8.76-2.781,17.948-3.25,27.344-1.333c20.208,4.094,37.073,21.104,41.021,41.354c3.594,18.469-1.979,36.344-15.323,49.052
	c-20.75,19.781-33.01,38.615-38.583,59.271c-1.156,4.281-2.958,8.635-5.354,12.927c-9.26,16.552-22.927,27.052-36.563,28.083
	c-4.583,0.333-13.844,0.333-18.427,0c-13.948-1.052-28.75-12.073-37.698-28.073c-2.396-4.302-4.198-8.656-5.354-12.948
	c-5.573-20.646-17.833-39.479-38.594-59.26C152.375,100.177,146.802,82.302,150.396,63.833z"/>
<path style="fill:#797D82;" d="M362.667,160c0,28.313-3.479,56.594-10.344,84.063c-7.292,29.156-10.99,59.177-10.99,89.229v72.042
	c0,47.052-38.281,85.333-85.333,85.333s-85.333-38.281-85.333-85.333v-72.042c0-30.052-3.698-60.073-10.99-89.229
	c-6.865-27.469-10.344-55.75-10.344-84.063v-33.469c0.573,0.582,1.063,1.225,1.656,1.792c17.813,16.969,28.198,32.667,32.708,49.375
	c1.615,5.979,4.083,11.969,7.333,17.802c9.833,17.573,29.365,37.021,54.719,38.938c2.708,0.208,6.76,0.313,10.823,0.313
	c4.063,0,8.104-0.104,10.813-0.313c20.792-1.563,40.823-16.125,53.583-38.948c3.25-5.823,5.719-11.813,7.333-17.781
	c4.51-16.719,14.896-32.417,32.698-49.385c0.598-0.569,1.09-1.216,1.667-1.802V160z"/>
<g>
	<path style="opacity:0.2;fill:#FFFFFF;enable-background:new    ;" d="M256.471,234.749c-0.161,0-0.31-0.007-0.471-0.007
		c0.138,0,0.263,0.008,0.401,0.008C256.426,234.75,256.447,234.749,256.471,234.749z"/>
	<path style="opacity:0.2;fill:#FFFFFF;enable-background:new    ;" d="M196.267,405.333v-72.042
		c0-30.052-2.589-60.073-7.693-89.229c-4.085-23.349-6.076-47.315-6.695-71.358c-5.137-14.862-14.874-29.125-30.889-44.382
		c-0.594-0.566-1.083-1.21-1.656-1.792V160c0,28.313,3.479,56.594,10.344,84.063c7.292,29.156,10.99,59.177,10.99,89.229v72.042
		c0,47.052,38.281,85.333,85.333,85.333C223.064,490.667,196.267,452.385,196.267,405.333z"/>
</g>
<path style="opacity:0.1;enable-background:new    ;" d="M361,128.323c-16.007,15.258-25.743,29.521-30.879,44.389
	c-0.621,24.039-2.611,48.005-6.695,71.35c-5.104,29.156-7.693,59.177-7.693,89.229v72.042c0,47.052-26.797,85.333-59.733,85.333
	c47.052,0,85.333-38.281,85.333-85.333v-72.042c0-30.052,3.698-60.073,10.99-89.229c6.865-27.469,10.344-55.75,10.344-84.063
	v-33.479C362.09,127.107,361.598,127.754,361,128.323z"/>
<circle style="fill:#303C42;" cx="208" cy="80" r="37.333"/>
<circle style="fill:#F2F2F2;" cx="208" cy="80" r="16"/>
<circle style="fill:#303C42;" cx="256" cy="154.667" r="37.333"/>
<circle style="fill:#F2F2F2;" cx="256" cy="154.667" r="16"/>
<circle style="fill:#303C42;" cx="304" cy="80" r="37.333"/>
<circle style="fill:#F2F2F2;" cx="304" cy="80" r="16"/>
<path style="fill:#303C42;" d="M256,277.333c-23.531,0-42.667,19.135-42.667,42.667v64c0,23.531,19.135,42.667,42.667,42.667
	s42.667-19.135,42.667-42.667v-64C298.667,296.469,279.531,277.333,256,277.333z"/>
<path style="fill:#474C55;" d="M277.333,384c0,11.76-9.573,21.333-21.333,21.333c-11.76,0-21.333-9.573-21.333-21.333v-21.333
	h42.667V384z"/>
<path style="fill:#D5D0CA;" d="M277.333,341.333h-42.667V320c0-11.76,9.573-21.333,21.333-21.333
	c11.76,0,21.333,9.573,21.333,21.333V341.333z"/>
<linearGradient id="SVGID_1_" gradientUnits="userSpaceOnUse" x1="-42.9946" y1="638.8605" x2="-27.2956" y2="631.5391" gradientTransform="matrix(21.3333 0 0 -21.3333 996.3334 13791.667)">
	<stop  offset="0" style="stop-color:#FFFFFF;stop-opacity:0.2"/>
	<stop  offset="1" style="stop-color:#FFFFFF;stop-opacity:0"/>
</linearGradient>
<path style="fill:url(#SVGID_1_);" d="M382.542,59.732c-5.635-28.939-28.823-52.325-57.719-58.19
	c-12.813-2.583-25.948-1.906-38.042,1.917c-20.208,6.417-41.354,6.417-61.563,0c-12.104-3.823-25.219-4.5-38.052-1.917
	c-28.885,5.865-52.073,29.251-57.708,58.19c-0.973,4.988-1.47,9.972-1.458,14.917v85.337c0,30.053,3.698,60.075,10.99,89.233
	c6.865,27.47,10.344,55.752,10.344,84.066v72.045C149.333,464.144,197.188,512,256,512s106.667-47.856,106.667-106.671v-72.045
	c0-28.314,3.479-56.596,10.344-84.066c7.292-29.157,10.99-59.179,10.99-89.233V74.649C384.012,69.704,383.514,64.721,382.542,59.732
	z"/>
<g>
</g>
<g>
</g>
<g>
</g>
<g>
</g>
<g>
</g>
<g>
</g>
<g>
</g>
<g>
</g>
<g>
</g>
<g>
</g>
<g>
</g>
<g>
</g>
<g>
</g>
<g>
</g>
<g>
</g>
</svg>
