<svg id="_20-beard" height="512" viewBox="0 0 192 192" width="512" xmlns="http://www.w3.org/2000/svg" xmlns:xlink="http://www.w3.org/1999/xlink" data-name="20-beard"><linearGradient id="New_Gradient_Swatch_2" gradientUnits="userSpaceOnUse" x1="36.343" x2="155.657" y1="159.657" y2="40.343"><stop offset="0" stop-color="#34cdfa"/><stop offset="1" stop-color="#e8d9f1"/></linearGradient><path d="m165.657 50.343a8 8 0 0 0 -13.657 5.657c0 17.355-34.4 32-56 32s-56-14.645-56-32a8 8 0 0 0 -13.657-5.657c-1.111 1.111-27.1 27.617-18.1 63.6a8 8 0 0 0 10.291 5.65l7.686-2.563a49.29 49.29 0 0 0 7.128 39.411 8 8 0 0 0 12.313 1.219l8.189-8.189a45.6 45.6 0 0 0 3.85 13.525c6.07 13.086 18.106 22.707 35.774 28.6a8.011 8.011 0 0 0 5.06 0c17.668-5.89 29.7-15.511 35.774-28.6a45.6 45.6 0 0 0 3.85-13.525l8.189 8.189a8 8 0 0 0 12.313-1.219 49.29 49.29 0 0 0 7.128-39.411l7.686 2.563a8 8 0 0 0 10.291-5.65c8.991-35.983-16.997-62.489-18.108-63.6z" fill="url(#New_Gradient_Swatch_2)"/><path d="m185.856 16.177a7.951 7.951 0 0 0 -8.973 4.171 14.361 14.361 0 0 1 -3.977 4.465c-1.827 1.273-4.537 2.428-9.292.051a37.529 37.529 0 0 1 -4.6-4.618c-6.871-7.572-18.371-20.246-39.014-20.246-17.608 0-24 14.353-24 24a37.084 37.084 0 0 0 15.912 31.23c10.027 7.228 23.834 10.464 35.684 10.464a48.365 48.365 0 0 0 14.934-2.1c23.311-7.775 29.47-29.294 29.47-39.594a8.025 8.025 0 0 0 -6.144-7.823z" fill="#99e6fd"/><path d="m162.53 47.59a48.365 48.365 0 0 1 -14.934 2.1c-11.85 0-25.657-3.236-35.684-10.464a36.846 36.846 0 0 1 -14.922-22.107 25.535 25.535 0 0 0 -.99 6.881 37.084 37.084 0 0 0 15.912 31.23c10.027 7.228 23.834 10.464 35.684 10.464a48.365 48.365 0 0 0 14.934-2.1c23.311-7.775 29.47-29.294 29.47-39.594a8.079 8.079 0 0 0 -1.76-5.033 42.293 42.293 0 0 1 -27.71 28.623z" fill="#67d9fb"/><path d="m72 0c-20.643 0-32.143 12.674-39.014 20.246a38.554 38.554 0 0 1 -4.564 4.6c-4.791 2.4-7.5 1.24-9.328-.032a14.4 14.4 0 0 1 -3.939-4.391 8 8 0 0 0 -15.155 3.577c0 10.3 6.159 31.819 29.47 39.59a48.36 48.36 0 0 0 14.934 2.1c11.85 0 25.658-3.236 35.684-10.464a37.084 37.084 0 0 0 15.912-31.226c0-9.647-6.392-24-24-24z" fill="#67d9fb"/><path d="m80.088 39.23c-10.026 7.228-23.834 10.464-35.688 10.464a48.36 48.36 0 0 1 -14.934-2.1 42.291 42.291 0 0 1 -27.7-28.6 7.981 7.981 0 0 0 -1.766 5.006c0 10.3 6.159 31.819 29.47 39.59a48.36 48.36 0 0 0 14.934 2.1c11.85 0 25.658-3.236 35.684-10.464a37.084 37.084 0 0 0 15.912-31.226 25.535 25.535 0 0 0 -.99-6.881 36.846 36.846 0 0 1 -14.922 22.111z" fill="#34cdfa"/></svg>