<?xml version="1.0" encoding="iso-8859-1"?>
<!-- Generator: Adobe Illustrator 19.0.0, SVG Export Plug-In . SVG Version: 6.00 Build 0)  -->
<svg version="1.1" id="Capa_1" xmlns="http://www.w3.org/2000/svg" xmlns:xlink="http://www.w3.org/1999/xlink" x="0px" y="0px"
	 viewBox="0 0 512 512" style="enable-background:new 0 0 512 512;" xml:space="preserve">
<path style="fill:#303C42;" d="M447.208,449.552c-2.458-13.896-10.458-26.396-22.271-34.563
	c-3.78-13.391-13.738-23.717-26.379-28.316c2.204-7.938,3.824-15.934,4.85-24.007H416c5.896,0,10.667-4.771,10.667-10.667V160
	c0-5.896-4.771-10.667-10.667-10.667h-12.375C393.029,64.848,320.789,0,234.667,0S76.305,64.848,65.708,149.333H53.333
	c-5.896,0-10.667,4.771-10.667,10.667v192c0,5.896,4.771,10.667,10.667,10.667h12.375C76.305,447.152,148.544,512,234.667,512
	c17.971,0,35.715-3.026,52.908-8.674c5.72,5.339,13.336,8.674,21.759,8.674c13.917,0,25.792-8.938,30.188-21.375
	c3.896,0.229,7.708-0.229,11.604-1.281c14.688,20.885,45.021,28.688,67.938,16.615c5.313,3.906,11.646,6.042,18.271,6.042
	c17.646,0,32-14.354,32-32C469.333,465.792,460.042,453.729,447.208,449.552z"/>
<path style="fill:#D7A580;" d="M234.667,21.333c74.441,0,137.091,55.383,147.508,128H87.159
	C97.576,76.716,160.225,21.333,234.667,21.333z"/>
<path style="opacity:0.2;fill:#FFFFFF;enable-background:new    ;" d="M234.667,53.333c63.021,0,117.457,39.76,139.038,96h8.47
	c-10.417-72.617-73.066-128-147.508-128s-137.091,55.383-147.508,128h8.47C117.21,93.094,171.646,53.333,234.667,53.333z"/>
<rect x="64" y="170.667" style="fill:#F1D3B5;" width="341.333" height="170.667"/>
<rect x="64" y="170.667" style="opacity:0.2;fill:#FFFFFF;enable-background:new    ;" width="21.333" height="170.667"/>
<rect x="384" y="170.667" style="opacity:0.1;enable-background:new    ;" width="21.333" height="170.667"/>
<path style="fill:#D7A580;" d="M87.159,362.667H381.93c-1.092,7.504-2.728,14.936-4.983,22.296
	c-12.621,2.172-23.712,9.645-29.988,20.757c-25.167-3.583-48.292,16.875-48.292,42.281c0,0.604,0.021,1.208,0.042,1.813
	c-12.438,4.396-21.375,16.271-21.375,30.188c0,1.414,0.238,2.762,0.417,4.128c-14.042,4.272-28.477,6.539-43.083,6.539
	C160.225,490.667,97.576,435.284,87.159,362.667z"/>
<path style="fill:#FBF2E9;" d="M437.333,490.667c-4.271,0-7.042-2.865-8.313-4.573c-1.688-2.302-4.25-3.823-7.083-4.219
	c-0.5-0.073-0.979-0.104-1.479-0.104c-2.333,0-4.625,0.771-6.5,2.208c-15.979,12.313-40.438,5.604-48.458-12.281
	c-1.208-2.688-3.458-4.75-6.229-5.719c-2.792-0.938-5.833-0.74-8.458,0.635c-6.438,3.365-11.125,3.417-16.833,1.302
	c-3.417-1.281-7.25-0.708-10.188,1.49c-2.896,2.219-4.479,5.771-4.167,9.406c0.083,1.052,0.313,1.958,0.375,1.188
	c0,5.885-4.792,10.667-10.667,10.667s-10.667-4.781-10.667-10.667c0-5.885,4.792-10.667,8.938-10.854
	c0.583,0.167,2.104,0.49,2.729,0.552c3.75,0.417,7.292-1.167,9.521-4.094c2.25-2.917,2.854-6.792,1.563-10.25
	C320.458,452.813,320,450.406,320,448c0-14.406,15.104-25.406,29.25-19.76c2.833,1.135,6.021,1.021,8.729-0.354
	c2.729-1.354,4.75-3.813,5.542-6.75c2.521-9.302,10.938-15.802,20.479-15.802c10.479,0,19.313,7.563,20.958,17.99
	c0.521,3.219,2.458,6.01,5.292,7.615c10.125,5.708,16.417,16.333,16.417,27.729c0,5.896,4.771,10.667,10.667,10.667
	c5.875,0,10.667,4.781,10.667,10.667C448,485.885,443.208,490.667,437.333,490.667z"/>
<path style="opacity:0.1;enable-background:new    ;" d="M437.333,480c-4.271,0-7.042-2.865-8.313-4.573
	c-1.688-2.302-4.25-3.823-7.083-4.219c-0.5-0.073-0.979-0.104-1.479-0.104c-2.333,0-4.625,0.771-6.5,2.208
	c-15.979,12.313-40.438,5.604-48.458-12.281c-1.208-2.688-3.458-4.75-6.229-5.719c-2.792-0.938-5.833-0.74-8.458,0.635
	c-6.438,3.365-11.125,3.417-16.833,1.302c-3.417-1.281-7.25-0.708-10.188,1.49c-0.962,0.737-1.533,1.786-2.184,2.772
	c-0.284,1.177-0.751,2.297-1.427,3.331c-0.26,1.091-0.655,2.156-0.556,3.303c0.083,1.052,0.313,1.958,0.375,1.188
	c0,5.885-4.792,10.667-10.667,10.667c-3.927,0-7.227-2.236-9.078-5.41c-0.904,1.616-1.589,3.396-1.589,5.41
	c0,5.885,4.792,10.667,10.667,10.667S320,485.885,320,480c-0.063,0.771-0.292-0.135-0.375-1.188
	c-0.313-3.635,1.271-7.188,4.167-9.406c2.938-2.198,6.771-2.771,10.188-1.49c5.708,2.115,10.396,2.063,16.833-1.302
	c2.625-1.375,5.667-1.573,8.458-0.635c2.771,0.969,5.021,3.031,6.229,5.719c8.021,17.885,32.479,24.594,48.458,12.281
	c1.875-1.438,4.167-2.208,6.5-2.208c0.5,0,0.979,0.031,1.479,0.104c2.833,0.396,5.396,1.917,7.083,4.219
	c1.271,1.708,4.042,4.573,8.313,4.573c5.875,0,10.667-4.781,10.667-10.667c0-1.984-0.691-3.741-1.639-5.333
	C444.499,477.797,441.227,480,437.333,480z"/>
<path style="fill:#303C42;" d="M354.771,213.823c-4.646-1.26-9.625,0.813-12.063,4.958c-0.271,0.427-6.5,10.552-24.833,10.552
	c-9.521,0-13.292-2.583-18.542-6.146c-6.438-4.396-14.458-9.854-30.542-9.854c-14.603,0-26.297,4.948-34.125,13.426
	c-7.828-8.478-19.522-13.426-34.125-13.426c-16.083,0-24.104,5.458-30.542,9.854c-5.25,3.563-9.021,6.146-18.542,6.146
	c-18.333,0-24.563-10.125-24.708-10.354c-2.313-4.313-7.25-6.49-11.979-5.333c-4.729,1.167-8.063,5.406-8.104,10.281
	c0,1.219,0.063,30.115,21.604,51.813c15.125,15.219,36.563,22.927,63.729,22.927c18.921,0,33.512-7.406,42.667-17.516
	c9.155,10.109,23.746,17.516,42.667,17.516c84.354,0,85.333-73.917,85.333-74.667C362.667,219.198,359.396,215.104,354.771,213.823z
	"/>
<g>
	<path style="fill:#BF6A1E;" d="M192,277.333c-34.604,0-50.521-14.906-57.813-29.021c4.938,1.448,10.667,2.354,17.271,2.354
		c16.083,0,24.104-5.458,30.542-9.854c5.25-3.563,9.021-6.146,18.542-6.146c15.563,0,23.458,7.177,23.458,21.333
		C224,266.302,211.146,277.333,192,277.333z"/>
	<path style="fill:#BF6A1E;" d="M277.333,277.333c-19.146,0-32-11.031-32-21.333c0-14.156,7.896-21.333,23.458-21.333
		c9.521,0,13.292,2.583,18.542,6.146c6.438,4.396,14.458,9.854,30.542,9.854c6.458,0,12.083-0.865,16.958-2.26
		C327.375,262.458,311.458,277.333,277.333,277.333z"/>
</g>
<g>
	<path style="opacity:0.2;fill:#FFFFFF;enable-background:new    ;" d="M143.513,260.789c2.518,0.305,5.112,0.544,7.945,0.544
		c16.083,0,24.104-5.458,30.542-9.854c5.25-3.563,9.021-6.146,18.542-6.146c12.645,0,19.951,4.983,22.35,14.353
		c0.359-1.237,1.108-2.451,1.108-3.686c0-14.156-7.896-21.333-23.458-21.333c-9.521,0-13.292,2.583-18.542,6.146
		c-6.438,4.396-14.458,9.854-30.542,9.854c-6.604,0-12.333-0.906-17.271-2.354C136.38,252.557,139.487,256.828,143.513,260.789z"/>
	<path style="opacity:0.2;fill:#FFFFFF;enable-background:new    ;" d="M273.271,245.333c9.521,0,13.292,2.583,18.542,6.146
		c6.438,4.396,14.458,9.854,30.542,9.854c0.971,0,1.794-0.145,2.728-0.182c4.204-4.034,7.448-8.405,9.751-12.745
		c-4.875,1.396-10.5,2.26-16.958,2.26c-16.083,0-24.104-5.458-30.542-9.854c-5.25-3.563-9.021-6.146-18.542-6.146
		c-15.563,0-23.458,7.177-23.458,21.333c0,3.473,1.905,6.878,4.574,10.065C250.159,252.359,257.96,245.333,273.271,245.333z"/>
</g>
<path style="opacity:0.1;enable-background:new    ;" d="M376.947,384.962c2.255-7.359,3.891-14.792,4.983-22.296h-8.225
	c-4.48,11.674-10.671,22.419-17.766,32.466C361.849,389.988,369.01,386.328,376.947,384.962z"/>
<path style="opacity:0.1;enable-background:new    ;" d="M234.667,490.667c14.607,0,29.042-2.267,43.083-6.539
	c-0.178-1.366-0.417-2.714-0.417-4.128c0-13.917,8.938-25.792,21.375-30.188c-0.021-0.604-0.042-1.208-0.042-1.813
	c0-1.461,0.332-2.835,0.48-4.259c-19.57,9.504-41.424,14.926-64.48,14.926c-63.021,0-117.457-39.76-139.038-96h-8.47
	C97.576,435.284,160.225,490.667,234.667,490.667z"/>
<linearGradient id="SVGID_1_" gradientUnits="userSpaceOnUse" x1="-44.8613" y1="638.7566" x2="-22.5189" y2="628.334" gradientTransform="matrix(21.3333 0 0 -21.3333 996.3334 13791.667)">
	<stop  offset="0" style="stop-color:#FFFFFF;stop-opacity:0.2"/>
	<stop  offset="1" style="stop-color:#FFFFFF;stop-opacity:0"/>
</linearGradient>
<path style="fill:url(#SVGID_1_);" d="M447.208,449.552c-2.458-13.896-10.458-26.396-22.271-34.563
	c-3.78-13.391-13.738-23.717-26.379-28.316c2.204-7.938,3.824-15.934,4.85-24.007H416c5.896,0,10.667-4.771,10.667-10.667V160
	c0-5.896-4.771-10.667-10.667-10.667h-12.375C393.029,64.848,320.789,0,234.667,0S76.305,64.848,65.708,149.333H53.333
	c-5.896,0-10.667,4.771-10.667,10.667v192c0,5.896,4.771,10.667,10.667,10.667h12.375C76.305,447.152,148.544,512,234.667,512
	c17.971,0,35.715-3.026,52.908-8.674c5.72,5.339,13.336,8.674,21.759,8.674c13.917,0,25.792-8.938,30.188-21.375
	c3.896,0.229,7.708-0.229,11.604-1.281c14.688,20.885,45.021,28.688,67.938,16.615c5.313,3.906,11.646,6.042,18.271,6.042
	c17.646,0,32-14.354,32-32C469.333,465.792,460.042,453.729,447.208,449.552z"/>
<g>
</g>
<g>
</g>
<g>
</g>
<g>
</g>
<g>
</g>
<g>
</g>
<g>
</g>
<g>
</g>
<g>
</g>
<g>
</g>
<g>
</g>
<g>
</g>
<g>
</g>
<g>
</g>
<g>
</g>
</svg>
