<?xml version="1.0" encoding="iso-8859-1"?>
<!-- Generator: Adobe Illustrator 19.0.0, SVG Export Plug-In . SVG Version: 6.00 Build 0)  -->
<svg version="1.1" id="Capa_1" xmlns="http://www.w3.org/2000/svg" xmlns:xlink="http://www.w3.org/1999/xlink" x="0px" y="0px"
	 viewBox="0 0 512 512" style="enable-background:new 0 0 512 512;" xml:space="preserve">
<path style="fill:#303C42;" d="M256,0C114.844,0,0,114.844,0,256s114.844,256,256,256s256-114.844,256-256S397.156,0,256,0z"/>
<path style="fill:#F1D3B5;" d="M256,490.667C126.604,490.667,21.333,385.396,21.333,256S126.604,21.333,256,21.333
	S490.667,126.604,490.667,256S385.396,490.667,256,490.667z"/>
<path style="opacity:0.2;fill:#FFFFFF;enable-background:new    ;" d="M32,277.333C32,147.938,137.271,42.667,266.667,42.667
	c87.715,0,164.224,48.452,204.49,119.923C434.969,79.568,352.197,21.333,256,21.333C126.604,21.333,21.333,126.604,21.333,256
	c0,41.681,11.043,80.781,30.177,114.743C39.021,342.091,32,310.533,32,277.333z"/>
<path style="fill:#303C42;" d="M418.76,149.792c-4.625-1.281-9.604,0.813-12.042,4.948c-0.385,0.656-9.698,15.927-37.26,15.927
	c-14.229,0-20.104-3.917-27.542-8.875c-8.323-5.552-18.688-12.458-39.375-12.458c-23.014,0-37.724,8.326-46.542,19.969
	c-8.818-11.643-23.527-19.969-46.542-19.969c-20.688,0-31.052,6.906-39.375,12.458c-7.438,4.958-13.313,8.875-27.542,8.875
	c-27.563,0-36.875-15.271-37.177-15.771c-2.323-4.281-7.229-6.417-11.969-5.24c-4.708,1.188-8.031,5.406-8.063,10.271
	c-0.009,1.421,0.332,32.48,21.938,59.134l7.094,60.324c8.771,74.563,96.198,121.594,142.667,125.896
	c44.406-4.302,131.833-51.333,140.604-125.896l7.126-60.564c21.37-26.773,21.905-58.272,21.905-58.822
	C426.667,155.188,423.406,151.052,418.76,149.792z M309.333,298.667c-34.552,0-43.552-15.042-43.792-15.438
	c-1.76-3.521-5.385-5.646-9.323-5.75c-3.948-0.396-7.677,2.083-9.625,5.5c-0.375,0.646-9.375,15.688-43.927,15.688
	c-21.66,0-33.397-27.883-38.853-46.608c10.523,2.333,21.635,3.941,34.009,3.941c26.512,0,46.714-10.771,58.177-25.091
	C267.464,245.229,287.665,256,314.177,256c12.747,0,23.891-1.372,33.913-3.585C342.609,271.159,330.919,298.667,309.333,298.667z"/>
<g>
	<path style="fill:#BF6A1E;" d="M302.542,170.667c14.229,0,20.104,3.917,27.542,8.875c8.323,5.552,18.688,12.458,39.375,12.458
		c12.417,0,22.396-2.396,30.292-5.75c-8.583,21.531-30.354,48.417-85.573,48.417c-28.417,0-47.51-16.542-47.51-32
		C266.667,188.073,272.896,170.667,302.542,170.667z"/>
	<path style="fill:#BF6A1E;" d="M142.542,192c20.688,0,31.052-6.906,39.375-12.458c7.438-4.958,13.313-8.875,27.542-8.875
		c29.646,0,35.875,17.406,35.875,32c0,15.458-19.094,32-47.51,32c-55.198,0-76.969-26.896-85.563-48.406
		C120.156,189.615,130.135,192,142.542,192z"/>
</g>
<g>
	<path style="opacity:0.2;fill:#FFFFFF;enable-background:new    ;" d="M271.74,213.333c0-14.594,6.229-32,35.875-32
		c14.229,0,20.104,3.917,27.542,8.875c8.323,5.552,18.688,12.458,39.375,12.458c6.398,0,12.1-0.668,17.253-1.743
		c3.393-4.924,6.073-9.924,7.966-14.673c-7.896,3.354-17.875,5.75-30.292,5.75c-20.688,0-31.052-6.906-39.375-12.458
		c-7.438-4.958-13.313-8.875-27.542-8.875c-29.646,0-35.875,17.406-35.875,32c0,4.904,2.108,9.863,5.639,14.423
		C272.063,215.836,271.74,214.582,271.74,213.333z"/>
	<path style="opacity:0.2;fill:#FFFFFF;enable-background:new    ;" d="M147.615,202.667c20.688,0,31.052-6.906,39.375-12.458
		c7.438-4.958,13.313-8.875,27.542-8.875c15.435,0,24.432,4.76,29.598,11.342c-2.833-11.517-11.664-22.009-34.671-22.009
		c-14.229,0-20.104,3.917-27.542,8.875C173.594,185.094,163.229,192,142.542,192c-12.406,0-22.385-2.385-30.281-5.74
		c1.4,3.505,3.318,7.148,5.505,10.799C125.6,200.329,135.408,202.667,147.615,202.667z"/>
</g>
<path style="fill:#BF6A1E;" d="M257.031,384.052c-37.385-3.625-114.135-44.729-121.479-107.167l-4.362-37.098
	c2.66,1.59,5.69,2.738,8.548,4.094c3.62,18.085,18.678,76.118,62.928,76.118c28.094,0,44.385-8.417,53.333-15.938
	c8.948,7.521,25.24,15.938,53.333,15.938c43.939,0,59.082-57.24,62.84-75.78c3.013-1.431,5.962-2.889,8.65-4.513l-4.375,37.178
	C369.104,339.323,292.354,380.427,257.031,384.052z"/>
<path style="opacity:0.1;enable-background:new    ;" d="M257.051,373.333c-34.499-3.262-101.517-36.936-120.116-89.129
	c12.207,58.284,84.204,96.367,120.096,99.848c33.928-3.482,105.9-41.6,118.051-99.931
	C356.544,336.361,289.664,370.069,257.051,373.333z"/>
<linearGradient id="SVGID_1_" gradientUnits="userSpaceOnUse" x1="-45.5784" y1="639.555" x2="-23.8278" y2="629.4138" gradientTransform="matrix(21.3333 0 0 -21.3333 996.3334 13791.667)">
	<stop  offset="0" style="stop-color:#FFFFFF;stop-opacity:0.2"/>
	<stop  offset="1" style="stop-color:#FFFFFF;stop-opacity:0"/>
</linearGradient>
<path style="fill:url(#SVGID_1_);" d="M256,0C114.844,0,0,114.844,0,256s114.844,256,256,256s256-114.844,256-256S397.156,0,256,0z"
	/>
<g>
</g>
<g>
</g>
<g>
</g>
<g>
</g>
<g>
</g>
<g>
</g>
<g>
</g>
<g>
</g>
<g>
</g>
<g>
</g>
<g>
</g>
<g>
</g>
<g>
</g>
<g>
</g>
<g>
</g>
</svg>
