<?xml version="1.0" encoding="iso-8859-1"?>
<!-- Generator: Adobe Illustrator 19.0.0, SVG Export Plug-In . SVG Version: 6.00 Build 0)  -->
<svg version="1.1" id="Capa_1" xmlns="http://www.w3.org/2000/svg" xmlns:xlink="http://www.w3.org/1999/xlink" x="0px" y="0px"
	 viewBox="0 0 512 512" style="enable-background:new 0 0 512 512;" xml:space="preserve">
<path style="fill:#303C42;" d="M426.667,432.6V79.4C439.358,72,448,58.392,448,42.667C448,19.135,428.865,0,405.333,0h-192
	c-19.827,0-36.383,13.648-41.152,32H85.333V10.667C85.333,4.771,80.563,0,74.667,0C68.771,0,64,4.771,64,10.667v64
	c0,5.896,4.771,10.667,10.667,10.667c5.896,0,10.667-4.771,10.667-10.667V53.333h86.848C175.073,64.46,182.298,73.743,192,79.4
	V432.6c-9.702,5.656-16.927,14.94-19.819,26.066H85.333v-21.333c0-5.896-4.771-10.667-10.667-10.667
	c-5.896,0-10.667,4.771-10.667,10.667v64C64,507.229,68.771,512,74.667,512c5.896,0,10.667-4.771,10.667-10.667V480h86.848
	c4.77,18.352,21.326,32,41.152,32h192C428.865,512,448,492.865,448,469.333C448,453.608,439.358,440,426.667,432.6z"/>
<path style="fill:#FFFFFF;" d="M220.38,426.667c17.564-14.044,64.579-27.363,98.016-36.813
	c36.066-10.198,67.341-19.173,86.938-30.771v67.583H220.38z"/>
<path style="fill:#EAE7E4;" d="M213.333,21.333h192c11.76,0,21.333,9.573,21.333,21.333S417.094,64,405.333,64h-192
	C201.573,64,192,54.427,192,42.667S201.573,21.333,213.333,21.333z"/>
<path style="opacity:0.2;fill:#FFFFFF;enable-background:new    ;" d="M202.667,53.333C202.667,41.573,212.24,32,224,32h192
	c3.12,0,6.034,0.749,8.708,1.958c-3.349-7.406-10.734-12.625-19.375-12.625h-192c-11.76,0-21.333,9.573-21.333,21.333
	c0,8.641,5.219,16.026,12.625,19.375C203.415,59.367,202.667,56.453,202.667,53.333z"/>
<path style="fill:#E53935;" d="M394.286,85.333c-18.504,10.107-56.31,20.816-81.693,27.99
	c-39.051,11.039-76.704,21.702-99.26,36.546V85.333H394.286z"/>
<path style="fill:#FFFFFF;" d="M318.396,133.854c36.066-10.198,67.341-19.173,86.938-30.771V160
	c0,12.438-58.052,28.854-92.74,38.656c-39.051,11.039-76.704,21.702-99.26,36.546v-53.868
	C213.333,163.552,276.563,145.677,318.396,133.854z"/>
<path style="fill:#1E88E5;" d="M318.396,219.188c36.066-10.198,67.341-19.173,86.938-30.771v56.917
	c0,12.438-58.052,28.854-92.74,38.656c-39.051,11.039-76.704,21.702-99.26,36.546v-53.868
	C213.333,248.885,276.563,231.01,318.396,219.188z"/>
<path style="fill:#E53935;" d="M318.396,304.521c36.066-10.198,67.341-19.173,86.938-30.771v56.917
	c0,12.438-58.052,28.854-92.74,38.656c-39.051,11.039-76.704,21.702-99.26,36.546V352
	C213.333,334.219,276.563,316.344,318.396,304.521z"/>
<path style="fill:#EAE7E4;" d="M405.333,490.667h-192c-11.76,0-21.333-9.573-21.333-21.333S201.573,448,213.333,448h192
	c11.76,0,21.333,9.573,21.333,21.333S417.094,490.667,405.333,490.667z"/>
<path style="opacity:0.1;enable-background:new    ;" d="M414.042,449.958c1.21,2.674,1.958,5.589,1.958,8.708
	c0,11.76-9.573,21.333-21.333,21.333h-192c-3.12,0-6.034-0.749-8.708-1.958c3.349,7.406,10.734,12.625,19.375,12.625h192
	c11.76,0,21.333-9.573,21.333-21.333C426.667,460.693,421.448,453.307,414.042,449.958z"/>
<path style="opacity:0.2;fill:#FFFFFF;enable-background:new    ;" d="M224,426.667h32v-17.413
	c-12.986,4.776-24.264,9.826-32,15.013V426.667z M224,85.333v58.415c9.279-4.792,20.105-9.169,32-13.296v-45.12H224z M224,229.082
	c9.279-4.792,20.105-9.169,32-13.296v-62.6c-12.841,4.711-24.24,9.694-32,14.81V229.082z M224,314.415
	c9.279-4.792,20.105-9.169,32-13.296v-62.6c-12.841,4.711-24.24,9.694-32,14.81V314.415z M224,399.749
	c9.279-4.792,20.105-9.169,32-13.296v-62.6c-12.841,4.711-24.24,9.694-32,14.81V399.749z"/>
<g style="opacity:0.2;">
	<path style="fill:#FFFFFF;" d="M245.333,426.667h32v-24.719c-11.357,3.599-22.299,7.464-32,11.469V426.667z M245.333,85.333v49.004
		c9.863-3.773,20.684-7.314,32-10.763V85.333H245.333z M245.333,219.671c9.863-3.773,20.684-7.314,32-10.763v-62.96
		c-11.306,3.579-22.324,7.4-32,11.379V219.671z M245.333,305.004c9.863-3.773,20.684-7.314,32-10.763v-62.96
		c-11.306,3.579-22.324,7.4-32,11.379V305.004z M245.333,390.337c9.863-3.773,20.684-7.314,32-10.763v-62.96
		c-11.306,3.579-22.324,7.4-32,11.379V390.337z"/>
</g>
<path style="opacity:0.05;enable-background:new    ;" d="M341.333,426.667h32v-53.646c-9.801,3.458-20.422,6.855-32,10.246V426.667
	z M341.333,85.333v19.658c10.993-3.314,22.087-6.896,32-10.577v-9.081H341.333z M341.333,190.345
	c10.957-3.299,22.107-6.879,32-10.544v-62.78c-9.801,3.458-20.422,6.855-32,10.246V190.345z M341.333,275.678
	c10.957-3.299,22.107-6.879,32-10.544v-62.78c-9.801,3.458-20.422,6.855-32,10.246V275.678z M341.333,361.012
	c10.957-3.299,22.107-6.879,32-10.544v-62.78c-9.801,3.458-20.422,6.855-32,10.246V361.012z"/>
<path style="opacity:0.1;enable-background:new    ;" d="M362.667,426.667h32v-62.328c-9.207,4.322-19.875,8.408-32,12.336V426.667z
	 M362.667,85.333v12.862c12.379-4.189,23.768-8.573,31.62-12.862H362.667z M362.667,120.674v62.891
	c12.626-4.264,24.118-8.737,32-13.099v-62.128C385.46,112.66,374.792,116.746,362.667,120.674z M362.667,268.898
	c12.626-4.264,24.118-8.737,32-13.099v-62.128c-9.207,4.322-19.875,8.408-32,12.336V268.898z M362.667,354.232
	c12.626-4.264,24.118-8.737,32-13.099v-62.128c-9.207,4.322-19.875,8.408-32,12.336V354.232z"/>
<linearGradient id="SVGID_1_" gradientUnits="userSpaceOnUse" x1="-46.6474" y1="639.7816" x2="-23.4149" y2="628.9484" gradientTransform="matrix(21.3333 0 0 -21.3333 996.3334 13791.667)">
	<stop  offset="0" style="stop-color:#FFFFFF;stop-opacity:0.2"/>
	<stop  offset="1" style="stop-color:#FFFFFF;stop-opacity:0"/>
</linearGradient>
<path style="fill:url(#SVGID_1_);" d="M426.667,432.6V79.4C439.358,72,448,58.392,448,42.667C448,19.135,428.865,0,405.333,0h-192
	c-19.827,0-36.383,13.648-41.152,32H85.333V10.667C85.333,4.771,80.563,0,74.667,0C68.771,0,64,4.771,64,10.667v64
	c0,5.896,4.771,10.667,10.667,10.667c5.896,0,10.667-4.771,10.667-10.667V53.333h86.848C175.073,64.46,182.298,73.743,192,79.4
	V432.6c-9.702,5.656-16.927,14.94-19.819,26.066H85.333v-21.333c0-5.896-4.771-10.667-10.667-10.667
	c-5.896,0-10.667,4.771-10.667,10.667v64C64,507.229,68.771,512,74.667,512c5.896,0,10.667-4.771,10.667-10.667V480h86.848
	c4.77,18.352,21.326,32,41.152,32h192C428.865,512,448,492.865,448,469.333C448,453.608,439.358,440,426.667,432.6z"/>
<g>
</g>
<g>
</g>
<g>
</g>
<g>
</g>
<g>
</g>
<g>
</g>
<g>
</g>
<g>
</g>
<g>
</g>
<g>
</g>
<g>
</g>
<g>
</g>
<g>
</g>
<g>
</g>
<g>
</g>
</svg>
