<?xml version="1.0" encoding="iso-8859-1"?>
<!-- Generator: Adobe Illustrator 19.0.0, SVG Export Plug-In . SVG Version: 6.00 Build 0)  -->
<svg version="1.1" id="Capa_1" xmlns="http://www.w3.org/2000/svg" xmlns:xlink="http://www.w3.org/1999/xlink" x="0px" y="0px"
	 viewBox="0 0 512 512" style="enable-background:new 0 0 512 512;" xml:space="preserve">
<path style="fill:#303C42;" d="M320,149.927v-43.26h10.667c5.896,0,10.667-4.771,10.667-10.667V53.333
	c0-5.896-4.771-10.667-10.667-10.667h-4.094l13.594-27.24c1.646-3.312,1.479-7.24-0.479-10.385C337.75,1.906,334.313,0,330.625,0
	h-0.021L181.375,0.375c-3.708,0.01-7.125,1.927-9.063,5.083c-1.938,3.146-2.104,7.073-0.438,10.375l13.496,26.833h-4.038
	c-5.896,0-10.667,4.771-10.667,10.667V96c0,5.896,4.771,10.667,10.667,10.667H192v43.26c-47.938,5.323-85.333,46.073-85.333,95.406
	v224c0,23.531,19.146,42.667,42.667,42.667h213.333c23.521,0,42.667-19.135,42.667-42.667v-224
	C405.333,196,367.938,155.25,320,149.927z"/>
<rect x="192" y="64" style="fill:#A1ABB2;" width="128" height="21.333"/>
<rect x="192" y="64" style="opacity:0.2;fill:#FFFFFF;enable-background:new    ;" width="10.667" height="21.333"/>
<rect x="309.333" y="64" style="opacity:0.1;enable-background:new    ;" width="10.667" height="21.333"/>
<polygon style="fill:#D58347;" points="198.688,21.667 313.354,21.375 302.737,42.667 209.237,42.667 "/>
<polygon style="opacity:0.2;fill:#FFFFFF;enable-background:new    ;" points="256.021,21.521 198.688,21.667 209.237,42.667 
	221.221,42.667 213.375,21.667 "/>
<polygon style="opacity:0.1;enable-background:new    ;" points="298.652,21.413 290.77,42.667 302.737,42.667 313.354,21.375 "/>
<path style="fill:#72808A;" d="M202.667,170.667c5.896,0,10.667-4.771,10.667-10.667v-53.333h85.333V160
	c0,5.896,4.771,10.667,10.667,10.667c37.514,0,68.357,27.911,73.589,64H129.078C134.31,198.578,165.152,170.667,202.667,170.667z"/>
<polygon style="fill:#D1D1CE;" points="384,405.333 128,405.333 128,298.594 128,256 384,256 384,298.667 "/>
<path style="fill:#72808A;" d="M362.667,490.667H149.333c-11.771,0-21.333-9.573-21.333-21.333v-42.667h256v42.667
	C384,481.094,374.438,490.667,362.667,490.667z"/>
<path style="opacity:0.2;fill:#FFFFFF;enable-background:new    ;" d="M216,170.667c4.422,0,8-4.771,8-10.667v-53.333h-10.667V160
	c0,5.896-4.771,10.667-10.667,10.667c-37.514,0-68.357,27.911-73.589,64h31.73C164.733,198.578,187.865,170.667,216,170.667z"/>
<path style="opacity:0.1;enable-background:new    ;" d="M309.333,170.667c-5.896,0-10.667-4.771-10.667-10.667v-53.333H288V160
	c0,5.896,3.578,10.667,8,10.667c28.135,0,51.268,27.911,55.191,64h31.73C377.69,198.578,346.848,170.667,309.333,170.667z"/>
<path style="opacity:0.2;fill:#FFFFFF;enable-background:new    ;" d="M160,469.333v-42.667h-32v42.667
	c0,11.76,9.563,21.333,21.333,21.333H176C167.172,490.667,160,481.094,160,469.333z"/>
<path style="opacity:0.1;enable-background:new    ;" d="M352,426.667v42.667c0,11.76-7.172,21.333-16,21.333h26.667
	c11.771,0,21.333-9.573,21.333-21.333v-42.667H352z"/>
<path style="fill:#303C42;" d="M376.104,288.49c-4.646-1.26-9.625,0.813-12.063,4.958c-0.271,0.427-6.5,10.552-24.833,10.552
	c-9.521,0-13.292-2.583-18.542-6.146c-6.438-4.396-14.458-9.854-30.542-9.854c-14.603,0-26.297,4.948-34.125,13.426
	C248.172,292.948,236.478,288,221.875,288c-16.083,0-24.104,5.458-30.542,9.854c-5.25,3.563-9.021,6.146-18.542,6.146
	c-18.333,0-24.563-10.125-24.708-10.354c-2.313-4.313-7.25-6.49-11.979-5.333c-4.729,1.167-8.063,5.406-8.104,10.281
	c0,1.219,0.063,30.115,21.604,51.813c15.125,15.219,36.563,22.927,63.729,22.927c18.921,0,33.512-7.406,42.667-17.516
	c9.155,10.109,23.746,17.516,42.667,17.516c84.354,0,85.333-73.917,85.333-74.667C384,293.865,380.729,289.771,376.104,288.49z"/>
<g>
	<path style="fill:#BF6A1E;" d="M213.333,352c-34.604,0-50.521-14.906-57.813-29.021c4.938,1.448,10.667,2.354,17.271,2.354
		c16.083,0,24.104-5.458,30.542-9.854c5.25-3.563,9.021-6.146,18.542-6.146c15.563,0,23.458,7.177,23.458,21.333
		C245.333,340.969,232.479,352,213.333,352z"/>
	<path style="fill:#BF6A1E;" d="M298.667,352c-19.146,0-32-11.031-32-21.333c0-14.156,7.896-21.333,23.458-21.333
		c9.521,0,13.292,2.583,18.542,6.146c6.438,4.396,14.458,9.854,30.542,9.854c6.458,0,12.083-0.865,16.958-2.26
		C348.708,337.125,332.792,352,298.667,352z"/>
</g>
<g>
	<path style="opacity:0.2;fill:#FFFFFF;enable-background:new    ;" d="M164.846,335.456c2.518,0.305,5.112,0.544,7.945,0.544
		c16.083,0,24.104-5.458,30.542-9.854c5.25-3.563,9.021-6.146,18.542-6.146c12.645,0,19.951,4.983,22.35,14.353
		c0.359-1.237,1.108-2.451,1.108-3.686c0-14.156-7.896-21.333-23.458-21.333c-9.521,0-13.292,2.583-18.542,6.146
		c-6.438,4.396-14.458,9.854-30.542,9.854c-6.604,0-12.333-0.906-17.271-2.354C157.714,327.224,160.82,331.495,164.846,335.456z"/>
	<path style="opacity:0.2;fill:#FFFFFF;enable-background:new    ;" d="M294.604,320c9.521,0,13.292,2.583,18.542,6.146
		c6.438,4.396,14.458,9.854,30.542,9.854c0.971,0,1.794-0.145,2.728-0.182c4.204-4.034,7.448-8.405,9.751-12.745
		c-4.875,1.396-10.5,2.26-16.958,2.26c-16.083,0-24.104-5.458-30.542-9.854c-5.25-3.563-9.021-6.146-18.542-6.146
		c-15.563,0-23.458,7.177-23.458,21.333c0,3.473,1.905,6.878,4.574,10.065C271.492,327.026,279.293,320,294.604,320z"/>
</g>
<linearGradient id="SVGID_1_" gradientUnits="userSpaceOnUse" x1="-42.5905" y1="637.7347" x2="-25.1172" y2="629.5866" gradientTransform="matrix(21.3333 0 0 -21.3333 996.3334 13791.667)">
	<stop  offset="0" style="stop-color:#FFFFFF;stop-opacity:0.2"/>
	<stop  offset="1" style="stop-color:#FFFFFF;stop-opacity:0"/>
</linearGradient>
<path style="fill:url(#SVGID_1_);" d="M320,149.927v-43.26h10.667c5.896,0,10.667-4.771,10.667-10.667V53.333
	c0-5.896-4.771-10.667-10.667-10.667h-4.094l13.594-27.24c1.646-3.312,1.479-7.24-0.479-10.385C337.75,1.906,334.313,0,330.625,0
	h-0.021L181.375,0.375c-3.708,0.01-7.125,1.927-9.063,5.083c-1.938,3.146-2.104,7.073-0.438,10.375l13.496,26.833h-4.038
	c-5.896,0-10.667,4.771-10.667,10.667V96c0,5.896,4.771,10.667,10.667,10.667H192v43.26c-47.938,5.323-85.333,46.073-85.333,95.406
	v224c0,23.531,19.146,42.667,42.667,42.667h213.333c23.521,0,42.667-19.135,42.667-42.667v-224
	C405.333,196,367.938,155.25,320,149.927z"/>
<g>
</g>
<g>
</g>
<g>
</g>
<g>
</g>
<g>
</g>
<g>
</g>
<g>
</g>
<g>
</g>
<g>
</g>
<g>
</g>
<g>
</g>
<g>
</g>
<g>
</g>
<g>
</g>
<g>
</g>
</svg>
