<?xml version="1.0" encoding="iso-8859-1"?>
<!-- Generator: Adobe Illustrator 19.0.0, SVG Export Plug-In . SVG Version: 6.00 Build 0)  -->
<svg version="1.1" id="Capa_1" xmlns="http://www.w3.org/2000/svg" xmlns:xlink="http://www.w3.org/1999/xlink" x="0px" y="0px"
	 viewBox="0 0 512 512" style="enable-background:new 0 0 512 512;" xml:space="preserve">
<path style="fill:#303C42;" d="M458.667,149.333c-5.896,0-10.667,4.771-10.667,10.667c0,35.958-16.688,74.667-53.333,74.667
	c-42.104,0-53.333-73.75-53.333-117.333v-32C341.333,38.281,303.063,0,256,0s-85.333,38.281-85.333,85.333v32
	c0,43.583-11.229,117.333-53.333,117.333C80.688,234.667,64,195.958,64,160c0-5.896-4.771-10.667-10.667-10.667
	S42.667,154.104,42.667,160c0,42.802,20.341,88.099,64,94.674v214.659c0,23.531,19.146,42.667,42.667,42.667h213.333
	c23.521,0,42.667-19.135,42.667-42.667V254.674c43.659-6.576,64-51.872,64-94.674C469.333,154.104,464.563,149.333,458.667,149.333z
	 M320,106.667H192V85.333c0-35.292,28.708-64,64-64s64,28.708,64,64V106.667z"/>
<path style="fill:#BF6A1E;" d="M384,469.333c0,11.76-9.563,21.333-21.333,21.333H149.333c-11.771,0-21.333-9.573-21.333-21.333
	v-214.26c53.75-9.708,62.479-92.813,63.792-127.073h128.417c1.313,34.26,10.042,117.365,63.792,127.073V469.333z"/>
<linearGradient id="SVGID_1_" gradientUnits="userSpaceOnUse" x1="-41.296" y1="633.2566" x2="-35.56" y2="630.5816" gradientTransform="matrix(21.3333 0 0 -21.3333 996.3334 13791.667)">
	<stop  offset="0" style="stop-color:#FFFFFF;stop-opacity:0.2"/>
	<stop  offset="1" style="stop-color:#FFFFFF;stop-opacity:0"/>
</linearGradient>
<path style="fill:url(#SVGID_1_);" d="M149.333,469.333V272.125c0-9.527,5.651-17.563,13.585-22.84
	C195.665,227.5,201.521,158.453,202.493,128h-10.702C190.479,162.26,181.75,245.365,128,255.073v214.26
	c0,11.76,9.563,21.333,21.333,21.333h17.777C157.302,490.667,149.333,481.094,149.333,469.333z"/>
<path style="opacity:0.1;enable-background:new    ;" d="M320.208,128h-10.702c0.973,30.453,6.828,99.5,39.576,121.285
	c7.934,5.277,13.585,13.313,13.585,22.84v197.208c0,11.76-7.969,21.333-17.777,21.333h17.777c11.771,0,21.333-9.573,21.333-21.333
	v-214.26C330.25,245.365,321.521,162.26,320.208,128z"/>
<path style="fill:#303C42;" d="M224,320h-64c-5.896,0-10.667,4.771-10.667,10.667V384c0,23.531,19.146,42.667,42.667,42.667
	s42.667-19.135,42.667-42.667v-53.333C234.667,324.771,229.896,320,224,320z"/>
<path style="fill:#A6714D;" d="M213.333,384c0,11.76-9.563,21.333-21.333,21.333c-11.771,0-21.333-9.573-21.333-21.333v-42.667
	h42.667V384z"/>
<path style="fill:#303C42;" d="M288,320c-5.896,0-10.667,4.771-10.667,10.667V384c0,23.531,19.146,42.667,42.667,42.667
	c23.521,0,42.667-19.135,42.667-42.667v-53.333c0-5.896-4.771-10.667-10.667-10.667H288z"/>
<path style="fill:#A6714D;" d="M341.333,384c0,11.76-9.563,21.333-21.333,21.333c-11.771,0-21.333-9.573-21.333-21.333v-42.667
	h42.667V384z"/>
<path style="opacity:0.1;enable-background:new    ;" d="M192,394.667c-11.771,0-21.333-9.573-21.333-21.333V384
	c0,11.76,9.563,21.333,21.333,21.333c11.771,0,21.333-9.573,21.333-21.333v-10.667C213.333,385.094,203.771,394.667,192,394.667z"/>
<path style="opacity:0.1;enable-background:new    ;" d="M320,394.667c-11.771,0-21.333-9.573-21.333-21.333V384
	c0,11.76,9.563,21.333,21.333,21.333c11.771,0,21.333-9.573,21.333-21.333v-10.667C341.333,385.094,331.771,394.667,320,394.667z"/>
<path style="fill:#303C42;" d="M202.667,256h106.667c5.896,0,10.667-4.771,10.667-10.667c0-5.896-4.771-10.667-10.667-10.667
	H202.667c-5.896,0-10.667,4.771-10.667,10.667C192,251.229,196.771,256,202.667,256z"/>
<linearGradient id="SVGID_2_" gradientUnits="userSpaceOnUse" x1="-45.0902" y1="638.2654" x2="-25.3603" y2="629.0655" gradientTransform="matrix(21.3333 0 0 -21.3333 996.3334 13791.667)">
	<stop  offset="0" style="stop-color:#FFFFFF;stop-opacity:0.2"/>
	<stop  offset="1" style="stop-color:#FFFFFF;stop-opacity:0"/>
</linearGradient>
<path style="fill:url(#SVGID_2_);" d="M458.667,149.333c-5.896,0-10.667,4.771-10.667,10.667c0,35.958-16.688,74.667-53.333,74.667
	c-42.104,0-53.333-73.75-53.333-117.333v-32C341.333,38.281,303.063,0,256,0s-85.333,38.281-85.333,85.333v32
	c0,43.583-11.229,117.333-53.333,117.333C80.688,234.667,64,195.958,64,160c0-5.896-4.771-10.667-10.667-10.667
	S42.667,154.104,42.667,160c0,42.802,20.341,88.099,64,94.674v214.659c0,23.531,19.146,42.667,42.667,42.667h213.333
	c23.521,0,42.667-19.135,42.667-42.667V254.674c43.659-6.576,64-51.872,64-94.674C469.333,154.104,464.563,149.333,458.667,149.333z
	 M320,106.667H192V85.333c0-35.292,28.708-64,64-64s64,28.708,64,64V106.667z"/>
<g>
</g>
<g>
</g>
<g>
</g>
<g>
</g>
<g>
</g>
<g>
</g>
<g>
</g>
<g>
</g>
<g>
</g>
<g>
</g>
<g>
</g>
<g>
</g>
<g>
</g>
<g>
</g>
<g>
</g>
</svg>
